<mxfile host="app.diagrams.net" modified="2024-04-20T10:45:39.337Z" agent="Mozilla/5.0 (Windows NT 10.0; Win64; x64; rv:125.0) Gecko/20100101 Firefox/125.0" etag="m0bp0-yGX0sbmN4h9J-P" version="24.2.7" type="github">
  <diagram name="Page-1" id="-hgr9iUISdhcj5yBi1x9">
    <mxGraphModel dx="819" dy="426" grid="1" gridSize="10" guides="1" tooltips="1" connect="1" arrows="1" fold="1" page="1" pageScale="1" pageWidth="850" pageHeight="1100" math="0" shadow="0">
      <root>
        <mxCell id="0" />
        <mxCell id="1" parent="0" />
        <mxCell id="STuhEBGFBtfZAA0xbkG_-17" value="Masters" style="group;labelPosition=center;verticalLabelPosition=bottom;align=center;verticalAlign=top;" vertex="1" connectable="0" parent="1">
          <mxGeometry x="300" y="240" width="48" height="70" as="geometry" />
        </mxCell>
        <mxCell id="STuhEBGFBtfZAA0xbkG_-7" value="" style="image;aspect=fixed;perimeter=ellipsePerimeter;html=1;align=center;shadow=0;dashed=0;spacingTop=3;image=img/lib/active_directory/generic_server.svg;" vertex="1" parent="STuhEBGFBtfZAA0xbkG_-17">
          <mxGeometry width="28.000000000000004" height="50" as="geometry" />
        </mxCell>
        <mxCell id="STuhEBGFBtfZAA0xbkG_-9" value="" style="image;aspect=fixed;perimeter=ellipsePerimeter;html=1;align=center;shadow=0;dashed=0;spacingTop=3;image=img/lib/active_directory/generic_server.svg;" vertex="1" parent="STuhEBGFBtfZAA0xbkG_-17">
          <mxGeometry x="10" y="10" width="28.000000000000004" height="50" as="geometry" />
        </mxCell>
        <mxCell id="STuhEBGFBtfZAA0xbkG_-10" value="" style="image;aspect=fixed;perimeter=ellipsePerimeter;html=1;align=center;shadow=0;dashed=0;spacingTop=3;image=img/lib/active_directory/generic_server.svg;" vertex="1" parent="STuhEBGFBtfZAA0xbkG_-17">
          <mxGeometry x="20" y="20" width="28.000000000000004" height="50" as="geometry" />
        </mxCell>
        <mxCell id="STuhEBGFBtfZAA0xbkG_-18" value="Infras" style="group;labelPosition=center;verticalLabelPosition=bottom;align=center;verticalAlign=top;" vertex="1" connectable="0" parent="1">
          <mxGeometry x="381" y="250" width="38" height="60" as="geometry" />
        </mxCell>
        <mxCell id="STuhEBGFBtfZAA0xbkG_-11" value="" style="image;aspect=fixed;perimeter=ellipsePerimeter;html=1;align=center;shadow=0;dashed=0;spacingTop=3;image=img/lib/active_directory/generic_server.svg;" vertex="1" parent="STuhEBGFBtfZAA0xbkG_-18">
          <mxGeometry width="28.000000000000004" height="50" as="geometry" />
        </mxCell>
        <mxCell id="STuhEBGFBtfZAA0xbkG_-14" value="" style="image;aspect=fixed;perimeter=ellipsePerimeter;html=1;align=center;shadow=0;dashed=0;spacingTop=3;image=img/lib/active_directory/generic_server.svg;" vertex="1" parent="STuhEBGFBtfZAA0xbkG_-18">
          <mxGeometry x="10" y="10" width="28.000000000000004" height="50" as="geometry" />
        </mxCell>
        <mxCell id="STuhEBGFBtfZAA0xbkG_-19" value="Workers" style="group;labelPosition=center;verticalLabelPosition=bottom;align=center;verticalAlign=top;" vertex="1" connectable="0" parent="1">
          <mxGeometry x="450" y="250" width="38" height="60" as="geometry" />
        </mxCell>
        <mxCell id="STuhEBGFBtfZAA0xbkG_-12" value="" style="image;aspect=fixed;perimeter=ellipsePerimeter;html=1;align=center;shadow=0;dashed=0;spacingTop=3;image=img/lib/active_directory/generic_server.svg;" vertex="1" parent="STuhEBGFBtfZAA0xbkG_-19">
          <mxGeometry width="28.000000000000004" height="50" as="geometry" />
        </mxCell>
        <mxCell id="STuhEBGFBtfZAA0xbkG_-16" value="" style="image;aspect=fixed;perimeter=ellipsePerimeter;html=1;align=center;shadow=0;dashed=0;spacingTop=3;image=img/lib/active_directory/generic_server.svg;" vertex="1" parent="STuhEBGFBtfZAA0xbkG_-19">
          <mxGeometry x="10" y="10" width="28.000000000000004" height="50" as="geometry" />
        </mxCell>
        <mxCell id="STuhEBGFBtfZAA0xbkG_-20" value="" style="group" vertex="1" connectable="0" parent="1">
          <mxGeometry x="140" y="380" width="35" height="56.579999999999984" as="geometry" />
        </mxCell>
        <mxCell id="STuhEBGFBtfZAA0xbkG_-6" value="" style="image;aspect=fixed;perimeter=ellipsePerimeter;html=1;align=center;shadow=0;dashed=0;spacingTop=3;image=img/lib/active_directory/generic_server.svg;" vertex="1" parent="STuhEBGFBtfZAA0xbkG_-20">
          <mxGeometry width="28.000000000000004" height="50" as="geometry" />
        </mxCell>
        <mxCell id="STuhEBGFBtfZAA0xbkG_-5" value="" style="shape=image;verticalLabelPosition=bottom;labelBackgroundColor=default;verticalAlign=top;aspect=fixed;imageAspect=0;image=data:image/png,iVBORw0KGgoAAAANSUhEUgAAAyoAAAP/CAYAAAAvOjhbAAAABGdBTUEAALGPC/xhBQAAACBjSFJNAAB6JgAAgIQAAPoAAACA6AAAdTAAAOpgAAA6mAAAF3CculE8AAAABmJLR0QA/wD/AP+gvaeTAAAAB3RJTUUH4QoPDiQ5p2wu1AAAgABJREFUeNrs3XWYXOX58PHvuM+6S3zjDjEIGiy4U0opLS3QQr2F9ld7a5SWeil1R4q7hwQCgQhx9826787suJ33j7NBIyvjc3+uay8ksOfM85w559yP3DcIIYQQQgghhBBCCCGEEEKIY9NIEwiRVHZgDjAFGA0UAUYgAPQCQWAHsAXYA0SlyYQQIiVqgVnABKAMKAG0A/frILAf2AlsB5qluYQQQmTqw+4OYBUQBpRB/viA14DbganSjEIIkVAVwI3A/4COIdyrFdQBpl8ApyKDwELEjXyZRLaqHPgpApzv+/cxoBvoAVqArgR+t5YAXwXOidN37QDwX+DfwEHpYiGEGDEHcDXwsYEgQxeH37kD+B1wH+BN0HmbeW9WvnDgnw8LDjznugaeFSHpZiGESJ0S4Arg98BawMXgR8H6gPXAv4AvAIsAwwjP5zRgDUMbjRvKTwxYAVwF6KX7hRBiyKYCfxji82KoP10Dz5WR3qcnANcBvx649zcN4RzCwG7gYeA2ZHZeCCGSIg/4NLAMiMT54dIPPAN8EZg8hHOqAh5P4EPvSD+NwLeAYrkkhBDimAyosyevJ/k+vR11Zn2wilAHov4K1CfgfPYDP0bdKymEECKOaoFfAe4kBwN/AU5H3Uh5JJ9FnZ1RUvTjG3ioTZdLRAghPqAYdUBnKDMRifj5B2pClSMZC3wHWIeaRCVZ5/QS6jJlIdKS7FERmaIQ+H/ALYx8adZINAMPAfcDG1Bndv6GuvQsXaxAXdLwFOps02CZgTpg/MBPJer6bcfAn0cGAsQmYB+wDXWkUJHLUwgxRGXACajLmsai7iW0DvxZEHVmuxN1b95e1CyIQ91TOA11Zvw6wJImn3sv8PGBgKQUdebkWmBBit/J3ga+grpsWQghxBCC6VtQNwYqafazE3WjopKmP03A91BnoY6kBHUD6e9Q9/aEGN4a7EeBawCbXK5CiGPcyxcBvwF2DfOedgB1kOgLwIyjHCcfuAl4K43vzSHU5WfhNDuvGPAfZCmxEEIMSiXwYho/bDLlJzbwULwJmI+6vGA18V9e4ALuRt2rI4QQoNaJ+hRqJqx439sagD8CFwDnAg8Afrnnj/inFThPLl0hhDi6c1BH6+WhkXk/QeDvqMvIhBC5yQZ8ndTvC5Gf4Q9w/RrJLClSTPaoiEQ+pEpR9zcYUDcQegb+LIhahb0XdRP4h30RdcO8Tpoxo4VR98r8cKCvhRC58V5xHfBTZHY1G7yEurS370P/3gAUDPwcThBgGQhyAqj7Gd1AuzShkEBFpJIZdTnRyahrhicDYzh6ZpMPC6JOMzehTuNbgUukWbNKF/B91MxpEWkOIbLWQtQ9KPOkKbLKLtTN9lVANVDDe0lWjic88IzfhZqAZS3qUuQ2aVYhRKIYUTOVPI6sB5afodUSOFe+PkJknVHAg6jLheReJz+D+dkAfBN1L6oQQsSFHfj2wOiI3GjlZ7g/LyDVkYXIBk7gThmwkh9GlgHtQYZWXFnkEFn6JQbrUuBeoFyaQsRBDDWt8Z3A5g/9mQG1tsKYgeutGrXmgo0P1kLoA3pQay3sRV1WUD/wu4UQH1SEWldkClCBWpuqkPc2S0dQa5f0Ai2oy3GbUZfsuD70uwqB24AvDfy9ECMVAe5BLcwZkOYQEqiIwbKjZv74jDSFSJA3UTds1gHTB16kjMP8XR7U9c8vAc8D+6V5RY5yomZPPHvgp3YEv6se2AJsHQhyPkb6FFAU2WU7akHMzdIUQgIVcTzVwMvIlKzITArwBvA34GHUxA1CZLuFwGdR9xFKEVaRiYLAJ4GHpCmEEEczGtiHrJ+Vn+z4aQfuQM1SJ0S2BijL5LsuP1nyEwFulK+1EOJoQUqz3CjlJwt/9qEugxEiW1QBj8l3W36y8CcGfFq+4rlNln6JD3MCq1A3XQqRre5H3QzcJ00hMtjngLsG7ttCZKMwsBR1tlBIoCIyTBFqZqSagZ/ygX+XN/CjP8r/14uaxaXvfX89/PefR2pdiNxQD1yNWoBMiEySD/wduEyaQuSAPuAmQDtw7ecDBQPvOfkDfzUc5f91D7zbuFAzRDaiFpduAA4hWSIlUBFxUwqcCixAzYw0DTX7ihBi+MLAzcA/pSlEhqhDzWg3TppCiBHxATtQs9ltBF5DTXOvSNNIoCKOTwecgjpidgZqylYhRPwpwPeAH0tTiDS3AHgGKJamECIhuoCVA9+zp1BXoAgJVMT7zAeuBy5HLXInhEiOPwO3AlFpCpGGLgT+B1ilKYRIihDwysD37hEkxb0EKjlMB1wCfAU4SZpDiJR5GrgG8EtTiDTyGeCPHH3foRAisdqAe1AHtLqkOSRQySVXAXci642FSBfLgIskWBFp4lbg9/K8FiIt+IB7UZcKu6Q5Ek8rTZAys4HXUSuvSpCS44qqTcw6Ox+jRb6SaWAJ6tpkKQ4pUu1G4HcSpKSP0tFm5pxXgFYnXZKjrMDXgf3Al1BXxIgEkgZOPiNwN/AP1MKKIsE0WtI+h4ffHWXsbDsXf62K/FIDnt4I3t6IdF7qjAPmAo8ie1ZE6oKUvyIDiilnMGmZutjJ2Z+tYO7SAl6/vwN/f3rfFrQ6DYrkrkp0wHLuwM8KZNN94t7hpAmSajTqDMo8aYrkBipn3lBGfpmR1n1+WvcFaN3nT78HjQYu/GIlkxaptdva9gfYtKyPnW+4iITliZMiz6ImtghJU4gkugG1TooEKSlUWGlk9jkFTF3sxGTTEY0oPPyjRpp2+dLuGVdUZaJivJmK8RZKak2sfLCTxh0+6cTkcA0MLDwmTSGBSiY7H/gvapEikWRanYYLvljJxAWOd/9db1uItn0BWvf7ad7tp/1gACXFpZ/0Rg0f+3+jKB/33qojb2+Etc/0sHlZH+Gg1KZKgSdQ95LJFJdIho8NPCtkxUOKlNSaWHhZMXULHGje95b0wh9b2fZa6rclWBw6aiZbqZigBiZlY80YzWpMGwkrPPHzJuq3eKUjk+/3wFflWSGBSia6CriPo1dOFUkKVpbeWsHkk5xH/POAN0rDNh+Htnqp3+Klrz2ckvO0Fei5/s7R2As/mODH546y/rkeNrzUS8gvAUuSPYaaDUweQCKRLkFNgyrZvVKgfJyZhZcVM36u/SNvR2uf7uH1+ztScl56g4aqSVZGTbcyerqN0jHmDwRQh4UCMZ76ZbMEKan1KHAtajFhIYFKRrgGdXRMHjzpcMFr4Iwbyphz7vEntlwd4XeDloObvUkNDqonWbj6e7VH3LAZ8EZZ/3wv7zzbQyiQnHMyWbVodZq0X5edYP8BPgVIlCgS4WzU9NimXG+I/DJDUgeKyseZOfmqEsbMsh3xzxt3+HjoRw1JnXEvrjYxdo6NUdNtVE+yojce+3XN3x/lsbsaad0XkG9S6j2HumRY6q7EgUwtJ9b1Ay830s5p5OAmL0pMoXaa7Zj/ndmmo2ysmYkLnZxwfiHlY81otRpcnWGikcTuGXF3RVCiMGr6R89Rb9RSO9XKtNPyCHiidB5K/L0wGlG4+CtV6I1aOupz9kE4EygfeAgJEU9nolbCzulMc/ZCPefeXEHQH6OrMZiU4y35dBlLPlVOQYXxiP+Nzx3lkZ80EvIlPkopqTUx55wCltxYzqIrihk9w0Z+mfG4GcbcXWEe+lFDUp4FYlDqBp4XjyIDWyMmMyqJczrwErLcK33fOpfkc9aN5WpWsKG8tIcVDm72smdNP3vX9SdspkWjgY//eDQV44/97tJ+IMDyf3ckfIPn6Bk2rvx2DS17/Lzy9/ZcDljWAu7D8SxgGfh7LZD3vv/O+b5BCj3wN+B7gEe+fVnpCuCXgOP975C8lzUuwHu1eaLvu4YAFgK2XG04rU7D3PMKWHRFMX0dYf59x8GEZmo0mLSceGEh8y4qxGA69gPgmd+2sOstd8LOpXSUiYkLnUxc4DhqsHQs3U1BHrmzkf5uWZWahv4IfF6aQQKVdFQDbASKpCnS28QFDs6/rRKdYXhfhVAgxq633Gxe1kfb/vi/uFfVWbj2h6MG9U3dvbqf5f9ux9OTuAfWDXePoaTWhBKD9S/08OZDXbLBf2iagC+ibtAX2WEsasXq86Qphq5ivJlzbq6gpFZd8fb8H1rZvjJxG9YnLnRw+idKcRQdfwyxeY+fB753KO5Bk9GsZdIiJzPPyqd87PAn0Vr3+XnsrqZcX5Kb7m5CTTMuJFBJGAvqco8C1NHS9y/jCgA97/sJDfz5q8Cp0nSgM2hQYhCLpm963fEn2Ln4q1UjLuDVUR9g87I+drzpjussy8VfraJuvmNQ/23QG2XFfZ1sXdGXkBHJmUvyOfuz5e/+c29riOfvbaVljxRxH6IngM8B7dIUGUuLWvDtJ7w3qyYG+2zQa1h0eTHzLi58997r74/yx8/tI5qAdOy2fD1n3VjGhHmOQf8/D3z3EM1xvLeVjjYzc0k+U052jri4b+s+Pw//uDGtE6sYzdqk7aNMYz7gRGDHwDt34ft+PnwxeoA+oGvgR0ig8sH7JjADOGngrzNR656UDuF3eIB+oEKa872H0Vk3llE1yUpva4ie1hC9Az+dDcG0GQmauMDBhV+qGvIysCMJBWJsWdbHuud64jK7MWq6jau+UzOk/6d+i5eX/tKGuzO+G1ItDh2f//P4DwR1SgzWPdvNmw93JeQFI4t1AreiZnkSmWUc8E9gsTTF8F7Yl9763izKYVte7eOlv7TF/XhTT8njjE+WYrYPfrtoR32Af99RH5e3rLGz7cy/uIjqSfGJZzvqAzz0w0YC3tQ/P7U6DQUVRoqrjRSUG8mvMFJYYcSap2PZ39slA5mqD3W5Z+EQ3rv9QD2wHdgCvAO8OfCOKYFKDrGh1je5AjgLyJfvU2KusoWXFXPylcUfueK8fRE6G4J0NQTpagzScShIZ0MwJTMwH54tGKloRGHHShdrnu6ht3X49QJ1eg1f+MeE466l/kjA5I/x2n0dbF7WF9d2uvaHo6ia+NEHbldjkGd/10Jng2zoHKL7gVuQvSuZ4gbUpV42aYohPgo0MP+SIk66sviIM9hP/rKZvWvj9x5mK9Bz7k3ljJ1jH/L/u+bJblY+2DmiF/iJCx3Mv7joIwHZSLg7w/z32/X4XMkPUqx5OsrGmCmpNVNSa6K4xkhRtQmd/oN96eoI8/jPmuhqkmdBnEWAdagz8o8CByVQyV5TgdtQc1075dpPUqOfkse5t5Qfd4lVJKzQeShA2/4AbQfUv3Y3BVGSELssvbWCqafkxfV3KgrsWd3Pmw930tMyvIDlU78YQ3HN8B52e9b289Kf2uI2+nbadaWceGHhkfsupPDqP9vZsrxPLvih2QlciTp6JtKTZSBA+bQ0xfBecs+/rZLRM44e3917yz68vfHZYzdmpo2lt1ZizRte0s0X7m1l2+tD3yuj0cK0U/JYeHkxeaXxzaUTiyrc951DtB9IfCITk01HxTgz5WPNlA381Vl8/M/TUR/g0Tub8Lpkc3+CKcBy4E/A42RxdrFcq+0xGfghcBnq+mKRRNtXugh4o1z0lSr0x9i8rjdoqBhvoWL8e6P2QV+M5t0+mnf5adrlp22/n0gClhkt/3cHY2fbsTjil1Fao1E3cE6YZ2fLchdvPdqFt29oN/GRLKmqm+egfIyZZ37XEpe9JK6Ooy8n0xs1nHNzOTVTrLzyt7aErE8223WUjzVn25KCycAa1JmV++RukXYmoC7Rm5mNH06n1zBurp09axKzqqRmipULvliJveDorxyRkDLk++KRaHUaFl9TzLwLi0Y0FDucFPTj5tg55dqSYQ8qHc/653sTFqQ4ivRUT7ZSNdFC9SQrxTWmIxaVPJamXT4e/1kTQZ8kWEkCDWpa8zNRB7p+CDxEQvPlpej+lCMdagXuBP4FTEeWvKVMb2uI5l1+Ji50fGS6+JgRtUFdBztquo3pp+cx78IiRs+04Sw2EIsoePuicZlxiYQUjGYtNVOs8b+raDWUjzMz6+x89AYNbfsDg3sYauDkq0uGvPTr/Uw2HdNOzSMaZsSbQ4urTUw48dgbUktGmaib56Bhuw+/O75LFHR6DTf8fAw+VzQpI4tJZBwYRKkAlqFO84vUuxy1ds6obPxwFoeOy79ZjcWpZ987cV59qIEFlxSx9POVmKzHvn8FfTHWPt0zosM5Swxc/s1qJi1yjvgp334gQNOuwd0rK8abufCLlcy/pAhrXmLGf6Nhhad+3Uw4GJ/3UFuenvEn2jlhaSFn3FDGyVeVUDffQcU4C7Y8/ZCDlIObvTzx82bZPJ8aJahbGE5HTZ/fmU0fLhcClVnAy8BFSOHFtODuDNN+MMDEhU602uE9TbQ6Dc5iA7VTrUw/I58TlhZSOcGC1anD3x8l4B3+zTLkjzFzSX7ivnR6DTVTrEw9xYm7M0J387GXg5WNMXPC+YVxCZRGz7BRUmvi4EbvsItWVk2yMnb28dd8W5w6pizOo+NQgL62+G3qV2Jw0hXFjJtrx2jWcmhr1m3WPAFYOhCs9ModI2UMqHVRfkmWFmIsqDBy9XdrKRtjpnmnn4Ob4vdd0hs0LL21krlLCwf10qvRalj9RPewj1c71cpV36mlcBi1SI72jDne0i+zXccZnyzjrM+Uk1eS2JJpLXv8bHypb0TPnVHTbMw+u4DTPlHKaR8vpW6+g7IxZsy2kb0aNe/28/jPmiRVfeqNQl2a6hoIWCRQyQBXoFb7lSxcaaavLUxvW5i6+Y4hj9wc8UI2aCisNDJ2tp255xUycYEDZ7GBSEjB0xsZ0mSoApx4QWHC28Bk1TFpkZOK8WZa9/qPGlyd+vESSkfF7z2pqMrE+BPs1G/2Diugm3ZaHhXjBpe9Rm/QMPmkPIL+GK1745PmU1FgzrkFGExaqiZaKKk1sX+DN61TYA9DBXA98BbQIHeMpLMDTwLXkaUz8NWTrVz17Zp364nsW+8Z9AzC8djy9Vz57RrGzBr8JnatTsOOla5h3ZPmnFfA+bdVYjTHb0V3XrGBfe94jrwcTQPTTs3j0turqZlsjcsz7LiByl7/kJfmWZ06Ji5wsuCyYs65qZwZZ+RTWafOmMTrqu44FOSRn6R3muQcHGBZCkwCnicLZuazOVD5PGr6SKNct+mpqzGI3qChelL8l1lZ8/RUT7Iy/fR8Zp9TQEGFkWhYwd0VOe4SseJqIzPOzE9aOxRUGJl5ZgEaDbTuC6C8735fPcnK6deXxf1BaM3TM3VxHh31QfraBz/bodHAmTeUDynNp0YDY2bZcBTqObjJG5clelMW56kP24HAa/QMG3vX9hMJZVWwYgE+hrr+eKfcMZKmClgBLMrWDzhpkZNLvlb1gVoeO99w01E/8ixNpaPNXPO9Goqqh75Po689TOu+wS/n1Bs0nHNzBQsuKUKjjfNNUqNWjd++0v2Be1ZxtYmLv1rF3KWFI1qOO1QBb4xtrx1/c7+9QM+00/M47ROlnHlDORPmOSiuNg27qPGxhPwxHvphQ9wSIIi4mgbMQ80OltEdlK2BymeAPyJ7UdJe404/Y2fZsRcmLq+DwaSlbIyZqafkMfvs94IWV2f4iDMt8y4sonJCcuu3aXUaaqfZmLjASU9zCFdHGHuBnsu/VT3iafmjPuSNWqacnIe/P0rb/sG9HEyY52DWWcML4srGmikfY2bvun5iI9y2MmGeg/yy98Yg7IV6xs2xs/cdT7aN7OlRs4H1kkVT+Wn+cF+Bunk+K804M5/zPl/xkeyLm5b1jXiJZs0UdZbG6hze/bywwsTGl3oHNQNucei44ls1jD/BnrC2chQZMBi11G/xYjBpWXxNMUtvrSCvNPnjn/YCPTvfdB9xxslWoGf6aWpwcsYnyxg7246z2JDwmZ6X/tJG4w6f3DXS17iBYOV/ZHBWsGwMVM4GHkD2o2QERYHWvX5mnlWQlOnz9wctM8/Mx1agx9sXeTcnfflYM2ffVB7/0blBsjh0TD01j8JKIydeWEhBRWIfiBoNjJ1jx2Q5/l4PrU7DBV+owJY//KCyoMJIzRQre9f2jyiT2ZhZ9o/UJrA69dTNc7B/g2dEe5TSkAY4D7VuxzK5ayTMacBLQFm2fsATLyxkyQ1HnqF957neEWXdGn+CnUu/UT2iWQazXYerM3zcmZ2CCiNXf6+W0tGJ3zpUNdGCo0jP6deXMna2PWXPBo1WQ1GViV1v9aMoaobFuvlOTruulLM+rdaKSUZwctjBzV5ev69D7hqZEaxUAU9n8gMwm5SiVvAsy7UrUavTkF9uIK/EgD1fj6PYgNWpQ2/SYjRrMVq0aN/3/AgFYoT8MUKBGEFPDE9vBHdXWP3pjhBMcsXbS79RndCRsePpqA+w6+1+TlhaOOy8+5lu79p+nrun9agbIhdeVsTJV5fErb1Hkmv/jE+WMnfpkfcReXojPPLjxmwtNvYY6r6JACKeLkdNC23O1g948lXFLLy8+Kh//qfP76e/e3gzKoOtkTUYQW+Uf37jIP3dR743VE+ycsnXq+KaQj6T7F7dT9AbZeJC53EzqSXSg99voGlX8mZTtDoN9kI9ziI9zhIDziIDFqcOo0WLyarDZNV+IEiLhBUiIYWAJ0okFMPdHcHbG6G/O0JveygXl6t9CjXzrQQqKfYMcEEuBCXlY81UTbRQMcFCUZWRwkpjXB4S7wYy/hjurjB97WE6DwXoOBSkoz5AX0c4IVm6p5zs5PwvVMrrUoq17gvwxM8/GkBUTbRwzfdr43qN9bSE+N8PGoY1invqx0uYd1HRUf/c3x/lkTsbsy198WEvAZdIsBI3N6EWTcvOpcIaOOP6MuYuLTjmf3bvzfuG9V2cuSSfsz9THtfWa9zh4+EfN34kQcbkk5yc97mKhOy3EIPn7Ytw7y37EvIuYDRrKak1UTLaROkoM8U1JpzFBuwFejRxjMsC3ihdjSE6GwK07PbTtNuPuzOczd3mQS12nnHJWbLp234xapaWrGay6fjET0YlfEnQsQKYjkMBOuqDtOzx07jDp2bVGqGyMWauv2u0PAHSgKszzGN3NdE9MCNhL9Bz/U9HYyuI/z6irsYgD/2wAd8Qa62c8rES5l9SdOwHkSfKQz9qpKM+K9/nXwAuBYJyxY7IjcBfyOICwGd88vhBCsC9N+0b8gzntFPzOPdzFQlZbrThxV5e/Wf7u/+84LIiFl9VIjtP00DjDh//+8HI33cPD7pWT7ZQPs5C6SgT+eXGpC1f+7A3Hupk9ePd2dx1j6Luecwo2TJ3qkWtGlya7TeIaFjh4GYvE+c7PpCxJWkXjEGtX1Ix3kLdfAcnXlDIlMVOSkebMVl1hHyxYVWlzSs1MOOMfHkCpAGzTceUk5207g/g6Y1wxbdqKKpKTKVla56e0TNs7F49tIxddQuclI879iodvVHLxAUODm7yvrsHKYtMQK238igQlat2WG4A/pbNQcpp15VywiBTrW9Z3oe/f/CX0qRFTpbeWhnXUe73qxhvwd0ZpqspxDk3V6gp4yVISQs+V4Qty11D/v90Bg1VdWoNsYWXFXPWjWXMOruA0TNsFFebsDh0KQtStizv4/X7O7O966agpixuyaSTzpav/WWoa7dzRlGVkWu+Pyot91P0tYc5sNHDwU1eGnf4BlUEasFlRSyO0/4HER+xqELLHj/Vk60JP1bb/gAP/ahh0Bm7rv5eLbVTB3dePleU//2w4d0ZoizzFOoIWViu2CH5BOp67awNUhZ/rIQFx5l1fL8n7m4adGX68SfYufirVXFdCnokkbBC+8EAVXUWuWLTSDSscO/N+wgMYi9rQbmRMbNsjJllo2aKNakpnQdr2+suXvxja1xS52eAJwbemTNGtsyo/AyYmEs3Cn9/lPrNXiYudKbdF99s11Ex3sKUk52ccEEhNZOtWBx6/O7IEbMxWRw6lt5aEddiXSIOoxhaDc4EV1s+zF6op2y0mV1v9x/3YaHRwKnXlQ76ujeYtdTNV7OBDWXEOENMQk2p+zgZnH4yya4C/kMWZ4Y8+apiFl5WPKT/p6spSNPO4xd8rBhv4fI7apKyT0Sr0+AsMsgVm2a0Og1arYb6LR/NFKkzaBg93cbcpYWc+akyTrqymLGz7RRUGNHp029sfMebbl7InSAFYDxwL+DPlBPOhht1PmrNFH2u3Sx8rij1W3xMWuhAb0zPl3ytTkN+mTqicrhivKPIQDgQw9sbwWDScsnXqympMSFyW0G5EVuenv0bjj2qWz3ZypxzCob0u41mLRNOtLNnjWdYSxPT3OSBgOUxErK9NatcCTyYzc+LEy8sZPE1Q5+dNlt1bH6179gP2zIDV3+3FpNNBpVyXVWdhb62EJ0NQcw2HXXzHSy8vJhzPlvO9DPyqRhvwWJP71fM3W/389w9LR8ospwDdMA+YEOmnHA2LP26EXWdcc4qG2vm6u/UYLJlVtzp7Y0Q8MUoqjIixGErH+xkzZNH39A4klTWPc0hHvj+oWycWQE1c9Xn5Ao6qsXAy2RxCuJpp+Vx3i0Vw36y/+8HDUct4Ge26/j4D0dRKPdrMUBRoGWvn4px5oQvA4y3PWv7eeY3LR/JLJcjlgNnZlJklem+iZpyLWd5eyM0bPczaZEzo9I2Gi1arE6pyyk+aNQ0G50NQXqaQx/5s3Fz7Jx0VfGwf7fFqaN2mo1db7mJRrLuAXUC4AJWy1X0EZOAVwBHtn7A8SfYOf+2yhEVJCwfZ2brCtdHRpi1Og2X3V5N+XizXEniXRoNOIsMKSuCOVz713tyOUgBqAF+AWREMZlseEv8CVBEjvP0RGja4WPiQqfkmBcZ/vSDsbPt7FnTT8Dz3sxHYaWRy++oHvEyR3uBnorxA/thsm/K/2xgG7BTLqR3lQCvolZnzkrVk61c+o3qEd/7rXl6nMUG9n5oU/3ij5Uw9ZQ8uZJExju4ycuTv2rOxoGqodCilvPIiOxfmR6oWIC7yeLMLUPR3x2hebefSQsdablpTYhB35gMGmqnWtn+uptYVKGk1sRV36nFmhefrQX5pUYKK03sWdOfhWEeFwErgEa5krAALwIzsjYKG/huxCsZSekoM3nFBg5s9KIo6kzNkk+VS2pgkfHqt3h58u4momHZygesATZKoJJ4s4Gb5Xp7j7srTMteP5MWOjNuzagQ72fN0+MsMWC2abnoq1VYHPG9XRVXmzCatUfMXJPhDAPByuNAby7Hu6h1Zs7M1g9oL9Rzzffin6a+dLSZ0dNt9HdHuOCLVeiN8iwRma1hu48n7m4eUr2ubI/bUAdx0l6m333OB56V6+2jRs+wcent1ehlGZgQx/Tqv9rZ8EJ83ucLq4xH3FuTIruB+aj7VnLRr4Evp9MJme06dHoN3r6RLw03WrR87AejKB0lGROFOJamXT4evbNpUDXdcsiDwLWZcKKZvmRKqkAdLVTe4uWJnzcRkSlOIY7pjE+WUTcvPnusL/xiJbPPLkiXjzYR+C+5uWjnmnQLUowWLVd8q4YxM20jf3DrNFz81SoJUoQ4jpY9fh67S4KUI8iYzBhaaejsZHHo8HuiNO/ySWMIcQwaDZz/hUoqJ4xs3MNo1lJcY+LMT5cx7bS02Xh8IXB7jnXpROAvaRWkmNUgpWK8mcqRVlnXwDk3lTN6hk2+vEIcx/Y3XNjy9bK65KOsmXKimV70KinDSQaT9qi5441m7VH3gmi16ijasX7vsbK0mN9fF0UDJqt24Pdq3v29ZrsOg1GD3qjFZNVitGhxFBlkTbEQQ7kRGjVcens1D3z3EL1tw1u6Vf6+WgLn3lxBNKywc5U7HT7eT4B1qLnzs50TeIo0SkOsN2q47I5qqiaqAcpIA5WTrihOp0BYiLR21o3l7/69zxXF544QCSkEfVFCgRiRoEIooM62BH1RtUK9wkcKA4dDsWNuwg94o0cttxuNKISDR/9/Q/4osQ9N+IQDMXpaErqMOGMG+jM9UOlLxkEioRinf6KUmilW+dYLkaWsTh1X/F8N93+3Hp9r6AUhqya9d3/QaOH82ypRFNj1VsqDFR3qeuS5QFMWd6EG+DvqjEpa0Ok1XPyVqg88O4prTJis2o+8CA3G5JOdLLq8WL6sQgznHp+ni3viiUR55rctiQ5UMibRSqYv/WpNxkEUBV74Yyshv6xxFCKb5ZcZuPyOGgymod8aqz40Uq4GKxWMm2tPh49WipoBK5s3NXwDuCJtHq46DRd9pYqxcz7Y/xoNVIwf+qxK7VQr532uQtIEC5HldrzhTsYAV2umtEemByptyTqQqyPM8n+3yzdIiCxXPs7M0lsr0AzhhVCn1xxxSc/hl9VR09NiP8F84KdZ2m2LUJe4pU2QcsEXKxl/wpGD1JqpQ5udLx1lUgs6Sn0sIbKauyvMsn8m5V2zLVPaJBtmVJKW1mrrChe7V/fLN0mILFc338GS961tPp6aKdZ395B9mN6g4ZKvV1E6Oi2WBH+J7Ksr4kDNbpY2S5nP+GQpExccfZvM+CHMstkL9Vx2R/Ux9zsKITKfosAL97YS9EaTcbhmCVSSw49aKyBpXvlbG97eiHyjhMhys87K58QLCgf13x5t5Pwwo1nL5d+sxlGU8ndpLfBvoDCLuuq3wNh0OZkTzi9k9jnHTlFdXGOioMJ43N91OKWxo8ggX0ghstzap7tp2J60TK0bM6VdsmGI5q2kRkb9UZ6/tzWJ8zhCiFQ57bpSpp5y/AxLH96HcCT2Aj2XfqN6WPtf4qyKNEvfOwKXAJ9Kl5MZO9vOadeVDuq/Pd7eJZ1enYkrqZVaKUJku476AKse7krW4bzAFglUkuftZB+wfouXjS/3yjdLiGw3ULPiWBn/ysaYySsZ3Ih32RgzF3yxckj7XxLkcjKkKvExlAJ/TpeTKRtj5qKvVKIZ5FN1wolHD1Q0Glh6awWjpkmtFCGyXSSk8NzvW4lGkjYCvhbImKVB2RCorErFQV+/v3PY9RaEEJlDZ9Bw6derKK458sj2jDPyh/T7xp8w+FH3BPsDUJO5IST/GghWUs5RpOey24c2W1Y90Uph5ZGXf516XSmTFjnlyydEDnjjoU66moLJPOTqTGqfbAhUdgH7k33QcDDGS39ukyVgQuQAk03HFd+qxl74wT0mFoeOKYuH/kJ5wgWFzFySn+qPlQ/8g8xMePtZ4Lx0OBGjWctlt3/02hhMqDXn3I/uZZm7tGDQe6OEEJmtZa+f9c/3JPuwz2RSG+mypK+LgVOTfVB3Zxh7gZ7ysWb5tgmR7cGKVcfoGTZ2rnK/W6H4pCuLqR3m8pwxs2y07g3Q1x5O5ccaCxwANmdQV5QDTwCWVJ+IRgsXf7WKmsnDKwZcOsrM9jfc7xZ/nLjAwTk3V6TD0kAhRIJFwwqP39U0rALDI3AIteZUxsiWfIcPpOrAr93XQX+3ZAETIheU1Jq45GtqPYuysWZOOH/4I9+Ha6wcbflPEv2KNFlCNUi/AwrS4URO/Xgp4+YMv6CnzqDh3JvL0WigepKFpbdVSpAiRI54+4nuZC/5AriPDFsLlC0zKl2o2V/Kk33gaETB1RmW9cRC5Ii8UgOlo83Mu6gQk2Vkt1C9QUPNFCvbV7qJRVP27LACZcCTGdD85wF3psOJTJjn4MxPlo144Vx+mZGSUSbmX1wktVKEyBE9zSGeu6cFJZb0Q98KdEigkhoa4IJUXXCVEywUlBvl2ydEDiisNGI0x+el0panJ6/EwJ61KS0mOwM1McmBNG52O/A86t6alMovM3DFt2rQG+Mz/VFUZUJvlCBFiFzx3B9a6GlJekKmVcBdmdZW2XRn/CfQkqqDv/qv9nfXrQshxFBMPtnJ9NPzUnkKGuCvQDrnw/0hMCrVJ6E3qEv2TFYJLIQQQ7d3bT8HN3lTceifZmJ7ZdOMyuHdSOek4uABTxSTTUdVnUW+hUKIIRs9086BDV68fSnb85aPunZ5eRo2zyzg76TB4NpZnykf0b4UIUTuioQVnri7iaA36Wu+NgNfz8Q2y7YhoT+j7ldJibce7cLfH5VvohBiyPQGDRd9uTLV+xS+DoxPw+b5DWkwsDb1lDxmnJkvF6sQYljWP9eDqyMlmR5/SoYW1Mi2QMUH7EvVwUP+GGuf7pZvohBiWAoqjJx7S0UqT8FE+i0PuIIUpJ//sMJKI0s+XSYXqRBiWIK+GGuf6UnV4bdkartlW6ByA7AglSew4YVePD2SrlgIMTwTFziOWAgw1wKDAWbg7lSfhMGk5ZKvVUlWLiHEsK17toeAJ2Wrbv5IZhb3zapApRj4eapPIhJWWPOUzKoIIYbvtE+UUjE+pYVkf0N67GH8OjA61Sdx9k3lFFWb5MIUQgyLvz+aigr073cq8CkJVFLr9wPBSsptfrUPd1dYvplCiGHR6TWcf1slBlPKbtGzUGeoU6kKuCPVfTH5ZCdTTpY6WUKI4Vv7dDchfyzVp3E3as0sCVRS4CzgmnQ5mWhYYcOLvfLNFEIMW0GFkdOvT2nB+J+g1i7J1eNjL9TLvhQhxIiE/DE2L+tLh1MpJA2W0uZioKIDfpluJ7V5WV86RM9CiAw2c0l+KlPhlgFfTtGxpwLXpbLtNRo4/9ZKzDadXIhCiGHbsryPoC9t3gevA06UQCW5PgVMT8cIetvrLvmGCiFG5NzPVWDL06fq8F9HHYVLth+R4j0yc88vpHaaVS5AIcSwKQpsfCmtVthogF9IoJI8dtRqxWlpw4u9KFKsXggxAlanjjNTt/woD/hGsmME4JJUtnlhpZHF15TIxSeEGJH96z30tafdnuVTUn2PzaVA5ctARbqeXG9riIObPPJNFUKMyMQFDurmOVJ1+C8A5Uk83p2kMI2mRgPn3FyB3qCRC08IMSLrX+hJ11P7aabEAJkcqJiB29L9JGX5lxAiHpbcWIbZnpLVUDbg/5J0rMXA2als59nnFlA9ySIXnBBiRNxdYRq3+9L19CYBF0mgklifIAPSrO1/x5NOm6iEEBnKlq9PZRawm4FRSTjOT1PZxs4Sgyz5EkLExY433em+/P8rEqgkVkYUromEFfas7ZdvrBBixKadmseYWbZUHNqIurE+kc4ATkpl+55zUzlGs1SfF0KM3M433el+iouBcRKoJMY4YIFcrEKIXHP2Z8pTVQjyRhK7V+VbqWzXySc7GT3DJheYEGLEOuoDdDUG0/00NcDHJVBJjKWkcLPlUDVs89LfHZFvrhBixJwlBuZfnIqMwViALyXod88DlqSqTY0WLaddVyoXlxAiLnZkzgD1UglUEuPMTDpZRYF962X5lxAiTm/1FxdRWGVMxaE/DxQk4Pf+Xyrb85SPlWAv0MuFJYSIi72Zs+T/BCBfApUEPKcz7YTrN3vlmyuEiAudXsOST6Ukl4gTuDXOv3MaKcw+UzbWzKyzCuSiEkLERW9rKB1rpxz1cYJau0oClTg/KCsy7aQbtvmIhnOw+qMC0YhUvRQi3kZNtzFxYUpqq3wJiGfJ9m+SqqW8GjjrxnI0sn9eiLgLB3Mz4+nBzBuYniiBSnyNzcQLNxSI0bTbl3vfWA34+6Ps3+Bh/wYPsagELULEy+mfKE3Fxvpi4Po4/a4q4KpUtd+0U/KoGG+WC0mIOPH0RNjxppvm3X402twsmnpwU8YFKmmd+SsTF+U6MvXird/sZdS03MsqYy/QYy+w07ovwEt/bkNRYOopTrUtpPizEMO/GRYZmHt+Aasf7072ob8C/BkY6cjDrYAhFW1nMGk5+epiuYiEGKGAN8r+9R4ObvKSV2Zg3oVFmKy5OU0ZDSs07cy4QWl7Op+cLgOvg8nAdZl4AYf8MWadnbtroR2Feiac6MCap2fVI128+XAX7q4wRosOZ7EBIcTQVYy3sP11F6FAUpdZFAFvA/tH8DsswH3EdxnZoC26vIhxcx1yAQkxDJGQwt51HlY+0MmK/3Ziy9Ox+JpSxs+1ozfk7ghkw3YfW1e4Mu20dwBPpOvJZeLVdDqwPBkHsuXpufZHo/D3R/G5Inh6I3j7InhdEbx9UQKegR9vjKA3etQXBYtDR8V4C7POymfcXDtCtX+Dhzf/10nHoSDF1SYmneRk8klO8sskaBFiKLa95uKFP7Ym+7AvMLLUlp8F/pKK9nIUGbjx12NSVY9GiIwUDSsc2ORh5yo3+9d7UGIw48x8Fl5ahE2y5gHq7NK6p3s4sMlLV2PwiMvdNVow23SY7TrMNi1muw6LQ4c1T4+jQI81T4+9QI8tX8ehrT5e/Vd7ok/7r8BNEqjEz3RgS7IOduanyphz7uBmQWJR5d1gJeCJYbRoMdu0aHWyvuloFAV2v+3mzYe76G0NAeoI8eSBoMWap5NGEmIQ36P/3HGQjkNJLTCmAFOBncP8/zcDM1LRXktvrWDqKXly4QgxiHtL43YfO95wsWedh6A3ikYLUxfnsejKYvJKZGDxWEL+GEFfDI0W9EYNGo1m0MviYlGFf3zt4LvvRgn0U1KcIj7bApVSoD1ZB7Pl6/ns78bKyFsSboZ71vSz8oGOd9P6abRQO9XG1FOc1M13SB8IcQwHNnh47GdNyT7sH4DbhvH/nQG8mop2Kq42ccPdYyTTlxDH0NMSYtdbbravdL2XalcD4+bYWXxNCSW1JmmkBNu6vI8X/9yWjEN9Ffi1BCrx1QqUJ+tgp368hHkXFcm3JgmiYYVNr/Sx+skufK7ou//ebNMxcaGDqafmUVVnkYYS4gge/P4hmnb5k3lIF2rmrqGmuXmIFGX7uuTrVUw4UfamCPFhAU+UnavcbF/ppnXfB+8jY2bZWHx1CWVjJUteMkTCCv/4ygFcnUmpx7KEFA0cZXOg8hwjWxs9JEaLlht/NRZ7oazBTJZwMMaGF3tZ+1QPAW/0A3/mLDYw+SQnM87Ml/0sQrxP0y4/D37/ULIP+2ngn0P474uBJiDpQ7IV481c9+PRkm1QiAFKDBq2e9m+0s3u1W4ioQ/uqaiss7D4mhJqp1qlsZLorUe7WPVIV1IugYF7ck+6tkWmbgAYi7p0ICmiEQVPb4SJC2QULmkXpl5D9SQrM5fko9VoaD/43qa0oC9G824/G17spXG7D0WBgnIjOoO8fYjc5iw20LrPT19bUqsilwF/H8J/fxtwbira5/xbK8mTwQ0haNsfYM1T3Tx/byubl/XReShI7H1jgmVjzJz3uQpOubaEvFL5ziRTX3uYZ3/f8oH+SKA9wN3p3B6Z+mY3A3UjZlJd9d2anKyDkg68vRHeeqyLLctdR8yioTdqmDDPwbRT8xg13YZGYhaRqy8gBwL891v1yT7sbGDTIJ85u4EJyT7BmilWrvl+rVwgImd5eiNsf93F9jfcdDcdOfFGQbmRk68uZtJCp8w8pshjP2viwAZPsg73c+AOCVQSFwUm9WHnKNJzw91jMNskE1WquDrDrHq4i+1vuI5aas5eqGfq4jxmLsmXkSCRkx69s5GDm5NaHfke4AuD+O+WAK+kok1koEnkosNLuzYv62PvOs8RB/pALaNw4oWFnLC0UFYnpFASN9AfdhLwlgQqifETUpBObcpiJ+ffVinfphRr2x/g9Qc6aNh29AqwGg3UTlOzhk1c4ERvlJuvyA0te/zc/92k7lXpBSqA4+VHvh+4NtntUTHewnU/GSUXhsgZva0hdq5ys3WFC3fX0ZeCGkxa5pxbwIJLizBaJBVeKvW1h/n3HQcJ+ZNWvPcQ6laKWDq3Sya/uVUBB4GkD5lf+KVKJi1yyrcqDRzc5GXlAx3HrR9hceiYekoe00/Po7hG0iqK7Pe/HzTQuMOXzENeATx2jD+3o2ZsTHrV28tur5ZiuyLrhYMx9qzpZ8tyF027fEdddQDqPtCZS/JZeFmx1CtLA7GowoP/r4GWPUnN2ng7ab4/BTJ3Mz1AP+pelSnJPnD9Zi/jT7BjzZMsYKlWUG5k1pICimtMtB8MEPAeeWAgElJo2etn08t97B9Y+1lYIRvwRfayF+rZ8YY7mYc0Af87xp9fSwpSEpeOMnH69WWy3l5kre6mIO8828vzf2hl55vuY86goIGJCxxc/LUqpizOw2CWWZR0sPzfHexZ05/MQ/qA6wF/urdNpt+6F5KitXUF5UY+cecoTLJfJW1EwwobX+5l9RPd+PuPny7DaNYycZGTGafnUSm1WUQW+s8362k/GEjW4UKoM91Hy6n5KknM1njYBV+oZPLJMgMuskvAG2XHG+rSro76wX3HR8+wccq1JZSNkVoo6WT7ShfP/6E12YcdbrHepMv0t+wm1Gwzk5J+k/BEaT8YZPJJTjRaGapLB1qdhso6CzOXFKDRQfuB4FE3DoKadrrjYICtK1zsXduPAhRVmmSWRWQNvVHD3nVJyx6jAxqAdUf4syrgN0BSh2/thXrOublc7tEia7Tu8/PmQ128+MdW9q/34O2LHPf/KRtjZumtFZx0ZTH2AlkJkk6a9/h5+tfNyUpFfJgXdamuJxPaKBumA7YAtyT7AQjqxqe+tjB18xyyrCCdXs4MGkZNszHjzHy0Wg1t+wMox9kq5nNFObDRy8aXenF3hnEU6bHlyw1dZLaiKhNbVrgIB5K2VzIf+McR/v3NwDnJ/vzzLymiZooUqhOZLRJW2LvOw8t/bmPVI1101AcH9WLrLDZw6sdLOfuz5RSUG6Uh00xva4hHftJI0Jf0vew/B57JlHbKltfrvwKfSdXB511UxKkfL5FvXZrqaQnxxv862bO2/5ibCz+sqs7CrLMLmLjAIbMsImMlscIxqNljqlE3zb/fKmBRUgcsjBpuuXc8FocszxWZqbs5xKaXe9m+0jWkl1lrno6FlxUzc0k+Or08u9JRf3eEB75/CHdnONmH7kAt7eHOlLbKliu4CNiOWiFZghVxRK37Arz23w41G8oQmGw6Ji10MPe8AoqqJWOYyCw+d5Q/f34fkbCSrEN+Hvjj+/65HGgmybPeM5fkc/Zny+UCEBklGlHY946Hzcv6OLTNO6TBNZ1ew6yz8znpyhJMVtkkn668rggP/aCB7uZQKg5/LfBgJrVXtgw1+QcehJen6gSad6uJE2qnyjKDdOUo1DP9tLzjZgj7yIMjrNB+IMCmV/po2evHaNFRUG5EIwNVIgMYTFp6W8N0Hgom65BG4L/v++dPABck+3Of97kKbJKZUWQId1eYtc/08PwfWtn2mgtXx+BH2jUamHpKHpd+o4pJC53oZQVA2vL0Rvjf/2ugpyUlQcoLwLcyrc2y7Wp+Erg4lScw57wCzvhkmbzEprloRGHji728/Xg3Ae/Qd7E5igzMWpLPjDPzJQe9SHtNu3w8+P2GZB0ujDqL0jPwzy8DZyXz81aMN3PdT0ZLx4v0pkD9VnVv5P4NnuPupTyS2qlWTvtEqWTyygA9LSEevbMRV/KXe4G61Gsa0CiBSmpVARuBlK7BmjDPwQVfrJRRjQwQ8EZZ+1QP7zzfQ3QYS2N0eg3jT7BzwgWFVE6QFMciff3jqweSudTgetRZlXzUNdFJLcx7zk3lzDgzXzpdpKVIWGH3227WPt1DV+PwZjoLK42cfHUJExc4pEEzQNv+AI/d1YjPHU3VKdzIkROdpL1sGwruB7YBH0tlENbTHKJ5l58J8xwSrKQ5vVHLqOk2pp6SR8ATo7NhaA8NJQbdTSG2Lnexf4MHvVFDcbVJ0qGKtBMOxji0NamV6h9CTYF5RTIPajBpOe/zFZIAQ6Qdb2+Ed57r4ZnftrDzTfewXlotDh2Lrihm6a2VlNTKnslMcGirl8fuahr0cvME3Yu/nantl6138p8Bt6f6JEpHmbj8mzXYC2WddKZo3uPntf900LJ3+MVanSUGZp9dwIwz8zBLQVCRLi9Jrgh/+tz+Y9YWiiMfUAr8B7gsmZ9z+ul5nHtLhXS4SBtNO32sf6GXvev6h7W8C9QsdicsLWT+JUUYLbJRPlNsfc3Fy39pS9Z990j2AXPJoCxfuRKoGICVwIJUn4i9QM8lX6+mYrysH80YCux6283KBzuHtKHxIxehScvUU5zMOa+QoirJYS9S74m7m9j3TtJqfH0c+AtgS+Zn/NgPRlE9SZZhitSKhhV2rnKz/oXeQVeOP+JLmgYmn+xk8TUlOIsN0rCZ8hoRg9cf6GDdMz2pPI0wMA/YlMltmc1z42sGOijldAYN59xUztRT8uTbm0FiUYWtK1y8+VDniNeVVk+yMOe8QurmOdDIYJhIkV1vuXnmty3JOlwTak2VpHEUGbjlD+OkAK9IGa8rwrbXXGx4sRdPT2REv6uyzsJpnyilqk4C70wS8sd47p6WZA4KHTVeAqajlu/IWNm6LuVU0mg9nhKDve94iIUVaqfZJCNYpkTxWg3lY81MPz2faESh/UAQZZizt+6uCLtX97PzLTdanYbiGhNanVwIIrmcJQY2vNCbrGUIzmR/vhln5jNmpk06WiRdZ0OQ1+/r5KU/tVG/2UvIP/z9CIWVRs69pYLTrivFWSSzKJmktzXEwz9qeLdkRapfYwAT8HRGv4tl6bVyH+qyg7QzZpaNi75cJWtMM/QG9Mb/Otm9un/Ev8vq1DH7nAJmn1MglbNFUj396+a4XMPp6BN3jqZ8nCyzFcnTvNvPmqe62b/BM6TijEdisumYf3EhJywtlGQQGXotPPmLplRm9joSH2oxdE+mtms2viGZgb8ORJFpp68tzIENHsbOsWOyygtqJrE4dExc6KR6koX2g8ER3YzCQYXGHeoGy97WMEXVJglYRFJotBp2v519gUpeqYFTry2VZV8i4RQFDmz08Pw9rbz9WBe9rSNL+324YONlt1czZqZNZtsz0NbXXDz96+YRzaQliAF16ddWCVTSxznAp9L5BH2uKLtX91M71Yq9QDKCZZr8MiMzz8zHYtfTui9AJDz8YTQlBp2Hgmx6pZeupiB5pUa5JkSCX+iNrH++N5VZaBJi5pkFjJ4hy75E4oSDMTa/0sezv21h08t9I96DAmrBxku/Uc2ss/IxmGWlRSYGrW882Mnr93UMO6NbEkSARyVQSR+fBU5K95MM+WPseMNN+Tgz+WWSESrTaLQaKidYmHnmyPevqHc7tR7Lllf7aNjmxZqnp7DcKKPDIu60Og0te/0jHgVON6dcK1mRRGL4XFHWPdvDs79rYc/afoK+kb+ROooMLPl0GadfX4YtTwanMjJIicGLf25l40u96X6qxcAvM/Z9KwuvnZXA4kw5Wb1Rw6XfqJaRwAzX2RBkxb87OLTNG787S42JEy8sZPJJTnR6iVhE/Gx6pY9X/taWNZ/HZNVy298myJIZEVe9rSHWPdvD9tddI5o5fz+jWcv8S4s44fxCKQid4UHK079uZs/ajFlGOwpoyMS2zsYZlTsBe6acbCwK+9Z5GD3DJoUhM5gtT8/UU/MoHW2ibX8gLhVofe4o+9Z52PqaC60WSmpNErCIuLDm6Vj/fG/WfJ7xc+1MWuSUjhVx0X4wwKv/aGfZP9ppOxAgFoclPRoNTDstj0u/Xs3Y2XYJqjPcy39pY8ebGVVD8XnggAQqqWcZCFQy6g4QjSgc2Ohh2ql5GEyyRjWTFVWZmH12AVaHnpY9fqJxGIUL+WMc3Oxl87I+IiGF0lEm9Ea5TsTwmaw69qzuT7fsNMN24gVFlI2RbF9iZJr3+Fn293Zeu6+D7ub4LY0sH2fm4q9UMefcAsn4mQU2vtTL2493Z9ppvwlskEAl9QqBb2TiiYf8MVwdYSYulFHBTKfRaqiYYGHaaXkEvFE6DwXj8nsjITVT2OZlLiIhhZJakwS2YtjcXeF0yfU/wi8cnPWZcnkBFMN2aJuXF//YxqqHu+K6d8tRpOfsz5Rz5g1lOGT/VFbobQ3x5C+a4zLLlmSvA29LoJJ6xcCXM/Xku5tDjJlpwyEFnrKC0axl/AkOxs2x09kQpD8OGWIAImE1YNn0Sh9Bb5SSUSaMki1GDFEsorBzlTvjP0dBhZEFlxZJh4qhUWD/Rg8v/KGV1U904+4Mx+1X6w0a5l9SxIVfrqJsrFmSomSRV/7eFrfBxyR7A3UPtwQqKWYBvp6MAzmLDSy4tJhwMBaXFIU6g4YFlxQzcaFT1q5mGXuBnhmn5+MsMdCy1084GJ9NmdGIQvNuPxtf6sXnilJSa5LaPGLwN0uHjrXP9GT855hwop3xJzikQ8Xg4hMF9qzp57l7WnnnuZ64DSAdNm6OncvuqKFuvkP2FGahwkoTHYeC9HeP/Lox29TabGNm2pIxu/0C8FYmtnm2fYssqFU4k+Ky26sZN9eOtzdC/VYvDdt8HNrmHdIFbHHomLLYyeyzCyiokDTF2S7ojfLmw11seqUv7nUsdHoNU0/JY/4lReSXyaycOL5/fu0gXU3BjP4M595SwfTT86QzxTHFouoM4ponu+O6/+Sw/DIDZ9xQxrg5dmnsHAh2d73lZusKFw3bvIMuTaDVaagYb6Z2mo1R06xUTbSg1Wl46IcNNGxP+KvrTajF0CVQSQN9QFKeWqWjTFz/szFoPtSK3r4InQ1BOuqD9PeE8fdH8bujKAqYbVqMVh2ltSZKRpmorLPIqEsO6mwIsuzv7TTtiv/NSavTMGmRg0WXF0vwK47ppb+0seXVvoz+DDf+eiyFlXKdi6MHKNtfd7H6yW762sNx//0Gk5b5Fxdy4kVFkm44B/V3R2jZ66fjUIC+tjDhYIxISEFv0GB16rDl6ymoNFJSa6K42oTuQ9dI/RYvj/ykMRmnehHwjAQq6WENMC9ZBzv7s+XMXJIv31YxLPs3eHjlb+30d8f/AarRQN18B4uvKZGARRzRttddvHBva8aev9Wp49a/TJA9AOIjDi/xeuN/nQkrbjpurp0zbygjr1RmsMXwguj/fLOezoakzGrXAXszsZ2ysXDH9mQGKisf7GTCPAdWp+wNEMN40M2xU/trK+ue6WH1E91EI/FbDqYosHt1P3vXeZh8kpNFVxTLkjDxAeVjMzulr2xUFh+98amb5N94sDNhL4AF5UbOuKGUsbNlmZcYvnee601WkOIHDmZqO2Xj23URcHGyDhYJKXj7ItTNk82cYphfQr2GmilW6uY76G4J4eqI7+yKokDnoSCbl/Xhc0UpHW2WVK4CALNdx9qnelBimXn+E050MHqGTTpSgAJ71vXzzG9bWP+8mmAk3gwmLSdfXcz5t1VSVGWSNhfD1tsa4tnftcR9r+pRvAH8SwKV9OECvpTMA3Y2BCmuUdcfCjFcVqeeaafmUT7OTPMeP0FffN8elRi07guw8cVe+nsilI+VgCXXabQadr2duYUfZy7Jp3S0FHrMdYe2ennmN4kLUEBd5nX5HdWMm2NHq5VpPDF8sajC4z9rxtUZTtYh/41aR0UClXQJVIErgNJkHrRxh4+pi/PkxU+MWGGFkZln5qMo0Lo3MOiMIkMJWNoPBNj0Sh8hf4zS0WYpHJnDmnb66WrMzMxfCy8rxl6gl07MUfVbvDz7u1bWPNmNpzeSkGMUVZu46MtVLLi0CJNNlniLkXv9gU52r+5P5iG/DLRLoJJeSoDTk3nAcFCh7UCAKYudaGS0RYz0i6nXMGq6jYnzHXQ2hnB3xX/kJRZV67BseqWPSDBG2RgzeqMELLmmtyWUjNSYcafRwOnXl0rWxBzUuMPH8/e0sPqJ7rjUMTsSvVHDSVeWsPTWCgrKJRmJiF9wvezvSY0Z9gDfyej3oSy9FpqA20jyNkt3Z5hoGFkzLeLG6tQz/dQ8nCUGmnf7iYTiv541GlFo2uln86sutFoNZWPNUnQ0h3hd0WSP7sWFs9jAvIukIn0u6agP8MK9rbz5UBfurkjCjjNmlo3L76hh/AmyzEvE814b4dE7mwgFkrop8DdkaEX6bA9UeoH5wIRkH7h5j5+8EoOsmxbxo4Gy0WZmnJlPNKzQti+QkMNEQgr1W7xsf92FwaSlbLT5IzWCRPYJ+WJsXeHKuPMurjEx/fR86cAc4O4K8/r9nbz8tzZ62xK3rt9WoOesG8s47bpSzHZZ5iXi+HwNKzz+06aEFBs91u0d+ATglUAlPfUA16XiwAc2eKmqs5BfJtPFIn70Ri1jZtmpnWajbV8gYRugQ/4Y+zd42L3ajTVPL0kispyiwPrnezPuvKsmWpm4QLItZjN/f5S3H+vmud+30LovAAlKkKTRqIkZLru9morxFml4Efd77LO/baF+S9LjhQeB/2Z6+2VzoLIPWApUpeKi3LvOw7g5dmx5stFTxJez2MDMJflYHXqad/njWnvlwy8Ju1f3U7/ZS2GFEWeJ1GDJRgaTltVPdCfsJTBRxsy0MXqmLLPNRuFgjHee6+HpXzdzaJuPWAJXypSONnPpN6qYdVbBR6qGCxEPr9/XkYpZ6xjqbEqHBCrprRW4NhUHjkYUDm7yMmmRE6NZNiiL+NJoNVRMsDD5JCe9bWF62xI3ndzfE2Hbay6ad/spHW2W4DsLr6VNy/oIBzKrmMrEBQ4q62T0O5vEogpblrt48lfN7FvnIRpOXPR8uCbK0s9X4iiSQRiRGFte7WPlg52pOPT/gD9mQxtme6CyFzgTGJWKgwd9MQ5t8zFpkUOyKYmEMNt0TDnZSXGNiebd/oRu0nN1hNmy3IWnJ0KZ1GDJKjvecOPti2TUOU89JY+SWlmWmBUU2L2mn6d+1cz2110JD5onLnBw+bdqGDvLLvvwRMLsfrufF/7YmorZ6hBwFeoWCAlUMsBG4LNASt6qvH0RGrb6mLRQghWROMXVJmaemU84EKPtQOLWciuKWoNl8yt9hEMxKsZZZLlEVgQqLvq7My1QcUp18CzQtNPH079pZv3zvQQ8iS08mldq4IIvVLLg0mIZaBEJtWdtP8/+rgUlNRPVvwAezpa2zIVApQ2oAE5I1Ql4eiPUb/ExUYIVkcgvs0HD2Nl2xp9gp21/IKEj5LGomtJ4y6t96A1aysdZZGQyg+1c1Y+rI5xR5zz99HxJWJLB+rvDvPrPDpb/pyNhtVAOO7xZ/pKvV1NcI8GtSKyDm7w8/etmYpGUbPxrAa5GnVWRQCWDvIGaASwvVSfg7YvQtNPPpIVOGYEWCWXL1zP99DwMJi1Nu/wJHdGJhNS9WPvWeyiqMpInG+4z0p41/fS0ZNZzbeaSfJzFcr1lmnAwxponu3nmNy20Hwwk/HgltSYuvb1a3SwvxUFFooOUzV6e/EVTQvdXHccngc3Z1Ka5EqgEga2oGRBSdqfq747QvMtH3XwneglWRAJptBqqJ1mpm++k42Ag4ct6vH0Rtr3uoqsxSPlYi9QgyDD713voagxm1DnPOacAe4EkdsgUigJbV/Tx5C+a2b/Bk9BMXqDOMJ90ZQnn31YhAa1Izn10g4enftlMJHVByn3AndnWrrn0NnEAqAbmpPIk3F0RDm72UjfPgUGygYkEszp1TDs9H4tDR/PuxKUyPqy7OcTmZX2E/AqVE2T/SiYFKh2HMitQmX1ugWSgyxCNO3w8+ctmtryanOxy1ZMsXPHNGurmO9BIZXmRBDvecPPs71oS/ow9hibgEsAvgUpmexW4DChJ5Ul4+yLsXdvPuDkOGXkWCafRQMV4C9NOzcPVEaYnwZVxlRg075b9K5lk11v9GTejMv30fOyFEqikM3eXug9lxX86kpJV7nDK4XNursDqlGerSI6NL/Xy8l/aUrVxHtSaKZcBO7KxfXPtmxwGVgKfAlL6hAt4Y+xe3c/oGTYZFRRJYbRombRITWXcuMNHOJjYkZ/D+1d2r3aTX2akoFw2Pqer7Std9LZm1h6VqYudUoQ0XR+0Sd6HAjB2tp0rvlXNuDmSclgkz5qnulnxn5TXVPwh8M9sbeNcHHLoQK2vcgUp3K8CEA6owUrtVJuMDIqkKa42Mf30fDy9ETobEj+K7u+PsuNNN52HgpSPk/0r6WjrclfGZf2atNApwW+aeXcfyt3J2YcCYM3Tcc7NFZxybQkmq9xbRPKu9eX/amf1E92pPpUXgFtIRbUWCVQSajtgAE5J9YlEQgq7VrmpmGAmv1QeuiI5DCYtdfMcVE6w0LTLT9CX+DeKnpYQW17tQ4lBxQQLWp0Me6aLzcv6Mq6OyoT5DqmjkkbaDwR48pfNbHqlj3AwOWtgpp6Sx2W3V1Mx3iIdIJImFlV44Q+tbFnuSvWp7ACWkoX7UiRQUa0AJgLTUn0i0YjCrrf7Kao2yYNXJFVBuZEZZ+Tj74/SXp/4JRqxqLqxdtcqNwXlRgoqJDhPB+tf6MXnimbUOY+dbad0tFk6L8UC3igr/tvBy39rS1qwayvQc+GXKpl/cREGkySlEckTCSk8+atm9qzpT/WpdAFnAq3Z3ua5Pk/6PHAWUJXqE1Fiai0De4GesrHy8BVJvAkYNIyfa6eqzkLjDj8hf+JHQwPeGDvfdNN+MEDlBAtmmyzZSKWVD3amMu//sFSMtVA92Sqdl7KHFmx/w8UTdzfRuMOftIUnExc4uPybNRKkiqQL+mI89tMmDm31pvpUQsCFwMaceEfJ9eAYeA61iqczHW78+zd4MJq0VE2UqWyRXPllRqafno/PFaGjPjkZoHpbQ+r0uaJmJpPlYKl5+L71aFfmXa/lRsbPtUsHpkBHfYCnftXMhhd7E56U4zBbnp7zv1DBosuLZRZFJJ3XFeHhHzfSui8tVlndAjyRK20vw5jgAZqBK9PlhOq3eAn6ooyZaU/xdn+Ra/QGDeNPVPeuNO70JWV2JRZVaNjuY9db/RRUSHawZOttDbHplb6MO2+LQ8fUU/KkA5Mc1K58oIOX/tKOuyt5yRcmLnBw+bdqKBsjsygi+dydYR76YSPdTWmRwv054Ou51P4SqKiWAOem0wm17g3g6ggzbq5dClaJpCsoV2dXAt4o7QeSk1404FGzg7UfDFBVZ8Eky8GSom1fgJ2r3Bl33lq9hjnnFEgHJsPhZV4/b+bQNh9KkpZ5mW06zr6pnMXXlMgsikiJ7uYQD/2wIZ2yInqBP+dSH0hOXNXMdDyp7StdhIMxLvhCpVT4Fklnsmo5+7PljJ1t5+W/tiWlYBuoVdIbtvlYeFkRJ15YKMvBEqyvPZyR5+3uCBOLKnJ9JFhnQ5Blf2+naZcvqcetm+fgrM+UY82TAQuRGi17/Tx2VxMBT1olGpmCmrU2nCv9IHcA1f+RBhvqjxbNt+wNUDffgU4vD2SRfIWVRqadloe7K5K06uWxqMKhbT72rfNQOsaMo0gK+yXKxhd7k1JPJ+7XSEx9mbXly3hbIkTCCqse6eL5P7Ti6kzeO5HFoePcWyo4+eoSDGaZRRGpcWirl8d+2pSU5c9DpAceQM36JYFKDvkRkLa7Ml0dYZp2+Zm4QIIVkRoGk5aJCxyU1Jpo3O5L2gZanyvKthUu/J4o1ROtMrOYACsf7Ey3EcNBKxtjplyyJMZd4w4fj93VxL51nqQt8wIYN9fOFd+qobJOksmI1Dm4ycsTdzcRCaVtJsSngQMSqOTQOxhwJ5DWQzfurjBNO3xMXOiUlzWRMkXVJqadmk9PS4je1lDSjtu6L8D2113klRqk1lAcBTxRXn+gM2PP35qvZ/wJkvkrXg5vll/293b8/ckLXvVGDad/oowzPlmG0SKzKCK1QcqTv2gikt7p2pcDmyRQyR0lwO2ZcKL93RHqt3iZuMCB3ig3c5GiyN6sZfIiJ/YCPQ3bfcSiybmhhwIxdr/dT/vBADWTrfJCEweNO/zseMOdsecfiyjMPls21MfD/g0eHrurkfotyd2LUj7OzFXfqWXsbMlyKVLrwAYPT/6yORNqSq0C3pJAJXcUAV/JlJP19kbo74lQN98hPSdSRwPlY81MmOegZY8/aRvtQU2nu+11F9Y8PWWjzPJyMwLbXnPRtMufsefv90SZdXaBZIQaAU9PhOfuaWHVI11JXY+v1WlYeHkxS2+twOqUfUYitVwDKYjTeLnX+60E3pBAJXeUAl/IhBMtqDBy0pXFnHxViWS6EWnB6tQx/fQ8lCg070ledepISGHfOx6advmommjBYpdb2XAs/2cHPnc0cz+AAkVVJqmvMZymU2DTK708+YvmpCdTyC8zcNkd1UxdnCfp90VaMNt0TDjRTjio0NMSIhZL69NdBazIlb6ROwSMAuqTcaBZZ+WjN2nx9amzIkFvlFAgRsATIxSIYTBp0Gg0aLRq5hOLQ0dRlYmSWhO106wU18jafJG+mnb5eP6e5GYIAnV9+6LLiyWV8RD1tob425czfz/muLl2Lru9Wjp0CLqbgrz0lzaadyd/Nm3GGfmc/slSjJLRS6SpcDBGwzYfLfv8dDeGcHWG8fdHCQfU6CUSiqHVaTBYtBjNWsw2LVanHluBHnuBnr1r+xMd/H8H+IkEKrkjD+hLxoEcRQY+9oNa8kok1arITkFfjFf/2c72la6kH7t0tJnzPl9B6SgJ6Adj3TM9vHZfR8Z/Dr1Rw21/myDLvwYhFlVY81QPbz/elfR1+FanWrxxwomybFlk8X312R5e+2/C76tfAO7JlTaV9RJq0Zxvk4SsXyF/jP3rPUyc75SNwCIr6Q0aJsxzUFxt4tBWX1Izp3j7Imxb4QKNhqo6iywpOY7X7++gvzuS8Z8jFlXTFBdVS4B6LN1NQR7/WRM73nSjJHlZy5hZNq78vxrKx0naYZG9Nr7cy/J/J2Xw5wFgqwQquUMBPgkUJuNgAW+MAxs9TFzokKlvkbWKa0xMOTmP9oMB3ElcCqbEoGG7j4MbvVRNtGDNk026R9LTEsrotMQfFg4qTDnZKR17lO/Eume6efa3LbiTHJjqDBrO+GQZZ94gaYdFdtu6wsXLf2tL1j7Nu4EmCVRyy7nAhGQdzN8fpX6zl7r5Tqm8K7KWyapl6il5oFH3r5DElSae3ghbV7jQ6jRU1VnRyOTKB7z1aBet+wJZ83n62kJMPtkpSRU+pLc1xON3N7HtNVfSNwcXVBi58v9qGH+CQxaZi6y2faWLF//cmsxn3B2AP1faV+7qqqnA4mQe0OeKsn+Dh7oTHTLSJLKWRgO1U63UTLFSv9Wb1PSnSgwObfVxcLOX6klWLE653YG6BPX5P7QSjSjZda1pNYyZZZMOBlBg86t9PPnLZlwd4aQffuICB5fdUSP7MUXW27K8j5f+1IaSvNtpA/DTXGpjeXKrjMDHk31Qf3+Uvev6GX+CA7NNukJkr7wSA9NOzaOrKbkV7UGtE7F1eZ/MrgzY9Eov+97xZN3n6m4KMuecAnSG3O5gV2eYp37ZzIYXe5NWjPWwwxXmT/tEKXqDTKOI7LZ5WR+v/DWpQQrAs8DjEqjknk7ga6loj6A3xr71HglWRNYzmLRMOcmJ0aylYbsvqTf32MDsSsN2HzVTrJhzdIlQLKrwwr1tBDzRrPts0YiCPV9PxYQc3bCtwMZXennql830JHkwAKCk1sTV36ll7By73OxE1lv3bA+v/qs9qUuaB/we2CCBSu4JAgtJ4j6VDwcre9Z6GDPLjlWWp4hspoGqiRbGzLRzaJuXoDe5C+fdXWG2LndhsmqpGGfJubXzm17pY8cb7qz9fO0HAsxcUpBzo/nuzjBP/bqFjS/2pmRJ36yz8rn4a9XY8iV5hch+bz3axRsPpiQZSQS4GfBKoJKbjMDFqTp4yB9j5yo3NZOtOIpkXa/Ibo5CPdNOy6evPUR3U3JHf2NRhQMbvbTs8TN6ui1n9oiF/DGe+mUz4aCStZ8xHFRAA6Om585eld2r+3n8Z010NwWTfmyjRcvSWyuYf3GRFFsVWU+JwbJ/tLHumZ5UncKrwJ9yrd0lUHnPHuBzQMrWDURCCrve6qdklInCCqP0iMhqeoOGiQud2Av0HNrqTXpWor72MNtXuiisNFFYmf3ft1WPdlG/OfsH4tr3B5i6OA9Tli+lDfljvPjnVt58qCup9YoOqxhv5urv1lI9ySo3M5H1ImGFZ3/bwvaVKZ2R/iawQwKV3BUGioGTUnkSsajC7tX9OAoNlI0xS6+IrFc+1szY2XbqtyR/KVg4qLDrbTc+V4RR02xZOyrs7grz3D0txKLZfz3FYuB3R6mbn70V0Jv3+HnkJ4007UxNhtLZZxdw4ZersDjkFUJkv6A3ymN3NXEwtQM9DcDngViutb/cZT5oB3ALkNK1V4oC+9Z70AA1k62Sg15kPXuBnqmn5NHVGKK3Lfkbgdv2B9i7zkPVREv2rbNX4JnfttDTEsqZ66mzMUjFODMFWTYzrcTg7ce6ePGPqUmIYDBpOe9zFcy/pAitVh5MIvu5O8M8/ONG2vanvO7Ud4DVudgHEqh8UD/gAE5Oh5Np3OGjuynI2Dl2dHp5KIjspjeqWcH0Rg0N231Jz6bid0fZusIFClRPzp40xutf6GXjS705dz0d2uJl6ql5GLOkqK67K8wTP29m+0pXstOhAlBQbuTK79QweobUqhG5oWWvn4d/1JiSWkQfchD4FBDNxX6QQOUIz3XgkwMBS8p1N4U4tNXHuLn2rHngCnFUGqieZKV6spX6TV7CweTOciuKOkDQvMvPqCzYaN/dFOTp3zTnxJKvDwsHFXpbQ0w+yZnxn2X36n4ev6spJWmHAcbNtXPFt6pxSgFHkSN2v93Pk79oIuhLi5VWnwa252pfSKDyUQHUjfUfS5cT8vRE2PmWm9opVuwFkv5RZL+8UgOTFjlp2eOnvyeS9OO7OjJ/o300rPDoXU30d0dy9jrqaQnhKNRTNjYz9/uF/DFe/Vc7Kx/oTMmGeY0WTrqimLM+U47eKANlIgcosObpbl7+W1u6DPA8Cvwol7tEApUj2wNMAqal0wNr5yo3+WUGimtM0kMi65msWqYuzsPnjtJ+IPnrg9UsfG587szcaP/K39o5sNGT89dRwzYfo2faMm6Qp2WPn4d/0sihrb6UHN+ap+Oy22uYdlpe1iyDFOJ471nP/LYlnZbKtqOWzcjpG7kEKkf3EnApUJIuJxSNKOxZ00/IH2PUNCsa2cwospxWp2HcXDt5JQbqt3hTMsLVtj/AvnUeaqfZMqYg6+onu1OZ6z+txKIK+9d7qFvgwJwJKYsVWPNUN8//oTUlG+YBquosXP3dWkpGyaCYyA1djUEe+lEjzbv96XJKMeByYEuu940EKscIroHXgeuAtLpbt+z107jdz9hZuVOsTuS20tFmxs2xc3CzNyVrhn3uKFtX9GHL16d92vDdb/ez7O9tctG8TzgQo36zl8knO9N6CZO/P8rTv25h0yt9KdkwDzDjjHwu+kpVZgR1QsTBvnc8PPazJry9abVM9lvAf6R3JFA5ng5gDep+lbRqK3dXmJ1vuamss+CUSvYiB9jy9Uxe5KR5jz8l+y5iUdi/3oOnN8Lo6em5FKxpl48nf5mbm+cHEwS07g0w+WRnWqbWbRmojdJ2IDVpULU6DWfcUMbia0ok9bDICbGowmv3d7L8X+1EI0o6ndo/gNulhyRQGax61EI7F5NmFU1C/hjbV7rR6jRUTbTKOmKR9Yxmdd9Kf0+EjvpgSs6h/WCAAxs8jJpmS6uCd637/Dx+VzPhQEwulKNwd4bpagwx4URH+gSaCrzzfA/P/r6VgDc1EabZruPS26uYvMgpF4nICa6OMI/d1cSe1f3pdmpPA9eTg4UdJVAZmc0DwcpF6RasKIq6WbRpp4/RM2QpmMh+Wp2GCSc6sBfoObjZm5IlMl5XlG2vu8gvTY/kFo07fDz607RJpZnWelpCNO3yUzffgc6Q2tt5yB/juXtaeOe53pQt9SqoMHL1d2qpGG+Ri0PkhD1r1XTffe1pVwT3BeAK1K0HQgKVIduEWnTngnRsN1dnmB0rXRTXmLKuGrMQR1I+1kzlBAsHNnhTkrr1cHILV0eYMbPsKRuh37/BwxN3NxEOKnJRDJK7M8yhrV7q5jkwmFIzuNN+MMDDP2pI6ebdMbNsXPntWhxFkvZeZL9IWOG1+zpY8Z+OlDwzjuNh4GoJUiRQGaktwDrgEiDtooFwUGHnKjchX4yaKdaMS6cqxFDllxmpm+egfosXf39qls10HgpycLOXUdNtmO3JvaVuX+ni2d+1ptv66ozg6Y1wcJOXCfMdSS+mu+HFXp75bQt+d+o2E82/uIhzP1eB3ijPCZH92g8GePTOJvavT8tMv/cAnwEi0lMSqMTDPuAJ4AzSKHXx+7Xs9bN3TT8VEyxSIFJkPYtDx7RT8+hqDNKbosrd3t4I215zUVBupLg68UvBlBi8/VgXK/7dgSKrvYbN54qy6y03lRMsOJKQlCTkj/H8va2se6YnZf2mM2g495YKTrywUPY1iqwXiyqsfaaH537fircv7eKAIPB14PuAjDZJoBJXXcB/gXHA1HQ8QX9/lG2vuUCBqokWqbkisvtGZtAwaaGTgDdK677UZE2KRhR2J6HOkc8V5YlfNKnfbxGX4GHHG27Mdl1C92kcrtPQtNOXss9qzdNx5f/VMG6OXTpeZL2e5hCP/ayJ7Svd6Tig0wicDzwmPSWBSsKeb8CjQCtwbjq2paKom2wPbvRSPcmC1SmzKyJ7aTQwdrYdk0XLoa3elJ1Hyx4/zbv9jJtjj/v+h+bdfh7+cQOdh4LS4fG8V8bgwEYvvW0hxsyyodPHN8jcs6afx3/WlNIR3cJKI1d/bxQltVLEUWT591mBDS/08PRvmnF3peVqquXAOcBu6S0JVJJhPdCCmhEsLXl6I2xZ4UKJQWWdRXLki6xWWWehuMbE/vWelNUTcXWE2f12PzVTrNjyRz5AoMTgnWd7eO6eVsnslUBdDUH2rfNQPdmKLS8O/abAmw918mqK6zRUT7Jy1XdqsBfKYJXIbt1NQZ78RTNblrvStZ7Ua8ASwCO9JYFKMo0HrkzrEYaYOruyd52HsjHmpKzHFiJViqpNjJ5hY996T8qyYQV9Mba/7sJRaKB09PCr2Xc2qA/era+5UpbCNpf43FG2LHcR8ESpnmwd9uxKyB/jmd+oL0ypNHGBg0u+Vi2p60VWO7wX5ZnfteDqDKfzqW4DHpAek0Al2eahZgLLiIfw1hUuvL0RaqZYU15HQIhEcRQaqJvnTGlGsFgM9r3jwdsXYcws25D2rURCCquf6Ob5e1pxd4WlQ5NIUaB1b4Bdb7kpqjKRXza0JI+9raGUpx4GmLu0gHNuroj7UjYh0knLHj+P3dXEzlXuTEgu0gT8R3pNApVkW4S6KSpj9DSHqJhglporIquZ7TomL3LSvNtPf3fq1iq3HwjQsjvA2EHuWzm0zcvjdzWxZ22/ZPVKoYA3xo433bg7w1RPsg6q7/au7efRu5rw9KTuetPqNJz1mXIWXlYsmb1Edg8qxGDFvztoTGGSiqE+DoC/S89JoJJsC4DzMuFETTYdM5fks/TzlVKJWOQEg0nL5JPz6G0N0d2Uulpag9m30nEoyEt/buPNh7oIeKLSeWmioz7I5lfVfX5lY81HnKFQFFj1SBfL/tFONIXF5IxmLZd8vZpJi5zScSLraTQwaaGT4moT3r4o/d1pP/vcBvxVem4IfSxNEBdXA/9Llx41W3WYbFpMVh22fB0F5UYKq4xU1VkoqTWjkaXKIgcpCiz/VzsbXuxNeeB0zs3lTD7pvRfJ3tYQbz7cxe633bIPJc3Z8vQsuLSImUvy3106G/TFeO6elpQXk7M6dVzxrRrKxpqlo0ROCniiNO/2034wQF97mL62EAFvlKAvRtAXIxxM+RT1s8CF0lMSqCTbqaiZHBJu4gIHs84uwDSwMVJn0KA3atHpwWTVyYZJIY7jrUe7WPVIV8rP48QLC5l9TgGrH+9m2+suYlGJUDKJs9jAoiuKqRhv5qlfNdPTEkrp+TiKDFz17RoKq2Q5rxBHE4sq7wYtAEGvOnMdiym4uyK88re2RO9p/BvwWekJCVSSrY5k5cPWwKnXljLvokJpdSGGacOLvSz/V3vqZy80SD3ibHiKprgPCyuNXPntGpzFks1RiOHwuaI8cmcjHfUJLxj8I+B70uKDJ3tU4sMLfANISpL6Q1u9xGIKo6baJNQUYhgqxlvILzOyf71HllqJjFY2xszV36vFXiA1UoQYDndXmId+1EBXY1IK6f4D2CytLoFKskWApUBNsg7YtNNPT0uIcXPtaHUSrQgxVCWjTJSPMbN3XX+6FgYT4piqJ1u58v9qsNjlUS7EcHQ2BHn4Rw24OpK2Cf/rQK+0vAQqqTAJNU1x0nQ1BmnZ42f8CXb0RtmbIsRQFVQYqZlsZe/a/pRmahJiqMbNtXPZN6oxmuXeL8Rw7N/g4bGfNiWzzlYb8B1peQlUUsUKXJPsg7o6wuxZ3U/N5KOnPBVCHJ2zxMCYWTb2rutPWRV7IYZiymInF36xUgr2CjEMiqImVXnlb21EI0m9578IPCI9IIFKqhwCbgOSnhcy4I2x7XUXJouOiglSG0WIobLl6xk/18Hetf2EAlJhUaSv6afncd7nKtFqJUgRYqj8/VGe+mUzW1e4UnH4/wfskF6QQCVVIsAEYE5KRghicHCTl772EGNm2o5YkEwIcXQWh45xc+wSrIi0DlLOublCqs0LMQxt+wM88uNG2g4EUnF4N3DTwLuikEAlZVzADak8gc6GIHvW9lM7xYo1T5aCCSHBisiKIOWMfAlShBimzcv6ePrXzfg9Kcuc8l/gcekJCVRSrQG4BChP5Un4+6Nse82FVqehqs4qDzYhhhisjJ9rZ88aCVZEephxRj7n3FQu93IhhsjTG+HZ37fwzrM9KKm7nSvAZ1A30wsJVFKuE7gq1ScRi8KhrT4ObfVSNdGKxSldLcSQg5W1/YT8EqyIFAYpZ+ZztgQpQgw5NNj8ah9P3N1EV0Mw1WfzBPA76RQJVNLFLuBSoCwdTqa/O8LW5X0yuyKEBCsiE4OUz0qQIsRQuDrDPP2rFja82JvsrF5HCZm4FmiXnpFAJZ00AB9Pl5OJxdTZlfqtXionWGTvihBDDFZ2r+knLMvARBLNOiufsz8jQYoQg44IYrDxxV6e+mUzPa2hdDmt+4E/Su9IoJJu9gJTgKnpdFL93RG2vOrC0xOhss6CwSSFwoQYTLAyZqaN3W/3EwlJnRWReJNPdnLuLbJxXojBatrp48lfNLHtdRexaNrcp3uAiwCv9NDwyW0wccpR82UXpOPJme06TrqimNnnFKCReEWI42rdF+DhHzfIMjCRUOPm2Lnk61VodfJ4FuJ4PL0RVj7QyfY3XOoiq/RyI/AP6aWRkRmVBH5/UJeAXZ6OJxcJKRzc5GX/Bg/FNSacxQbpMSGOwVGop3K8hd1vu4lJrCISoKrOwqW3V6M3yOiREMcSiypsfKmPJ3/ZTNv+QDqe4rPAHdJTEqiku22oMysnpOsJevsibH3NRW9LiNLRZsx2uSSEOJq8UgPF1Sb2rPWgyCowEUdlY8xc9d1ajGYJUoQ4GkWBXavcPPWrZnaucqfDZvkjaQTOA3zSYyMnc8uJZwbeBOam+4lqdRqmn57HSVcWY8uXDfdCHM2ON9w8/4cWCVZEXBRUGPnYD2qxSaITIY7q0FYvr9/fSfvBQDqfZhA4BVgrPRYfMnyeeBHUKcArgPx0PlFFgfYDATa90kfIH6NivAWdQWJZIT6sZJQJs13HwU2yR1KMjKNIzzXfq8VRKMtvhTiStgMBnr+nlbce7cLbF0nr1yjg08AL0msSqGSafuBl1FzalnQ/2VhUoXm3n20rXOj0GkpHm2VjpxAf4iw2sO65HmkIMSLj5tqZfnq+NIQQH9LdHGLZP9pY/u8OXB3hTDjlbyKpiCVQyWCdwFuoVeuNmXDC4WCMg5u8bHvdhVYrAYsQ77d7dT/71nmkIcSIeHoizLuwSFIRCzHA1Rlm5QOdvPyXtnSoKj9YvwG+J70ngUqmawBWAlcCpkw56ZBfDVi2r3RjMGkpHWVCo5Wnqshtqx/vprs5JA0hRiQSUhgzy4ajSJZ+idzW3x1m1SNdvHBvK637Apm0B/BXwFelByVQyaZg5U3UtMWmTDrxoC/G/g0edr3Vj8Wuo7jGJKOAIifFogov/7UtXTPOiAxjK9AzappNGkLkJE9vhJUPdvLCva007/ajZFb6958D35BelEAlG4OVZ1Erljoz7eQDnih71vaze3U/1jw9xVUmyR8nckrjTj9bXu2ThhBxEQ4ozFySLw0hcoq/P8rbj3Xz7O9baNmTcQGKAnwL+H/Sk4kluRBTZxtwMmp2iMmZ+AG6m4I8/etmyseaOfnqEsbMkhFBkRsObJC9KSJ+2usDeHoj2AvkkSyyX9AbZd2zPax/oZeQPyOr5waBTwIPSW8mnsyopJYL+A8wHpiaqR/C0xthx5tu6jd7ySs1kF9qlJ4VWUtR4KU/t2XqA1akKXuBnqo6izSEyFrhYIx3nuvh6V+3UL/Fm6lLZxuBpcBL0qMSqOSKEPAo0Aucmcl90t8TYftKNw3bvOSXGckrkc2hIvvUb/Gy6eVeaQgRV56eCLPPKZCGEFknGlHYutzFk79sZt86D5Fwxu7tWwGcDeyRXpVAJRetAV4HzgPsmfxB3F0Rtr3uonm3n6JqkyxnEFnlzYe66GoMSkOIuPK5o4yba5f7pcgasajCloEAZecqN+FAxs5CK6ib5m8AZN2vBCo57RDwP2AuMDrTP4yrI8yW5X2YLFoqZUmDyAJBb5SX/txGTFZ9iUQ8kHUaxs6xS0OIrLhXPvDdQ2xZ7sr0ZbIdwDWohRwlzaMEKgK1iv2/gRbUpWAZu37KbNdx6rWlzDmvUNIYi6yw7TU3+96RATWRGH3tYU5YWiiFdUXG0xu1TDjRgc8dpbMhY2egXwDOBzZIj0qgIj5qPfAEMB+ozKQTtzh0nHhBIRd+sZKaqVYJUkR2UOClv7TidUWlLURCREIKBRVGSkeZpTFExjOatUyY52DUVCvevgh97eFMOXU38EXUIo790pMSqIij6wL+BUSBk9K5v7Q6DTVTrcy7sIjzPl/BmJl29Eat9KDIGgc2eXjnOdlELxKrtzXM7LMLpDaVyBrOEgNTFucxcb4DrVaDzxUl6Evb5WCvoO4VXi49lx7kVpg5pgH/AE5MxsHySg2UjzUT9MVQFHW96eHFmTq9BpNVi9Wpp6jKSHGtieqJFkw2iXtF9nrw+w007fJJQ4iEu/Qb1Yw/QfaqiOzV1RikdX+A7sYgro4wAd8HgxeDUYPOoEVv1KDRwP71HpTE7hBxo1aY/yuyFyWtSHqRzLENWAQ8CFyR6IO5OsNMWuhk8cdKZOmWyHkte/0SpIikWf1EtwQqIqsV15gorjEd97/r7w7z9K9bEh2kuFAHg5ukZ9KPDIFnlhigTUagAtC820/bgQCjplkxmmUZl8hdr/ytnd7WkDSESApPT4TaqVapRSVy2p41/Tz+s6Zk3HuXA3+SFpdARcRHD/C1ZB2stzXEttddOIsNgxr9ECLbtO0P8Nr9HdIQIqncXWGmnZonDSFyTsAT5cU/t/HmQ11EQklZhfUP4E1peQlURHx4gOuBpJUwjoQU9qzpp3mXn9IxZmx5smJQ5I5nftuCuyssDSGSytUZpnS0iaIqGSASuUFRYMcbLp64u4nWvYFkHvr7QKP0gAQqIn7mALOS/uDsCLN5WR997WEqJ1pkOZjIervecvPOcz3SECIl2vYHmLWkQOqqiKx3aJuXJ3/RzOZlfYSDSd3LHgC+hJpdVUigIuLEDlyWqoN3Hgqy5dU+tDoN5WPN8hAVWSkSVnjyF83pnEZTZLmAN4bJqqNqokUaQ2Sl7uYQL9zbypsPdeFLTY2q5ahlIESakjfMzJQPdJAGVeuteTpmn13AnPMKMEt6YpFFVj/ezRsPdUpDiJQyWrR85jdjseXLkluRPTrqA7zzXC873nShpHYs6HPIRvq0Jm+WmSkAnAKMTfWJhIMKjTt8bHq5D58rQnGNGZNVloSJzNbXHua5e1qIRiSdvkitaETB0xuhbr5DGkNkvObdfpb9o50V/+mg81Aw1RVLosDNqHt/hQQqIs4UUrj860gP09a9ATa+3Iu7M4KjSI+9QEYARQZ+sWLwxM+b6GuXDfQiPXQ1BtW6E9WysV5knnAwxs433bxwbyurn+xOp1TvLwF/lh5Kb7L0K3NZgBbUZWBpqbjaxJRTnMw8Mx+zXWJikRnWPNXNygdkyZdIsxu+Q8enfjFGloCJjNHdFGT7Sjdblvfh70/LvepXAw9LT0mgIhLnLuCOdD9Jg0nLpEUOZpyRT2WdbAoV6aurMch/vlVPNCxLvkT6mXCig0u+XiUNIdJWyB9j5yo1OGnbH0jnU20ExgEydS6BikigSuAAkDHrAQoqjExa5GTySU6KqozSgyJtRMIK93/nEB31AWkMkbbOvbmc6WfkS0OItBENKxzY5GHnKjf713uSVaRxpL4E/E56TwIVkXi/Br6ciSdeXG1i4kIHUxbnkV9mkJ4UKfXin1rZusIlDSHSmt6g4Zr/N4qK8WZpDJEyigIte/zsXu1mxxvudF3adTRNwETAJz0pgYpIvAJgL1CUyVdh1QQLE+Y7qJvnIK9UghaRXBte7OXVf7ZLQ4iM4CgycP1PR2PNk71/InliUYWG7T72rOln3zoPXlckUz/KdcD90qMSqIjkuYksylxxeKZl3Bw7ZWNl1FAkVvMePw/9oEFSEYuMUjXRwtXfq0Wnl8e4SJxIWOHQVi/713vYu64/VUUZ4+l14HRSnRhZSKCSg/34HHBetn2woiojE050MP5EBxXjzHLFirhyd4a579uHMnlkUOSwOecWcOanyqQhRFwFvVEObPSyd10/Bzd5CQVi2fLRvMAsYJ/0sgQqIvmqgHeA8mz9gFanjjGz7Exc6GD0dBs6g1y+Yvh87igP/r9D9DSHpDFExjr56hIWXlYkDSFGdj90RTm42cPu1f3Ub/Zm6wzzJ4H/SG9LoCJSZyGwggzKAjZcBpOW2mlWJi5wMP4EByarVnpfDFrIH+N/P2ig/aBk+BKZ74xPljF3aYE0hBiSvvYwBzZ42L3aTdNuf7YvhvoV8DXpdQlUROp9fGDEIGfe3DVaqKqzMHGBkwnzHDiKpCCaOLpISOHRnzbSuEMSvogsuQdq4IIvVjJpkVMaQxyVokDHwQD7N3jY9Zab7tyZTX4GuAyQNb4SqIg0cQPw91wKVt5/RddOtXLl/9Wg1cnlLT4UpIQVnvpVMwc2eKQxRFbR6TVc9JUqxp9gl8YQH3Fwk5fn723Jhs3wQ/UScAkg0+eZem+TJshKm4BDwPm52McLLimifJxFrgLxAeFgjCfvbubgJq80hsg6Sgx2r3bjLDZQOlqyJYoPyisxsGd1P57enJpUeBy4SoIUCVREetqMul/lIsCaKx96ymIni68pkd4XHxDwRnnkx0007ZTlXiKboxXYv96D1amnfJwEK+I9Gq2GmilWdr7pJhLOicy8vwNuBMLS+xKoiPTVADwFnAxUZPuHHTXNxkVfqUKrlSVf4j3evggP/6hRNs6LnHFgkwe9QUP1JKs0hniXxaGjqs7C7rf7iUWzNlhxA58Bfo7USpFARWSEbuAfQAw4hSzdlzRpkZOLv1IlKYvFB3QcCvLwjxvpbZUUxCK3HNrqw9sXYcwsGxoZvBEDnCUGaqdZ2f+Oh3Aw697j1wLnAK9JT0ugIjJLbOCLuxyYSxbVWjFZtZz16TIWX1Mim+fFB+xe3c8TP2/C745KY4ic1H4gQNNOP+Pm2jGYJIW7UDmKDExdnEdfe5ielqwYxHEB3wRuAbqkh7OLvNnlHj3wOeAHQMYm3rfm6Zh1VgFzzyvAbJd4W7yPAqse7eKtx7pk4l8IIK/UwKXfqKak1iSNIT6gaZePNU/2cHCzByXzCtDHgPuAO4A26U0JVER2cQCfH/iCZ0TAUlRlpGaKlXFz7YyeYZMZFPER/v4oL/yxlf3rJf2wEO9nNGtZcmMZU0/Jk8YQH+HpjbD7bTeHtvpo2uUj6EvrqEUBngO+B2yU3pNARWS3POA21FmWqnQ7ubIxZuZfXET1FAu2PCnkKI7u0DYvz9/TmmvpN4UYksknOzn7M+UYLbIUTBwlCohBR71aGHL1k91E0ydLWAB4GHWj/Hbpqdwga2ZEEHgD+A2wHigBxqRLEOvti+Dti5BXaqSwwii9JT4iFlV4+/FuXvpTGyF/TBpEiGPoagiyc5Wb8rEWnMUGaRDxEeFgjP3veHjnud50mVlpAX4FXAvcD3RKL+UOmVERRzIKtZLr9cCcdDmp6slW5i4tYPxcuyz7EoA66vfin9toPyCph4UYCq1Ow7yLC1l4WTF6yZYoAHdXmK0rXGx8qRd/f8qTkPQCzwKPAC8AMlUugYoQRzQduBJYOhC0pPyaseXpmXZaHtNPz6NAZllyUjgY461Hu3nnuZ5srgcgRMIVVBg556ZyaqZIzZVcFI0oHNjgYfOrfdRv9qKk9nbaNBCUPAm8ghRrFBKoiCEqA85DnW25OB1OKL/MwLi5diYucFJVZ5ErOgc07vDx8l/bsiWtphBp8SYwdXEep19fisUhK8KzXTgYo2G7j91v97NvvYegN6WzJ7uAfw0EKFukd4QEKiIe9Ki5ytMqfYytQE/NZCvVkyzUTLFSVG1CI1d41uhtC7Hy/k72rO2XxhAiASwOHSddWczMJfmyvDaLhPwxmnf7adrpo3Gnj9Z9gXSaib4SeFR6SUigIuLtKeCidD5Bk1VLySgzpaNMlI4yUTLKTH65AbNNRgwzScAb5e3Hu9n4Yi/RiCzzEiLRCquMnHZdKePm2KUxMogSA1dnmN7WEB31AToOBek4FKC3NZSuNVKiQCnQI70nJFAR8XYb8PtMPHGLQ0dBuZG8MgO2PD2OQj3W/IG/DvyzpO5MvUhIYfOyXt5+vDsdNnYKkXNGTbOx+GMlVIw3S2OkQRDidUXw9kbw9A38deCnvydCX1sIV0c40wZzVgMLpXeFBCoiEWqBg0BWvtEbTFosTh1mmw6LQ/0x27WY7TosNh0Wpw5rnh57gR7rwN/LMrP4CAdjbF7Wx9qne/D2SaIXIVJtzCwbi64opnKCRRojjvc5b18UryuC3x3F2xfB3x/F74kSeN+P3xMj4Inic0VSvdE9Eb4J/EyuBiGBikiUl4CzpRlAowFrnh5bvp6CCgMF5UZKak1UTrDgLJFaBYMRCsTY/Eofa5/pxueSGRQh0s3oGTYWXl5M9SQJWAYjGlZoOxigfX+A7pYgfW1hXJ1hvL0RQoGcr/kUQS2F0CJXipBARSTKNcCD0gzH5ijSM+FEB1MWO6kYLw/4D3N3htnwUi9blrtSnX1GCDEIFeMtnHB+AXXzHbLp/kPCwRi7VrnZvbqfhu0+2Vd3dM+Q5vtchQQqIvOZgL1AjTTF4IybY+eCL1bKHhigeY+f9c/1sHedR2qhCJGBHEV6Zp9TwMwz8zHbJUnJ/g0eXvpLG95eWbI6CGej1koR4pj00gRiBILAT4A/SVMMTm9bCIM5d4OUoDfKrrf72fRKHx31Uk1eiEzW3x1h5QOdrHqki/Fz7Uw9NY+xs+xocvQWpwEJUgbnTQlSxFC+V0KMhAG1YNNYaYrjO/dzFUw/LS+nPnMsqnBoq4+tK/rYt95DNCyzJ0Jkq7xSA9NPy2PqKXm5tz9PgX9+4yBdjUG5EI7tVGClNIOQQEUkyxLgZbmejq1ygoVrfzQqJ7KDKQq07PGze7WbXW/1S/YuIXJQcbWJKac4mXpKHvaC3FjA0bLXzwPfPZSNGbri5T/AJ6UZhAQqItn+AXxKmuHIzHYd1/14FAUVxqz9jLGoQuNOH/vXe9i9uh9PjwQnQgg1K2L1ZCt18x2Mm2MnrzS7Z1reeLCT1U92S8d/VBswFSnwKCRQESmQD6wB6qQpPkhn0HDl/9VQM8WadZ/N3x/lwEYP+zd4qN/sJeiLSYcLIY6puMbEuLl2xs21UzneknV7WhQFnvlNM7tX90tnvycKnI9a1kAICVRESkwE3gYKpClUBpOWi79WxZiZtqz4POFgjJY9fg5t9VG/1UvHwYAscRBCDJvRrKVigoVR062Mnm6jbIw5K95MYlGFl//SxtbXXNLJqi8Bv5NmEBKoiFQ7HXgWsOZ6QzhLDFzy1SrKxpoz9jP4+6O07PHTvMdP8y4/rfv8UhdACJEw9gI9NVOsVNZZqKqzUDLKlLG1WhQF3nxoYBlYbt82fwN8Ra5uIYGKSBeLB4IVZ642QN18B+fcXI7Zljm1BcLBGB2HgrQfCNB+IEDLXj89LSG5moUQKWMwaakYb6ZivIWysWbKxpjJLzVk1NvLwU1eXvhja64mFbkbuF2uZCGBikg384DHgapc+tD2Aj1nfqqMuvmOtD3HaFihpzVET0uI3pYQXc1BOuuDdLcEUWSLiRAizZlsOsrGmCiuNlFYZaSw0khhhQlHUfpmFgt4o7x+XydbVvTlyuxKFPjWQKAihAQqIi2VAA8CZ2b7BzXbdJx4YSFzzivAmAYFHWNRBW9fhN62ML0DQUl3c5De1hCujrDsKxFCZB2jRUtBhRq4FFWZKKw0UlBhxFmkx2xPj9nt9oMB3nyoiwMbPdncFd3AtahlC4SQQEWkNT1wK2oFe1u2fTijWcuc8wo48cLCpCzzCgdjBL0xAt4ont4Int4I/d0RvL0R3N3hd/+dty+S62uihRDivQeRUYOjyIAtX4+zSI+tQI+j0IC9UI+9UI8tT4/JqsVk1SZlT0zzbj9v/K+Txh2+bGvq54BbgCa56oQEKiKT1AG/Bc7Npg9VUmsir9SATq/BbNeh02swmLQYzVo0R4hbDEYtOoOGoC+KooAShVBAXW8VDsWIhhWUGAR9UQLeGEFvlKBPDUyCvhixqEQfQgiRSEazFpNNi8mqw2zTYrTqMFu1GAZmy01WHRoNaHS8O4OuN2jRGzUEfTGUI0xZh4MK0bBC0BclElKIhGKE/DFa9gUIeqPZ0Gz1wDeAR+UKEhKoiEx2BnAnMF+aQgghhMhoHcBdwL1AUJpDSKAissXpwNeB8+Q6FEIIITLKXuBXwL8BvzSHkEBFZKtq4OPAp5Gq9kKkyYNBQ4nWRLnWTLHWRL7GSL7WQJHWRJ7GgEmjw6bRY0GHSaPFojlytqWwEiPIe8ta/EoUrxLBN/BXtxKmNxaiMxakVwnRGQvQEQvgU6LSCUKkHzfwFPAf4FVkJ6SQQEXkmIXAJ4CrgCJpDiESy6TRMkprY5zewWitjWqdlUqthXKdGQOpy17XEwvRHPPRHPPTFPVxMOrhQNRLZywgnSZEcoUGgpL/DAQpMnsiJFAROU8LzAYuBC4A5si1KsTI6NEwQe9gsi6PKXon43QOqnQWtBn01epXwhyIetgb6Wd71MXOiJuumCyLFyLOuoAVqIWbnwb6pEmEBCpCHF0NcD5wNurelnxpEiGOzajRMlWXx1xDIdP0+dTpHBg12qz7nJ2xANsjLjZH+tgU6aUx6pPOF2JoIsAa4BXgeWA9IOV/hQQqQgyDDjgBOAtYAiwCDNIsQsBYnZ15hiLmGgqZqsvLysDkeLpiQTZGetkQ7mFtuBuXEpYLQ4iP2gO8BCxDnT3plyYREqgIET/5wA9Qi0nqpDlEbkbtGmbo81loLGaRoZhyrUUa5X1iKOyKuFkd7mZ1uIsDUY80ihCqzcBtwJvSFEICFSHie81+ArgbKJXmELlGi4aZ+nxON5ax2FiCQyMTioPVHPOzMtTB66EO9kVlAFnkPAW4D7VQY7s0h5BARYiRmQ38ATU7mBA5ZaLeyRJjOacaSinUGqVBRqgl5mdFqJ1loTbZ1yJyXR/w/waerxFpDiGBihBDUzBwE5VlXiKn2DV6TjWWcqGpivE6hzRIguyJ9rMs2MaroTbZ0yJymSwHExKoCDHE6/MTwC+AEmkOkSum6vO42FTNYmNJSuuZ5JowMd4IdfJssJktkT5pEJGLZDmYkEBFiEGYBfwFOFGaQuQCA1pPzY5yAACAAElEQVRON5ZxibmaOpk9SblDUS/PBpt5JdSGR5HVMCLn9AHfBv6EpCoWEqgI8S4z8E3gW4AsxBdZz6ExcImpmkvM1eTJxvi041eivBhq5fFAI60xKcotcs5bwGeAndIUQgIVketOAv4KTJamENmuWGviClMN55uqsGhk61W6i6GwKtTFo8EGtkdc0iAil4SBXwHfA0LSHEICFZFrbMB3UdfEyoJ8kdVKtGY+bh7FuaYK9HK5Z6TNkV7u89ezMdIrjSFyyVbU2ZW10hRCAhWRK5YCfwRqpSlENivUGrnWPJrzTZWyQT5L7Iy4uS9wkDXhbmkMkSsiwL2o+1ekgqqQQEVkrQLgLuAmaQqRzewaPdeaR3OxqRqTRgKUbA1Y/u7fzyaZYRG54wBwM7BMmkJIoCKyzaWoGb2KpSlEttKj4RxTBZ+yjCVfI3khcsG2iIu/+fezTVIbi9ygoK6I+AYgVVOFBCoi41lQZ1G+KE0hstlJhhJuso6jSmuVxsjBN7fXQu38zb+f9lhAGkTkgl3AdcB6aQohgYrIVPNQi0hNkKYQ2apKa+Hz1jrmG4qkMXJchBjPBFv4p/8APqnDInLhkoefAD8CotIcQgIVkSn0wNcGbl5SJEJkJZNGx8fNo7jSXCsb5cUH9MRC/MW/j1dDbSjSHCL7vY06u3JAmkJIoCLS3Wjgv8DJ0hTDZ9HoKNKayNcYKdQaKdQYydcaMaPFotFj0egwoMWm0WHU6DBqtNg1+ne/3B4lcsQXJK8Swa9E8Q381atE3vfvovQoQbpiQXpiIdxKWDriKGbo8/mqdRLVOlnmJY5uS6SP3/p2cyjqlcYQ2c4N3Dbw/BdCAhWRlq4H7gEc0hTHZtboqNJaqNJZqdRaqNZaqdRZKNGaKNQYMaVBMcAwMXpiIbpiQXoV9a+tUT9NMR9NUT/tMT+RHBsvtmv03GwZz7mmSrmRikGJEOOhQAP3B+oJKTFpEJHtHgFuAXqkKYQEKiJdOIC/A1dKU3yQDg01Oit1OicT9A7G6mxUaa0Ua01Z8AKm0B7z0/Ru8OJjb7SfPZF+YlkYwJxoKOIb1skUaiWblxi6xqiPn/t2sDPilsYQ2e7QwPvAOmkKIYGKSLU64HFgqnyxYJTOxiS9kwk6B3U6J2N1trSYHUmmjliA3/n2sDrclRWfx4CWT1rGcLW5Fo3cPsUIKCg8H2zlj/69BJTs3Xts0ego1poo0Bgp0Zop0Bop0BiwawxYNDqsGh0WjQ6LRo9Do8eq0aNFgwktxmPUHfIrUcLE8CoRgkqMEDE8sTBhFDxKmD4lTE8sRE8sSJ8SpjsWpE8J0RcLZ+XgSZoLAncAv5WmEBKoiFS5CPgPkJerDTBKZ2OmPp+Z+gJmGvKldsaACApf6V+f8aPHtTob37ZNZZzOLp0q4qYx6uOn3u3sifZn5PkfXrparbNSpbVSrbNQrrVQqDFSrDVhTrPBGQWFjliQlpif5qiP5oG/NsX8tEb9hJEleQn0X9SlYFJzRUigIpJGh5qS8PZcu54KtUYWGoqZrS9gpr6AAlkGdFTLQ+3c6d2esed/lrGcL1knpt1Ll8gOURTuD9TzX389ShqP9ldprZxoKGSszk6VzpI1S1ffH8S0xwLsi3rYG+l/d/lqnxKSizR+NgKXAwelKYQEKiLRioEHgSW58oFrdTYWGYo5yVDCJL1Dlv8M0r5oP7e4M2+JslNj4Gu2SZxkKJFOFAm3IdzDz3w76Y4F0+q89Gj4knViziaO6IwF2RvtZ2+kn+1RF9sjLoKKlAoZgW7g48BL0hRCAhWRKHOBx4BR2f5BJ+udnGwo4SRDiaSgHaadETdf6H8n4/r9+7bpWTViLNJfbyzEj73b2RzpTZtz+rRlLNeaR0vnDIgQY1fEzaZIH5vDveyIughKFrehUoCfA/8Hst5OSKAi4usW1E1xWbvWqURr5ixjOWcZy6mR4GTEXg218VPvjow531ONpdxunZxzyQ9EeoihcF8aLQV7NP9k2XN3DGFi7Iy4WR/uYVW4k3qplTMUzwCfAFzSFEICFTFSh/ej3JGNH86s0bHYUMLZpgpm6fNlWVcc/ca3m2eDzRlxQ7xhYPRYel+k2pvhTn7m3YE/hcuMLBodz+SfKp0xBC0xP2+FOnkr3MW2iEuyjB3fduACoF6aQkigIobLDjwAXJhtH2y0zsZlphpOM5ZhlRH0uIui8DHXKnpi6b0h1azR8U3bFE6W/SgijRyMeviOZwvtsUBKjq9Fw0sFp8nAzTC5lDBvh7t4I9TBunCPBC1H1w1cCrwhTSEkUBFDVYU6PTs7ey58DfMMhVxmqmGOoVC+CAm0JtzNtz2b0/oci7UmfmifQZ3OIR0m0k5PLMT3vFvYlaIU3/90LpAlsHHQr4RZGerk2WAzezM0HXWCBYEbgfulKcRhMnwsjmcWsBKYkA0fxqLRcY6pgjtsU7jMXEOlziJBSoL90reLjhSNBg9Gnc7BLx1zJFGCSOv71pnGcg5FvTTGkl+CYrTOxkS9UzpihEwaHXV6BxeYqlhoLMaEjpaYn6DsJT9Mjzqr4gPekuYQEqiI4zkNeBE1DXFGs2n0fMw8iu/Yp3GqsZR8qXmSFO+Ee3ggUJ+25zdDn89djlk4tQbpLJHeb3AaDacaS+lWQkkfjQ8oMc4xVUgnxFGR1sSJhiIuN9cyWmejUwnSlWZpqVNEA5wFFAIvg6yVk0BFiCO7BHgCdW9KxrJodFxhruV79unMMxRh0milZ5Po576daTubstBQzA/tM7DIviSRMW9wGhYYitFoYHOkL2nH7YgFOdNUhlMjAX28adEwWmdn6f9n777DLanKvO9/q3btvE/sczrnnBM5I6AoYo6jo6OjY06YQFRAxZx9RseAjjkndMYEAiI5dUPnnHM8acfaVc8fp3UQge4+Z4daVb/Pdc3l877j9Fm1VlXtddda676TYzktPoIiVXZW81pjgTOA6QxuO1d3KFAR+QdvAL6NwemHM1aMF6cm8cHcfM6KdylAaYL7Kof4UXFbINt2YWIUH8zNJ677QowLVmCR00HMsljewForBb/KOQklmqinbjvJ+YmRXJYcR9qOsbU6EPVtYQuB04BfAxXdIQpURADeDXwBMHIG52Dx/NRErs0t4Mx4l+pgNEnJ97im/xH6fDdwbTsv0c37s/OI6XSSmDyDc9pJWjYPNShY2VId4CmJUdom2QBpK8Yip4PnJsfTYSfZVO1raorqJpsOnM9ggWntjVOgIhF3JYOVYo2cwS2Nd/Kh3EIuSYxWgNJk3y5u5u7KwUAGKR/IzleQIqEw32lv2DYwH62qNJpj2cxxWnlWchwddpKN1T6K0QxYJgJPOxasFHRnKFCRaLoOuN7Eho+z07wjM5v/SE/TIfkA2FLt59MDawK3YWGJ08F1uQU4aLuXhMcip4MiVVa59S/svbU6wAWJkbTpPduUgOXy5DhSVoxN1X7K0dsSNpbBQ/a/YDArmChQkQj5NHC1aY3OWA6vTk/lqtxcpsZyGsUA8PC5ZmAF+wOWvWZmrIVPtCzWSpuE0tJ4J/u9Ipuq/XX9Oz6wuTrApckxWpNsgrhls9Bp59nJcfjAOrcvagUkxwDPAH6uYEWBikTH9cBVpjX69PgIPp5bzOnxEdj6yQyMnxV38MfynkC1aZyd4bOtS8lZjgZIQskCzkh0sbbay26vvjtj9ntFuuwkMx0VR21mwLI03slFyVEc9stsqw5E6fJHMbgN7KdoG1hk3m8SXe8CPmNSg7OWw+vS07ksOVY3b8Csr/bxtt4HcQO0JSFjxfhSy6lMjmU1QBJ6Bb/KW/seYGudJ65Zy+GbrWfQZSfV6QGwzD3CV/Ib2FLnFbWgXTZwMXBEd0C4aUUlut4OfM6kBv9tFWVxvENBSgAnSFf1L+eoXw5Mmywsrs3NZ77TrgGSSIhbNqfHu/hzeW9d09pW8Njvl7ggMVKdHgBj7DSXJcfSasdZ7fZSicb5lTEMZgP7CVDWXaBARcLlP4D/xJAVtRbL4YrsbF6Xnk5W23cC6dP5NQ0tQHciXpuextOTYzU4Eik5y2FarIVbyvvqenphW3WASbGsVisDwsZijtPGJYnR7PTy7PIisStqAnD6sWClqrtAgYqEw7OA75oy9jNjLXy6ZQmLnA6NXED9obSHHxS3BqpNZ8RH8LbMLK28SSSNjaXxG5C2+EH3ME9JjCSnivWBkbUcLk6MZlIsy3L3SBQKRk4FZgC/gmhlFlCgImF0BvAbIBX0hlrAC1IT+EBuPq36EQysbdUBrhtYgRug34duO8UnWhaTUoYvibAFTjvL3aPs94p1+xsVPFZVe7k0OVpJTQJmcizLUxNj2OMV2O6FPkHWfKAb+J1GXoGKmGsu8GegLegNzVgOV2Xn8sLURP34BVjed7my/2EOBSgVsQV8MDufKUpXLRFnYXFKvJM/lffWtebGIa+Ei8/SeKc6PWDSVowLE6MYG0uz3D0S9torpwEDwF0aeQUqYp7RwG3H/jPQZsZa+FTLEhboAHSg+fh8aGAlqxtQZO5kPCs5juenJmiARBjcBtRhJ7ircrCuf2eV28s8p42xsbQ6PYCmxnJclBjF6moPBwNW46rGngqsBVZp1BWoiDlSwO+BeUFv6NMSY/hwywLaLFU9DrpvFjYHrl7KKDvFh3ILiVuqPC/yN9NiLax0j7K3jlvAAB5yD3NRYhQZJTwJbND61ORoBnyXtdXesF6mBVwO3Azs0qgrUBEzHtr/Bi4LeiNfmZ7CmzIztNXLAHdUDvDl/PrAtetdmdlMVxE6kX96v86Lt/G78m6qdTxLVvCrPOwe5amJMTiW3uPBnPBZnB4fwXSnhQcqh8K6FcwBnslgQchejboCFQm2DwDvCHIDE5bNldm5PDc5XqNlgE3Vfj7Q/0igDs8DLHI6eF1mugZI5HG0WnHKvseKOmcBO+yXOeSVOCfRrU4PsAmxDBckRrLK7eGQH8oSJC3AhcD3gYpGXIGKBNNzgK8S4FopnXaCT+YWc1p8hEbLAIe9Mlf2L+OoH6z3vgVck1vACFXJFnlCM50Wfl/aXfd0tZuq/bTYceY4rer0IM/krThPS45hn1dkczgr2o8BpgM/12grUJHgmc7guZTAnmycHMvy2ZalTFKxMCMU/SpX9i9nWwDTXJ4RH8GLUxM1SCJPImHZONg84B6u+996qHKY+fF2xtg6XB/sCaDFOYluLAseCVjB3hqZB/QA92i0FahIcPzt8PyUoDZwxrEijvoCbgYPn+sHVrHcPRLI9l2VnUe37iWR4797nRZ+X95Nwa9vEW8fuKdyiPMTI2lRHaxAsxjcOjsxluFe91BdzzE1ySUMZj3drtE2k9LjhM9XgKVBbdwsp5VPtSymTT9e5txQ+Q3cWTkQyLbNdlq1xUTkBMWxeU6DzgP2+RWu7V9B3nfV8Qa4MDGKT+ZC+dvsMHiwfoxGWYGKNN9rgFcHtXELnXY+nVuiL2wG+WlxO78u7Qxs+y5PjNMgiZyEZyfHkbIas5liS7WfDw2sDFzyDXl88512/l/rqYwN35a90cD3NOc1k7Z+hcd04NdAIIuQnBYfwfW5RaQt3XKm+Et5P1/Irwts+xKWzXuzc1U3ReQkJK0Ye70iG6p9Dfl7e7wCB70SZysTmBFarDgXJEZxv3socIlThmkqUATu0CgrUJHGc4D/JaDnUs6Kd3FdbgEJTSiNscI9ynUDKwK9X/nUeCeXJrWaL3KyspbT0IKtG6v92JbFQqddnW+AtBXj/MRIHqwc5ki40hdfCPwJFYM0imaO4fAR4PQgNmyh084Hs/OJ61YzxpZqP9f0P0LZD3YxsDPiXRoskSFY4LQ1PAHFdwqb+VMDgyMZnnYrwWdblobtDKDDYG2VnEbYHFpRMd+5wDeCGHROjeX4eMtiMtruZYzdXoF39y+jx4Al/1elpypznMgQWFgc8EqsqTa2cPe9lUPMddoYE1PaYhMkLJunJEaxxu1lr1cMy2V1AiOA/9EIK1CR+ssBNx178AJlrJ3mMy1Labd1cN4Uh7wS7+pbxgGvFPi2Oli8KTODWHDrmYoEmgfcUt7X8L95d+Ugp8dH0GEnNAgGiFs25ydGssLtYX94gpVTgQeADRrh4NN+HLN9ApgctEaNsJN8qmUxnfohMsaA73J1/8Ps9QpGtLfbTmk7ocgwLHDamhLo9/su7+1bzs5qXoNgiJQV46O5hUyPtYTpsr4OtGt0FahI/ZwFvDFojWqxHD6ZW8xoVSQ2RsmvcnX/w2yq9hvT5hbL0cCJDEPGcpjhNGfiedQv877+hznslTUQBt0vn2xZzIRYJiyXNBb4uEZWgYrURxL4ZtDGz8bi/dn5TI5lNUKGcPG4bmAlq9weo9qd0rknkWGbGmvemeI9XoH39i+jL1wpcEOtzYrzsdyiMO2WeD2DletFgYrU2IeAOUFr1H+kp3FqvFOjYwgPn08OrOH+yiHj2l7B0wCKDNN4u7lfx7dWB7i6/2GKflWDYYgxdppPhadwswV8BdAWEAUqUkNzgXcGrVGXJEbzotREjY4h/GNByq0NPkxbK0VfgYrIsAOVAGzjWeP28hFVrzfK5FiWj4SnNtoM4CqNqgIVqZ3PA4H6lDE91sIVmVkaGWOCFPhCfh1/Lu819hp6tV1EZNg6rGBs4bm3cohPD6zBV7BijPlOO+8Iz+/+lccCFlGgIsP0YuBpgfqhsxN8JLeQpM4MGBOk/L/8Ov63tNvo6zjslQJfkFIk6NIBem//ubyXzw6sVbBikKclxvCC1IQwXEoS+IxGVIGKDE8G+FSwbh6LD2bnN7zCsQzdV/Mb+E1pVygCLlNSKYsE9kclYB+Y/lDew5fzKm1hktenp3N6fEQYLuXZwGUaUQUqMnTvByYFqUEvS01iodOukTHEtwqb+UVpR2iuZ6NB6ZRFgsgKYMHUX5d28l8KVgyaRFq8LzuPceEoSfAFQAXgAkb7dcwwDvgBATqbMtdp473ZudiqDG6E7xa28P3i1lBd0wg7GZYveSJNccgrcWMAV1jXVHvxgcXxDg2SAZKWzanxEdxc3mt6RsYRwGHgHo1qkIJhMcFHGNz6FQhpK8aV2TlNqWosQwtSvlvcErrrMq32i0jQ5AOcFvh7xS38MGQfV8JsQiwTlsP17wdaNaLBoRWV4JsNfDVIQeW7s3NY7OhLl4KU5jril3lGcixZVakXGZK11V5uK+8PbPuWuUdIWjbztcXYCFNiOfZ4BTabvS03A7jArRrRYNCKSvB9CgjMTOyCxEguSYzWqBjgOyEOUmDwQP3dlYMaaJEh2l0NfkKKGwqbuLG0U4NliLdmZjHW/PMq7wTGaDQVqMjxnQs8KyiN6bQTXJGZrVExwH8XNvO9EAcpf3OboQUrRQIRqBiQOc8H/jO/nl8pWDFCxorxgdx8HLO3hmeBD2o0FajI8V0XpMa8OT2TnLbZBN63C5v5QUT2dj/iHmV7dUCDLjIEaww55+UDX8mv55chyloYZjNjLbwiPcX0y3gtAcu0qkBFguZM4OKgNOa0+AguSIzUqATcfxc2hy671/H8vrxHAy9ykgp+la0GBfk+8F/5DQpWDPEv5pcviAPv0UgqUJEnFphlx6QV4+3hyOYRat8obIrMSsqj/a60m37f1Q0gchJWukepGlYFfnBlZQM/Km7TAAZ+cmnx3uxcUpbROZteC4zVaDaXsn4F02LgMxCMTZ6vSU/jDNWrCPSP91fzG/hZaXskr7+CR9KyWaRMdCIn7OelHayv9hnZ9mXuERzLYoGygQXa37aKL3OPmHoJzrF52J80ms0MeiWIPhiUIGVKLMfzUxM0IgHl4fO5/NpQVZwfil8Wd9CnVRWRE+IDdxmeMe9bhc2qs2KAl6QmMS2WM/kS3gBo33sTaUUleGYC/xmUQOW63AJG2ymNSgC5+HxyYDU3lfdGvi/KeJT9qirVi5yAhyqH+U0AK9KfrGXuERKqsxJoNhZTYzn+aO7vVBwooroqTbyHJGjeHpRxOTfezXynTSMSyCDF4/r+ldyi9Lx/95vSLraYXWhMpCF+G4Ig5W9uKGzihsImDWqAzXPaeGbS6KMebwD0xbZJtKISLO3Ad4BE8yNYi2tz82mzExqVgCn5Va4ZWME9lUPqjEfxga3VAS5NjsYyO4e/SN0c8Ip8Kb/esGP0T26l20OPX+H0+Ag9+QG1wGnnpvJeCn7VxOZngc3Aco2kApWoeyvwzCA05PLkOC5NqjBr0BT9Kh/sf4SHzD2cWFf7vSI5O85crQSKPK5vFjaxttobuutaV+3lqF/mjPgIfagIoIRl02rHTT4bNQ34qkay8bT1K1hB4xuD0JC0FeMVqSkakYDp8yu8p3+ZyRlUGuJbhU3sqObVESKPccAr8vtSeOsO/ba0i48PrDYu7XJUPC0xmumxFlObPx84X6OoQCXKngsEIjp4UXIindryFSiHvTLv7lvGGrdXnXEcJd/jwwMrKZm5xUCkbv67sIUKXqiv8ZbyPj7UvyL012kiC4t/T081+RLeplFUoBJlrwtCI9qtBC9MTdRoBMhur8Db+x5kkw6Kn7At1X4+m1+rjhA5ZpXbw03lPZG41rsqB7mufwUlX8FK0JweH8HSeKepzX82oD3xDaYzKsEwHvhSEALHl6UnmfwSCZ1t1QHe07+M/V5RnXHSwcoALXacOU6rOkMizcXn2v5HOOyXI3PNu7wCa9wezkuMJG7pm2yQTIpl+V1pt4lNt4H9wJ0axcZ2ujTfa4IQNGasGM9OjtdoBMRat5cr+h7ioFdSZwzRV/IbuLNyQB0hkfa9wpZIrsguc4/wrr6H6PErugkCZGashackRpk8X1O2BgUqkRuDVwehIZcnx5GzHI1IQH5g39O/jF79wA6Lj8/HB1azTmd7JKJWuT38qLgtste/vtrHu/TBJ3BenZ6KY+Z8fyZwrkZQgUqUXAxManYj4ti8IDlBoxEAd1QOcHXfw6bmmw+col/lff0Ps1lnfCRievwKHxtYhRfxLFhbqwO8ve9BdiobYGCMsdNcaPaqiihQic6HhSA04qnJ0YywkxqNJvttaRcf6l+pjDU11utXeE/fMrZWB9QZEgkuPh/uX8k+nW8DYJ9X5Ir+h9hY7VNnBMTLUpNMrXnzIiCnEWwMHaZvrgzwDZpcid7C4v3ZebTacY1IE/24uI3/KmxQR9RJCY87Kgc4Jd5Jh9JvS8h9Ib+OO3Q+6x8U/Sq3lvcz32ljlJ1ShzRZm51gQ7WPnZ5xK11xYBWwQqNYf1pRaa5nBSEqPzvexfhYRqPRJFV8Ppdfyw2FTeqMOjvslXln30OsdHvUGRJa3ypsNjWrUt0N+C7v7VuuIC4gXpaabGrTX6LRU6ASBYG40S9PjtVINEnZ9/jowCpNKhqo33e5sn8591YOqTMkdH5e3M4Pi1vVEU+igsf1/Su5ubxXndFkc5xWFjjtJjb96YBqOTSAtn41TwvwNQaXEJtmpJ3iLZmZpu4TNVqf73J1/8Pcrwlzw1Xxua28n7hlM9/MH0mRf/LT4na+XtiojjgBHgymLrdgkdOhDmmiDjvBLeV9Js6f1wLLNYIKVMLqJcCLm92IF6cm6iXdBPu8Iu/Swc6m8oGH3CMc9EucFh+BrWBdDPbd4ha+VdisjjhJD7tHGcDl1HinPtg1ybhYhr9U9ptY7yYF/EAjqEAlrD4CzGru4Fu8NzuXjGqnNNTWY9Xm9ygbTyBsqPZxX+UQp8RHqI6QGMfD58v5DfykuF2dMURr3F62VAc4O95NzFKw0mgW4Po+D7iHTWv6JODLQEGjqEAlbNLAV2nytq+z4l08MzlOo9FAD7tHuLJ/OUdVyDFQDvllbi7vZUosxzgllhBDFPwqHx7QWYta2O7lWeX2cE6im4Sl47uNNj6W4VelnVTNqvkTAx5B2b8UqITQpcC/NbsRb8jMULavBrq9vJ8PDaykqEKOgVTC45byfkp4LIy3E9M2EAmwHdU8V/YvVwa7GtrrFbmncpCz493aadBgSSvGtuoAW8yrdVUGfqERrB99NmiOZza7AV12ktPiSljRKD8qbuMjAysp+yrkGGQ+Pj8pbuONvffr/JAE1p2VA7yl7wEVMK2DrdUB3tH3IDtUxb7xEyMzM5BeRpN3x4SdVlSa48tAezMb8IzEWE6Pj9BI1JmHz5fy6/lxcZs6wyBH/Qp/LO3FtmCO06aD9hIIRb/Klwsb+FphIxX00aNe+n2X28r7WOR00GUn1SENMspOc2tlH71mbY1OAbcAWzWCClTCYhFwVbMb8frMDEaqMm9d/W3/uIFpF+VYkLnMPcIdlQNMj7XQredFmmiN28v7Bh7mgcphdUYDlPC4ubKX8XaGybGsOqQBLAZriz1o3qH6g8BNGkEFKmHx78DFzWxAp53gTZkZSsVYR4e9Mlf1L+dh96g6w3BH/Qp/KO/lqF9mrtNG0tJrUxo4Yfar/HdxC5/NrzUxfavRqvjcUTlAix1nttOqDmmAsXaaX5R2mHWkfrDw45c1egpUwuJDwJRmNuDpiTGcHu/SSNTJ1uoA7+5fxnZPe5zDZF21j9+VdgMw22nVdjCpu3srh3h//8PcWzlk2sQtNHzgvsoh+n3VWmmEtBXjEfcoe81K398F3ADoYKMCFeMlgf+kyQev3pCZrm1fdbLMPcL7+pdzxC+rM0KojMdD7hH+WjnAKDulrHlSF7u8PJ8dWMu3i5vp9111SACsqfayuTrA2fEuHKUvrqsSHvdWDpnW7IdQmmIFKiFwPvDaZjZA277q5/el3Xx0YDVFlH447Hr8CreU93G/e4gxsTRj7LQ6RYatz3f5XnELnxxYw1ZPGb2CZoeX5yH3CGcnukhpC2jdjLRTJm7/OgL8RqOnQMV0/w5c0MwGPC0xhjO07aumfHy+UdjEDYVNeNqgESkHvRI3lfeyutrDaDutlUoZkrxf5ael7Xx0YBUPuYf1Hgn4M397+QCnxUfQZisrbT2krRjL3aPsM2v7VwfwRY2eAhXTfRiY2MwGvDI9RdtVaqjoV7l+YBV/KO9RZ0TYbq/AH8p7WO4eodNOqLq9nHCA8rPSdq4fWMW9lUOUlXLYCP2+y63lfcxz2vRxol6/rVS5z6ztXx3Ad4CjGr3a0v6fxskwuDSYaFYDHGx+1X4eaS1Z18Qhr8QH+x9hvQoDymNMj7XwgtQEnpIYiaO6uvIYB70Svy7t5H9Ku3QGxWBxbN6Znc1TE6PVGTV22Cvz0p47TVtdfDXwbY1ebWnG2jjnMbj1q2nmO21cnhynkaiBTdV+3t2/nB3K7CWP9yPrl7mzcoDflXdToMpEO6sPBML6ah83FDbxufw6HnGPagXFcB4+d1UOUMVncbxDX35rKG3FeMg9wn6ztn8dAW7U6NWWoy5omDOb3YCl8U6NQg3cXt7PJ/NrKPk6NC/HCVi8Mt8tbOGHhW2ck+jiGYmxnBLvUDKLCCn5VW4p7+N/yrtZ5/aqQ0LGB35Q3Mp2b4CrMnNVZ6mGTo13ssKsWmRnaNRqT7+WjXMj8OxmNuD/tZzKHBWtGpZflXbylfwGfB12lSEaZad4enIMT02MYbT2t4d28rrK7eGm8h7+Ut6v7V0RMS2W4/rcIrrtpDqjBta4vby17wHTHv1OdE5FgYqh9gBN28iasxx+0X4eMQ35kJR9j8/n13JTea86Q2r28p3rtHFRYhQXJEbSbiXUKYbbUc1za2UfN5f2stsrqEMiqMtO8uHcQmbGWtQZw+Th84Kjd9DnV0xq9lOBmzV6taM1ysaYDHygmQ04PT6CixKjNBJDcMgrcdXAw6ZlIBEDHPBK3Fc5xC+KO1hV7aHoV+myUzrPYpDN1X5+U9rFfxbW853iFh52j9KnFZTIyvtV/lzex+RYjgnK/jcsFhZr3V62m3UWdD3wV41e7eiMSmM0fd/ioniHRmEIVrs9XDewgsOeKs1L/VTxeaBymAcqh/ki65nttHBOvJsz411MjmXVQQFS9j0edo9wb+UQ91YOsUcrJ/IYRb/Ktf0reF16Gi9KTVSHDMMp8U7uqBzQfE+BitTZac1uwOyYzqacrFvK+/hsfg0lX5l5pHF8fNa4vaxxe7mhsIluO8mp8RGc6nSyNN5Bi6Uic43k4rPe7WWl28PD7hGWu0eVSENO6Dn+WmEjG6p9vCszh6SlNOVDsdS8j6yna9RqSwcWGjTnBZ7SvGjU4sb2C/SiPEEePt8qbObHxW3qDAkUG4uJsQzznDbmO+0sdtrp1oH8mir5VTZU+1npHmWV28Mj7lEGtJVLhmGu08Z12QV02jqHNhT/2nM3e81auRwH7NbIKVAxyX6gu1l/fGasha+0nqZROAF53+VjA6u5p3JQnSFGmBDLMCfWxiynhdmxVqY5ORWZPEEuPjurebZU+1lf7WOle5T1bh9VZfWTGuu2k3xIh+yH5NMDa/hjeY9JTX468EeNXG1o61f9jWlmkAIwUymJT8j26gAf7F/BLhVxFIPsqObZUc3zp2M/5HFspjk5psYG/2dyLMvUWI7WiG8Z2+8V2VIdYEu1ny3VAbZW+9lWzeOq6KI0wAGvxDv6HuSKjCrZn6xZTqtpgcoCBSoKVEyysNkN0PmU47uncpBPDKxWvQMxXgWPtW4vax9TXHCEnWSinWFcLMM4O834WIbxdobRsRTxEKzAVPDY7xXZVy2y3yux3yuy1yuy2yuwtdqvZ1uarux7fHJgNRvcPt6Yma7CrycaqJi3CrVAo6ZARTfsSX2N0FLzE/GBnxS38c3CZhVxlFA75JU45JVY5h75p/9dp52g207RbSUZaacYaSdptxO0Wwk67ATtVpw2O4HT4IlV2ffo9136/Ap9vkv/3//TZb9X/Pv/7POKyswnxvhlaQc7vTzvz84ja2kadjzTnBxxbCrmrH4qUFGgokDlRCWtGBOV3vRx9fkVPjqwigcqh9UZEmmHvTKHvTLrjvPfy1kOGcshY8X+/p9ZyyFtxYhhEcMic2zilbZiVHwP91EfAAZ8F+9R/9+PXuUo+95jgpGKMu5JaN1XOcTb+h7kw7mFjLPT6pAnnagObmd97CpxgM09Nr/WMq4CFSPMb+YfnxrLqhr949hU7ee6/hWqgSByEvqPrWaIyPBtqw7wxt77eW92DufGu9UhT2JWrNWkQCUJzADWaOSGT6lh6ssCZjazARNsraY81i3lfby970EFKSIi0lR53+VD/Su4obBJ24+fLFAxbwv7LI1abWhFpb7GALmmBiqxjEbhmCo+/636KCIiEiA+8OPiNrZU+3lfdh45nVv551m/eUmBpmvUFKjoRj0B420FKjC4B//6gZU84h5VZ4hI5KWtGF12knYrQaedoNNK0G4nyFoOcey/nzvKWf+XQqGIR+XYuSGXwTNFfX6Ffs/9+/97v1fkgFei16+ok0/SvZVDvKXvAa7LLmCyzpb+gwmxDAnLpmzOuTUFKgpUjDAtCA931D3iHuX6gZXKCiQikTPaTjPDyTHezjDOzjA+Npiaut2qb5X0kl9lnzeYKnqnl2drdYBt1QG2VgfoUxDzhHZW87y17wHenZnDBYmR6pBjbCzG2mm2VgcUqChQkbAEKtaxBzuqfODXpZ18Lb/hHzIPiYiEUasVZ4HTziynhZmxVmY6LU0r9Pm3jJMTY1lOpfMf/neHvTIbq32sdXtZU+1ljdujJA2PUvCrfGRgJQ+5Y3lbZpYS4hwz3s4oUFGgImG6UUfbKRJWNPMlDPgunx5Ywx2VA7oLRSSUklaMBU4bS51OlsQ7mB7LGVFEsNNOcLo9gtPjI4DBj0o7q3lWuT085B7mocoRjvpaAf/f0m52Vwu8Pzev7itgJpgQy4A5i3ETgBRQ1JtKgYoClSd7qCNoQ7WPD/evVFYvEQmdFivO2fEuzkt0c0q8k3gIkndax36vJsQyPD05Bh/YXO3nwcphHnQP83DlKC7RrKmzzD3Ca3vu4/25eSxxOiJ97483a05jA1NQimIFKgE3uZl/PIrbvm4s7eSr+Y0mVbCVR0lZMeJY9PtVpeoUOSZrOVyQGMn58ZEsjnfghHwrkAVMi+WYFsvxYibS77vcWznIHZUD3F85TNGvRmr8j/plrupbzsvTk3lFarIRq2Z1CVTMSw6kQEWBSqClgRHNbMAIOxmZzs77Lp/Pr+PW8j7deQHQaSfotlN0W0lG2ilG2Sk67AQtlkPOitNiObTYg/9pP8GPro9Pv1+likfBr9LnuxzxyhzxyxzyShz1yuz3Suzy8uyqFhScSugm6/Oddi5LjuX8eDdJKxbZvshZDhcnRnNxYjQl3+NB9zB/Lu/l7spBk7JADUsVn+8WtrDB7eO92bm0RDCF8UTzdomM05tMgYpu0CcNVKKxp3V9tY+P9q9kl7Z6NdxIO8XkWJbJsSyTYlkm24OHZ9M1mFRZWH//MW63BosS8QT/rI/PPq/Ermqebd4A690+1lf72FHNa2VGjJK1HJ6ZHMtlibGmbXVpiKRlc3a8i7PjXfT5Ln8p7+Om8l5WuT2RuP67Kwd5fe99fDA7nzlOa6TGvsWK02rFTUp9rUBFgUqgjW92AzqtcK+o/F9Wr42R3b/cSGkrxoxYC3OdNuY4rcyJtdEZkGDYwmK0nWK0neIUOuHYrZ/3q2ys9rHa7WG5e4QVbg+liG0bETN02Umen5zA5cmxZFTw7wQnrg6XJ8dxeXIcO6t5flfeze9Le0Kf/ni/V+Rd/Q/xxvQMnpWM1lx4bCxNr6tAJUqU865+Xg58v5kN+Hrr6UyN5ULZuT1+hU8NrObeyiHdaXX7imExx2ljabyDU5xOZjmtxqfJrOCx2u3hocoRHnAPs97t1XqLNNWEWIaXpCZxSWIUDrY6ZJhKfpU/l/dxY2knm6r9ob/eixKjeEdmNpmIbA28pv8R7qocNKW5vwcu01M53LmIhDaSDusZleXuET4+sJpDXkl3WY112gnOjndzRnwEi52OmmzhCpI4NoucDhY5Hbyaqez3ivy1coC/lg+wyu3RNjFpmG47xStTk7k0OeYJz2nJyUtaMS5LjuWy5FhWuEf5RXEHd1YOhvbZvqW8j9VuD1dn5zHXaQv9+Bo2rxmvJ3L49Hasny8Cb2vWH49h8YeOC0OVHaSKzw+KW/l+YSueJpQ1M9ZOc26im3Pi3cx1WiObUeawV+a2yj5+X9rDlgh8iZXmaLHivCQ1keclJ5C0tILSCLu8Aj8tbuMPpT1UQ/rbEcOKRFaw7xW38J3CFmN+VmhyUiUFKvJkfga8sFl/vMtO8uO2c0LTmXu8Ah8fWM3qiByYrLd2K8FFiVE8NTmaGbEWdchjrHF7+X15N7eV95HXmRapARuL5yXH88r0FLI6g9IUe70CPylu5w+lPaHNErg03slVmbmBOT9Ya78r7eZz+bWmNNcHMqjoowKVgLoNuKBZf3xmrIWvtJ4Wio78Q2kPXyms14RxmOLYnBEfwdOSYzg9PiL0tRhqoeBXubm8l58XtyurnAzZjFgL78jMYlbEsjQF1QGvxPeLW0K7wtJhJ7gyM5dT452hu7Z7Kgf5QP8jJjV5ArBTT50ClSBaAcxv1h9f4nTw6ZYlRndgj1/h8wNruaNyQHfTMHTaCS5PjuM5yfG0WXF1yBD4+NxbOcQPi9u0qicnLGc5/Ft6Ks9JjtM5lADaUc3z7eJmbi/vD124YgHPS07gdZnpofootb7ax5t67zepyYuBh/W0DZ3Wn+s4P2zmHzf9EPQDlcN8Or9GB+aH83Z0Onhuajxnx7s0SRr2j77FmfEuzox38bB7hO8UtvCIe1QdI0/otPgI3pOZE9otOGEwIZbhg9n5rEr28LXCxlB9hPCBX5Z2sK7ay1XZuYyx0+GYWFnGPU+detKGH3RLfRSAVLP++EWJUVydnWdcp5V8j28WNvGr0g4dlx+CGBYXJkbx0tREpoQ0NXVQ3Fs5xLcKmyKRAlVOXNKyeUVqCi9JTYxsYgpTJ/a3l/fz1cJGDnjhOlKQsWK8KT2TpyfHGH8tVXyefuQ2k7K4vQj4uZ6wodOKSn1kmxmkAKQMXFFZ5/byifxqdlTzuoNOUhybpyVH85LUJMaG5MtZ0J0RH8Hp8U5uKe/j24Ut7NEZlsib5bRyVWYuE1RR3jgWcEFiJGfER/DT0nZ+VNgWmgP3eb/KZ/JruKdykCuys43eAhzDImnZFM05s6qsXwpUdGM+njTmBCpl3+PHpW38sLAVV+soJyVh2VyeGMeLUxPpCmndnGBPbiwuTozmvPhIflzaxo+L2yj7njomgl5w7DxATKsoRktZMV6ZmsKF8ZF8Ib8uVFs876gcYGVPD+/KzuaseJe5Y0SMIsYEKtr6NezgVOphCvCGZjZgabyTJfGOwHfUGreXqwce5vbyfjS9O7kJ8gWJkXwot4CLEqPIKN1pc1+klsUip4OnJEax0yuwW6srkfpY8M7sbF6amqSzYCHSZid4WnIMXXaSR9yjoVldKVLl1vI+9ngFTo134hhYy+c3pV30+64pzV0O/ElP1NBpdlMfTY8Qgr71q+R7fK+4hZ8Wt6t440kFKHBOvJt/T09lYiyrDgmYsXaaj+cWcWt5H/9V2MBhr6xOCbGRdorrcguYqVpEoX3fPjM5ljPjI/hifh13VQ6G5tpuKu9lbbWXKzNzmW1Y2mzDkgVpRWWYtKJSHwuAf2lmA85JdAf25bPK7eHqgYe5q3JQIcpJmOW0cm12AS9KTaRNmYQCbUosx9OSY9hVLbDD05mrMFrsdPCZliU6ExYBGcvhKYlRjImledg9Qjkkqyu9foXfl/dwyC+xxOkwZnXlpvIeDpqTEXQDOkw/LFpRqY+mf+pOELwXTt6v8q3CJm4s7TIpY0fTtVhxXpmeoloMhmmz4nwot4C/lPfz+fxak7YqyHGcG+/m6uw8EgZum5Ghe2piNIucdj4xsDo0Z1d8fP63tJtllSO8KzubRU7wt4ynzPrGrq0Pw6QVlfo4A3h2MxtwVryLGU5wtiPcUznI+/sf4UH3sO6OE2Rj8ZzkeD6UW8gip12pTg01OZblgsRI1lf7OKC6QMZ7fnIC787ONnJvv9Rg1mk5PC05mlY7wbLK4dCcrezzXW4q7+WQX2Kx00E8wPf3HZUDJq1U7wK+oydn6LSiUh9Nz00ZlPWKPV6B/8yv597KId0VJ2F6rIV3Z2czXXvfQ2GMneazLUv5an4Dvy7tVIcYyAJen57OC1MT1RmRvxcsnpccz+xYKx8bWBWa1OQ+8L+l3Tx4bHVlSUBXVwwrv6AVlWHSJ6GQ3pjN3lrl4vOr0k5e13ufgpST+nJg8dLUJP6z9RQFKSEc27dkZnJ1dh5JS4vZpgUpb8nMVJAi/2CO08rXWk/nvER3qK5rr1fgvX3L+VJ+HQMB3LKaVKASsd9OqYdIr6g87B7hi/n1bK8O6E44CXOdNt6dma1sXiF3UWIUk2JZrutfoSKRBgUpz0mOV2fIP//YWzGuyS7gJ7FtfKuwOTRZLH18flPaxR2VA/xHejqXJEYHZvOxYWdcVf11mLSiEtIIuhkvy11eno8MrOTdfcsUpJyEODZvSE/niy1LFaRExLRYjv9sPZU5hqUFjWKQ8mYFKXIC98lLU5P4dMtiOkKWkfGwV+aTA6t5V99Dgfld982KBfWjrkBFEfTjf3FonD7f5YbCJl7bcx9/Ke9XPq+TMCGW4f+1nsILUxN1WD5i2qw4n80t5fzESHVGQL05M5PnKkiRE7TI6eDLLacyI4Tbdh9xj/K63vu4obCJst/cFAKGzTG0oqJAJZDiUQhU3GNpDV/Vczc/Lm4LTeXeRnlqYjT/1XKazqJEWMKy+UB2Hs9KjlNnBMzLUpMVpMhJG2mn+HzLUs6Jd4fu2lx8flzcxn/03scDleZl8DRs61dcT8Xw6IxKfTT9pFc9t35V8bm1vI/vFrawW3vsT1qLFefd2dmh/CGTk2dj8fbMLNqsON8vblWHBMBFiVG8Oj1VHSFDkrJiXJdbwPeKW/huYUvorm+Xl+eq/uUsjXfyhvR0psZyDQ5UNB9UoCLDn3s0WaUOS7MuPjeX9/KjwlZ2KUAZkmmxHNflFjBG1azlMV6VnkrKinFDYZM6o4kWOx28JztHGzFlWCzglakpdFlJvpRfhxvCTdEPVQ7z+sr9XJIYxX+kp9PZoPM5hiUsUKCiQEU35uPZUa1dMST32ArK9wtb2WVOkaXAuSQxmisys5SaVp7QS1OTKPse3y1uUWc0weRYlg/nFhDXrmipkcuSY+myk3x4YCVFvxq66/Pxuam8l79WDvDc5HhenppMWr9xj41ZbdDeeAUqClT+wYPuYar4xIbxXfCwV+YP5d38trSbA15RozpEcWxel5nO87TfXU7AK9NT8IHvKVhpqIwV49rsAjKWfhaltk6Pj+CzuSW8r/9hev1KKK+x6Ff5cXEbfy7v42WpSTw9OaZuAb+Ba1MxBSoGT6hD6iXAvGY2IO9X6bKTzDzJ9Kc+Pg9UDvONwia+kF/HQ+4R8gEs+GSKTjvBJ3KLQ1cQTOprcbyDIlVWuT3qjAawgPfn5rPAaVdnSF102UnOiHdxZ+UghRCurPzf3MPl3soh/ljeQ8yymRrL4Vi13Uj5x/Ie07affwzQREqBSuAClbnNbsRD7hEm2lkmHac2h4/PWrePG0s7+Xx+LTeWdrHdyyvN8DBNjmX5TMtSJqs2igzB0ngne70Cm6v96ow6e2V6ijKvSd212wnOS3RzT+UQfSH/AJj3q9xfOcQfyrux4FjAUpsVlv8ubKbfrP77BFDREzA0Oi9YH78CnhuUxix2OrggMZKJsQxpy6Hq+xzwiuzyCqxxe1jl9tDj6xmqpVPinVyTnU9W20hkGFx83t//MA82MRVo2J0WH8HHcgtVx0ga5oBX4r39y2p6ljTo2qw4T0uO4bLEWCbEhl5aZH21jzf13m/c5QO9uvMVqASFA6wCZqoroumy5FjelpmFo8dLaiDvu1zR9xCbtLJSl8nTN1rPaFi2IpG/OeKVeVf/ssBUe2/kpHOh08Ezk2M5L9F9UudYfHyuMvPDzYXAX3TXD422ftXeG4FXqBui6d/TU3ldejq2ghSpkbhlc0Z8BDeX91LSecyaujI7l9kneY5PpBbSVoyz493cXTkY+m1gj7XPK/LXygF+W9rFDi8PWHTZSeJPsjVswHf5dH4td1UOmnjJi4BvgHbUDzW4ldppATYAo9QV0XuQ3pCZwQuSE9QZUhfL3CNc1becqn7rauIZybG8KzNbHSFNdcAr8s6+ZeyJeG2yGBbTYjlmOq2MsVN02AmSxDjoldhY7ePOygHyZicheAXwfd3xClSa7ZPAe9UN0XvBvjM7m0sTY9QZUlc/KW7jGyoIOWyj7TRfbz2djOo9SADs9Yq8s+8h9qsMQJjtYvBIgIrRnfQcS2plMvA9VJsmUuLYfCA3n4sSWkST+pvntLPdG2BbxPa119r7svOYomx8EhA5y+HMRBd/qewPZVFIAaAVKAB/VVecHJXfrZ1PACl1Q3QkrRgfb1nEuXHVSJHGsIB3ZeYw1k6rM4boKYlRnBEfoY6QQBlnp7k+u1BV3cPtKkBbL06SnojaOAP4PNpKFxlxbK7LLeCUeKc6Qxp771k2s5xW/ljeq9MqJyljOXwkt1DV5yWQuuwks2Ot3Frej6enO4wSDK6s/FZdoUCl0X4CTFQ3RIODzYdyC/RVVpqm207h4rPCParOOAlvyExnqT4uSICNiaUZE0txZ+WAOiOcFjNYa2+/ukKBSqO8BHinuiE6Qcq1ufmcGe9SZ0hTLYy386B7mINeSZ1xAqbFcrwzO1uFHSXwBqu4Wyxzj6gzwscGZgHfVVcoUGmEBPBLQJ/oIvGwWFybW8DZClIkEL92Fgucdn5f3q2UxSfgyuxcxg2jIrZII8132tntFdiiQq9hNAW4n8FyFnICkZ0M3TuAaeqG8LOAKzKzFaRIoEyIZXhpapI64jiWOB2cqi1fYthvzrsys5mjgqRh9Vkgrm44Pq2oDF0X8DOU6SsSXpuexnNT49UREjjznDb+UtlPr19RZzzuhM/imtx8RthJdYaYNUGzLM6Md3FbZT/5iFWvj8gccg/wgLriyWlFZeiuA9rUDeH37OQ4fbWWwHKwuSIzWycvnsAliVHMiLWoI8RInXaCD+UWkFTa4jD6kOaRClTqIQN8DniDuiL8LkyM4q2ZmeoICbSFTjuXJEarI/7pB87i5anJ6ggx2sxYC1dkZqkjwqcbuJXBTGDyBBSin5zzgN8BlyvIC795Thsfzi0gpqEWA8xxWvmtDtb/gwsSo7g8OU4dIcabGstxyC+xodqnzgiXMcBrgSxwB6A9fo+hGdiJaQO+CNwG6PN6BIy0U1yXXUBcj4gYYoSd5IXJCeqIR3lJSuWtJDzenJ6pbYzh5ABXAiuAC9UdClRO1qXAauBt6q9oSFqDVec77IQ6Q4zy0tQk3bfHnBnv0qROQiVh2XwgN5+s5agzwmk68GcGjxco+4cClROKcK9jcKvXWHVHNFjAezNzmakJjhgobcV0JuPvQZtWUyR8xtlp3pWZrY4I97z8CuAuYIa6Q4HKE5nA4Dava9VH0fJv6alckBipjhBjXZ4cxxg7Hek+mBbLMd9p180goXR+YqTOXoXfUuBB4GUKVOSxng0sB85RV0TLGfER+hotxnOweHHEVxOek1TNIwm3N6SnMz6WUUeEWwvwA+C7DB62V6AScTHgM8CvAZUwjphuO8V7s3NVi0JC4enJMXRFtMBhznK4KDFKN4GEWsqK8d7MHGz9akXBK4C7gSlRnZzLYNT6U+BVoKc+ahwsPppbxAR9nZLQvNgHX2MPuIcjd+3PSo7jrESXbgIJvW47hYvPCveoOiP8RgH/CtwPbI3ShWtFBaYC9wDPUldE0+sy05nnqDishMvlyXG0WfHIXfdlSeU+keh4RXqKsttFxwjgT8CbFKhExzkMLqfN1f0fTefGu3meak9ICKWsWOQO3E6PtTApltXgS2Q4WFyZnYuj787RGXL4MvC1Y/9vBSoh9hrgVkApniJqhJ3kXdnZ2usnofXs5DicCN3hF+tsikTQ5FhWxU2j53UMnqkO/ZeZqAYqbwe+AcR1r0eTBbwrM5sWS7eAhDsYPzPeFZFn2uJCBSoSUf+anqxzltHzTAY/uIf6JR+1QMUCPgF8AR2aj7RnJcdxenyEOkJC79kR2f612Gmn21YxZ4mmODZXZLRDIIJOA/4ChDYne5QClRiDe/qu1H0dbWPtNP+Rnq6OkEhYEu+MxJdWFWqVqFvotPO0xBh1RPTMBf5KSCvZRyVQSQA/BP5D93O0xbB4X3YeaUuZuSUaLODSkE9eLIjMFjeRJ/P6zPRIZvsTJh8LVhYrUDFPErgReLHuY3lBagJznFZ1hETKxYlRWCHeFDIj1hLZApcij9Zqxfm39FR1RDSNAm4BTlGgYo44g4Ucn677V0bZKV6RmqKOkMjptlMsCHGtoDNV4FHk7y5PjmVKLKeOiKYO4OYwBSthDlRiwPeAZ+u+FYC3ZmZqy5dE1sWJ0aG9trO07UvkURM7izdlZkT2+rvtFEvjnVySGM1TE6M5O97FzFhLlGrNtAO/B+aH4WLCWizmb0HKS/TKEoCLEqO0h10i7fzESP4zv54KXqiuq8NOMF2VuUX+wRKng7PiXdxdORiZ4OQ5yXGcl+hmnP34yUNcPFa7vXy9sJG1bm/ouwT4M/AUYLXpE/rwfUyA7wAv16tKAFqsONfnFmo1RSItadmsqvaw2yuE6rrOiI9Qxi+RxzHbaeV/Srvx8EN7jWkrxuszM3hfdi4LnXZanySRgI3FKDvFM5Jj6LSTrHJ7KIfsw81jZIEXAv8DGBuxhnHm9lXg1WG5mNHHljDPiI/g9PgIlsY7mBLL0WEnOOyXQ/d1tB7enJnJwni7OkIib8B3ua9yKFTX9JzkeGYpQYbIP2mx4hz2S6yr9oXy+qbFcnyu5RROi3din0SyEAuLWU4rlybGcNgvs6XaH+bbIAc8i8Hz2kbeCGFLA3MN8KEwXMjSeCdvTc980voHHj6PuEf5VXEnd1UO4of4q8lwXmT/1XraSb3ERMJqv1fkZT13heqabmg9g8mxrAZX5HEc9sq8ovduSn41VNd1aryTa7ILyNRgp8Qy9whfyq9jRzUf5lthJXAecNS0hodpReVlwJdMD7467QRvy8zi9enptNnx434VGG2neUpiFOckulnv9nLIL+vN/Cjvy85lbASK3YmciKzl8NfKAY6G5D3RasV5XWZaqFMviwxH2orR77usdntCc02znVY+lltUs+3cY+w0lyfH0WYnWOEexQ3nR9+RwBnAjwGjotawBCpPAX6OwckBbCyekxzPdbkFzHZaT/pnt9NOcGlyLEf9CutDusx7ss5LdPMvqcnqCJFHOeiVWOEeDcW1nBofwVMSozSoIk9ihtPCb0u7QjEBH22n+FzLUrJWbad7NhZznFbOjXezyu3lcDg/+k4BpgG/VKDSWAuAPzJ4aMhIs5xWPpxbyDOSY0lY9rAetDPjXcQtm2XukUi/mB1sPpRb8KQH60SiyLbgT+W9obiWS5KjWei0a1BFnkTKilHyPeM/UMSwuD636Em3xA9Xm53gGcmx2JbFCrcnjGsrC47N/W9VoNIYE4DbGEzDZpys5fDGzAyuyMyqaVXlBU47ZTxWhmip92S9KDWRC/WlVeSfdFpJflrcHopMQC9KTWS8tnaKHNffVlVMTsDzr6kpPDVZ/3pQNhaLnA7mx9tZ7h4hH7LzPcD5wG7gIRMaa3L1mxTwC2CskSGt087XW0/n2clxddlf/Zr0NM6NdxNFWcvhpamJ+mUSeRwJy2Z2SLJkzVD9FJETkrMcLk+OM7b9I+1Uw3/Xlzgd3NB6BheF86Pnl4ELFKjUv5NPM63RMSxemZ7CZ1uWMMpO1e3vWMC7s3Pq+jeC6kWpibRoy5fIEwrDdqkRdpJOO6HBFDlBL0xOGNb28mZ6U2YGySbUQstaDldn5/Ge7JyaZBgLkDjwE2C8ApX6eDvw76Y1epyd4Ystp/DK1JSGpMvNWQ7vzMyO1Iu41Yrz/OR4ROSJLQpBoDI9ltNAipyEDjvBxYnRxrV7WizHOU3eIXJpYgxfbjmtrudjmmAUcCOQVqBSW+cCnzKt0U9NjOarrac1fMvFKfHOSG0Be2lqEhnLQUSe2BynzfjaQpNUO0XkpL04OdG4dN7/mpoSiBZPiGX4cstpnB3vCtMtsRT4mgKV2pnI4LkUY9b7W6041+UWcGV2bs1yfp+sN2Rm4Bi9y+/EdNoJnmPwHlyRRklbMeMPoY+zdYheZCiT7XMMmmiPttOcmwhOezNWjA/lFvLK9JQwVW96BfAmBSrDlzgWpIw0pcFTYjm+0npq01c0RtspnpYcTdi9JDWpKXtYRUxk+kH0cbG0BlFkCJ6fmmBMWy9Pjg3cCpAFvDI1hauz88I05/gCcKYCleH5OHCqKY09L9HNl1pOYbQdjB/Tf0lNIhbi6s0tVpzLEmMRkRNj+hkPraiIDM1Cp53JBmyddLC4NDEmsO17SmIUn8stqWl5iSaKAz8FOhSoDM2lwBUmNNRi8JzENdn5Tdvq9XjG2GnOCte+yn/wnOS4QPW3SNDNcMxdUUlaNl3K+CUyZCakKl4a76Qj4M/5LKeVr7ScxsxwpEqfAHxdgcrJGwl8+1gMEGhpK8a1uQW8Nj0tkIfVnhXS8xtJy+a5KWX6EjkZ0wz+YR1pp4w7ECwSJE9NjA78x72nGFK/pNNO8NmWpSxxOsJwa7yQgGXVDXqgYgHfAgJ/wGK0neZLLacEOsPW0ngnY+3w7et+WmIM7Za+roqcjBbLoc3QekNdVlIDKDIMWcsJdCFDB9uo7FppK8b1uUWcER8RhtvjS0BgalsEPVB5F/DMoI/oHKeVr7SeypSA7/m2MOcLxYlfk8ULVYVeZEhMzfzVoW1fIsMW5F0WC5w2soaVGkhaNh/OLeSpCeOTF2UZPK8SiIrhQQ5UFgMfDfpoLnI6+GRuCa2GfJm8MDGSMDkjPoJxtrL/iAwpUDH0QHpIDq+KNNX0WEtgP7CebujKRAyL92Tn8Myk8cl9FgDXK1B5Yg5wAwGvl3J2vItPtCwiY9Ah7imxXKgqqz5LdVNEhszUFL8jtPVLpCYuCegui9MM3kJlY/GOzGxebP5ujysYLLKuQOVxXA2cEuTRuygximtyC4gbWEjx9HDsoWS0neb0eKd+aUSGyNQVFW39EqmNixOjA5eYosVymGRA+uQnYwGvS0/nX1KTTL4Mm8FFg1SzGxE0c44FKoH1rOQ43pedi2No1pnTnXAEKkEsBCVikm47ZWS7Tdu7LhJUXXaSxU57oNo022kLzS/7a9LTeH5ygsmXMAu4RoHK/3GA7wCBXdd/eWoyb8/MMnqCvDDeTtKyjX7449g8PTkGERm6EYauTKhmkkjtPDUZrMPfc2KtoerfN2amm57I6D00seB60Gar7wZOC3KQ8ur0VOMfmjg2Mwx/EZyb6FZKYpFh6rATRn5yUaAiUsPf03h3oLaxz3bCFahYWFyZnWty6mIH+CZNOjcepEBlFnBtUEfpWclxoQhS/mau4S+CS8xP/yfSdHFsWgyspZLR1i+Rmj5PS+PBKFZoMVjtPWwcLK7JLmBhwLbZnYSFwPuiHqh8kYDkbH6sixKjeFtmZqgemtkGr6i0WwlO0SF6kZroNHD7VwatqIjU0jkBKVY91s4YW4j2eJKWzfW5hcyItZh6Ce8DGj4ZDkqg8iLg0iCOyqnxTt6bnRO6Q9tzDP5icVFilLGJDESCGPibJm74GTuRoDkr3hWIec4spyXU/ZyxHD6aW2RqLagkg1XrIxeopIFPBXFE5jltXJddgEP4fhS77ZSxRdMuSWrbl0jtfjjNW51QmCJSWx12IhBbwsNU5+2JdNoJPpJbaGpSo0uBy6P2vn8/MDloIzEj1sLHc4tIhfjQponbvybEMsyMhfuLi0gjpY0876EVVZFaC8L2r3F2JhJ9PSPWwjsys01t/hdo4FGNZgcq04B3BW0ERthJPppbFPoDmzMNXGK9MD4KEakdraiICASjGPT4WCYy/f3UxGheYGaNlWkMZumNxPs+cAfo49hcl11g5AHTk34hGPjl4pxEl35NRGrIxFS/Wk8Rqb1JsWzT5z5j7XSk+vz1memcZmba4qtp0G6oZgYqzwCeGbSef2tmptEHzU/GOMO+XIyyU0zTti+RmlKqXxH52weAU5zmZdRstxLkIvY+srG4OjuXceYFaGngk2EOVGzgY0Hr9ecnJ3BZcmxkHpBxdtqoL5PnxLv1JVWkxmIGPlVlPA2cSB0sbWLq/3GxdCT7vMWKc01uQaCKbp6gFwFnhjVQeTmwOEi9vcBp53WZ6ZF6OFJWjA6Dtrhp25dI7ZkY/Bd9BSoidQlUnI6mvRPG25nI9vu0WM7EouIW8IkwBipxAlaBfpSd4rrcgkjW5jDlxdBixZlvbkVXEalpoFJVJ4jUwQg7yYRYtmlzsSh7UWoCS5wO05p9AXBJ2AKVNzCYMSAQHCyuyc4PbSXU4wYqhpxTWRLvMHKLikjQmfhUlVCgIlIv85y2pvzdNjse6X63sLgyO5cW8+ajH6/nT0mjA5Ucg3VTAuMV6SnMisjh+cdjSoYNA78yiBjz42garaiI1M+cJtVY67ASke/7LjvJO82rr3Iq8MKwBCrvBAJTCGOe08a/pCZF+qHoNqQ6fTMP+ImEmY9vXJsHFKiI1M3cJq2otNsKVADOS3RzcWK0ac2+nsGjHUYHKh0EqLhj2orx3uxc7IhvJ2o34AvGKDtlYuo+ESOUDDyYftQva+BE6mRSLEO2CWmC2624Ov+Yt2ZmGvMh+ZiZwCtMD1TeArQG6SbQ5Bcjsn6dotUUkbopGnje46inQEWkXiyspmyJ7zBrYl5XOcvhTemZpjX7aqDmFYQbFahkgLcGpSfPjXfztMQYPQmYsaKySNm+ROrGxBWVHr+igROpo5kNLq7sYEWu2OPxnJfo5gyzqtZPA55vaqDyOqA7CL3YYSd4Z3a2noBj2ux44A/TNisDiUgUmHgw/YhWVETqamos19C/124nlNfzcbw5M5OEZVQhyPdT4wxgjbj6OHBFUHrwdenptGof5N/FsGgN8FeMDjvBaG3RE6lfoGLi1i+tqIjU1ZQG11LRasrjG2uneWnSqKRPi4BLTQtUXglMDELvzXfaucS8TAoNCQaCam5Mqyki9dTnu8a1+YBX1MCJ1NGEWBangceY01ZMnf4E/iU9yZiad8e8z6RAxQbeG4Rec7B4R2aWlhYfR5DPqcyJcI0bkUYw8WD6Hq9gYFJlEXM4WIyPNW43QxIFKk8kjs1bzDpYfz5wjimByvMYTFnWdM9PTWByg5cyTRHkJde5Op8iUt9AxcBUvyXf0zkVkTpr5DmVpFnnMBru1HinaQfrrzQlUAlEpq9OO8G/pibrTn/CF0Qwv2RYNP5An0iU+ECPZ+Z5j71eQQMoUkfj7MZtN0pp69dxvSY9LfDJjx7lmcCUoAcqcxlc/mm6N6dnktFBrScJVIL5JWOkndIBO5E66vUrVA3dRLVX51RE6mp0LNW4QEVbv45raizHeYluU5prA28IeqDyVmh+6DfPaeOCxEjd4U8iHdAXxBStpojUlcnbp3Z5eQ2gSB2NaWDGTa2onJh/T00lZs6qyn8wWEcxkIFKC/CyIPTSq9NTdWcfR1C3fmnbl0h97TN4VWJrdUADKFLXQKVxKyo6o3JixscyXJQYZUpzO4AXBzVQeRXQ9HRNp8Y7Wex06M429AUxRckPROpqj8HnPLYoUBGpqy47SbxBKYqV9evEvTI9BcecVZW3BTVQeX0QeuffUlpNORFB3Rs6SYGKSF2ZfM5jVzVP2fc0iCJ1YmExskGrKrZqR5ywMXaaZyTHmtLcJcDpQQtULgbmNbtnzo13qwbHCQrqisoYVaQXqas9VXNXVKr47NA5FZG6CnJB6Ch7SWoStjmrKm8KWqDy70H4CvAqnU05iUAleCsq7VZClWpF6h2oGJ7id3O1X4MoUtff4rg6IYBG2ynOjneZ0twXMXh2PRCBShZ4drN75KLEKBV3bHK0OlxjGpgWUSSKfHx2Gx6obHT7NJAidaQVleB6QWqCKU3NAM8Pyhz1BUDTUzW9ODVRd7DhtO1LpL52e0WKftXoa1hd7dFAitRRu6VAJagWOO3MNueIwyuCEqi8otk9scTpYJrS2ipQEZEntSUE26Y2uv06UC9SR222tn4F2XOT401p6lOAIS0B1TJQGXusIU31fHOWwuRJdNlJdYKIApUnVcFjY1Xbv0TqpVVnVALtwsQous2YL9nAvzQ7UHk5NDfP7Tg7w5nxEbpzQ0D7YkXqHaiEow7Jalfbv0TqJaFCjIHmYHF5cpwpzf23Zgcq/9rsHnh+ajwWSsYdBm36iiNS50AlHBmz1lR7NZgidZJSIcbAuzQxxpRUxXOBxc0KVOYDC5t59TnL4WmJMbpjQ6JDB/hE6mbAd9lZLYTiWpZXjuDja1BF6qBRddZcX8/wUHXZSZbEO0xp7subFag8v9lX/vTkWNXdGKIgrkK1a+uXSN2scXtDM7nv8StsDsk2NpGgSTVoXlVBSTGG45LEaFOa+rxmBSrPaXqgotWU0HCwyFqOOkKkTtaGbLvUg5XDGlSRegQqDdr6VVL2vmE5L95tysf6acC8Rgcq44AlzbzqGbEWFXgchqCl90xbjk4aidTRmpAdQF/mHtGgihisRFWdMJyA0opxbrzblOae1OJGLQKV50Jz55WXJEfrLg3RCyKlLXwideMDa91wrag84h7V1hERg6ke0vA91ZztXw0PVJq67SuGxVPio3SHDidQCdgLIqV0iCJ1s7Oap8evhOwdVmWl0hSL1FyjzrJp69fwLYl3mFKD7jTghCtVDndG2AZc0NSrjY+gUwevh6UcsC+RSocoUj8PueE8z3Fn+YAGV6TmgUpjaOvX8FlYnBXvMqOp8MxGBSqXAU2NEgxa6gqskh+sF0RSW79E6heoVMJ5nuOOygElKRYxNFDR1q/aONOMQAVOYjfWcAOVZzTzKjNWzJToMdCC9oJQJVyR+qjiszykB88PeiU2VPs0yCI1fmc0ZB6iM2Y1sTTeYUr2r4uAdCMClac08ypPjY/QpLYGSnpBiETCOreXAd8N7fVp+5dIbeUb9L4o+Nr6VQtxbJY4RhR/TAJn1ztQmcFJHIaphzPiI3RX1iJQCdgLwleFWpG6eNANd72ROysKVERqG6g0Zn7QF7IEH81k0PavE1rssOv9B+rFwuJ0R4FKTQKVgK2oaH1HpD7uD3lhxK3VAbapSr1IzRQatKLSH+KV3mYEKobUogt3oDLbaaFD2b5qohi0FRUdiRWpuSNemTUhq5/yeP5c3qfBFqmRRq2olH1PKYprpNNOMCPWYkJTTweO29DhBCrnNztilNoI2pKrwhSR2ruzciASHwFuLu/Vxw6RGmnk2ZF+bf+qmcVxI86pOMA59QpU5gBjFaiEQ68XrCVXZf8Qqb07InJ+Y79XZIWKP4rUxBG/3LC/1aftXzUzz2kzpanH3Z1l1+sfrqcuO8nUWE53Yo0ELQtQXi8rkZo/48srRyNzvTeV92rQRWrgkFdq2N/SikrtzHfaQ3NOZaiByrnNvKqF5gyAEYL2clCaQpHaurdyCDdCK5W3l/drv7tIDTRyRaVXHylrps2KMz6WMaGpS4FsPQKV05odKUpt5P0qbsD2c+cVqIjU1K0RO2A+4LvcWtGhepHhOuQ1LlDRikok58oxYHGtA5U2YFpzO79Nd2CIXwwFv6qjsCI10utXQp+W+PH8trRLgy8yTIcbuPVLZ1Rqy6BzKqfWOlA5FZq38yprOUyOZXUHhvjF4OM3LHe7SNjdUt4XqW1ff7PO7WV9tU83gMgQlXyvoduxejytqNTS/JgxgcoptQ5UTmlqxztt2DqhUjNBXWo93MDlZpEwuznCB8t/U9qpG0BkiHZ5+Yam+m7k6k0UjItlyFgxBSqNNk/bvmocqARz5eKwr0BFpBYTjXURKPL4RG4t7wtcnSgRY94f1UJD/94h/e7XlAVMMmMH0myepPDjULd+NY0O0tfWkYCuXBzSlxWRYftjaW+kz3uVfI/fl/boRhAZSqDi5Rv697SiUntTzCjlYfMkB+pPNlDpAKY082pUP6XWL4ay2iUSQi4+fyxrkv7L0o5IntERGa6d1cYGKof0u19zk8w5031KrQKVxTTxIH23nSJnObrzavli8Etql0gI3VHer5VJ4KBX4uayUhWLnKwdDV5R6fErgSuXYDqDPu4vrlWgMquZVzFF2b5qLqgrF3u9ogZHZBh+o/S8f/eT4raGHgoWMZ2Pz+Zqf8P/Zo9WVWpqsm3MvHlmrQKVGU3tcAUqNRfUL667GrzkLBIm26sDrHCPqiOO2VHNc3flkDpC5ATtrBYoNKH4sg7U11aHnaDNipvQ1BkKVORxHQnoS2GXV9D3T5Eh+m1pl56fx/hJcZs6QeQEbWhSDSIdqK+98bGMCc3sAjprEajMbG6gooP0teQT3KxfRb+qF5bIEAz4Ln+KcO2UJ7LK7eHBymF1hMgJ2Ni0QEUrKrU20k6Z0tQZww1UYjQx45eFxSQ7ozuuhnoDfnBtl1fQIImcpBtLOxkIaH2kZvvv4matNImcgA1ucwKV/TqfWnPddjIygcoUINGs1nfZCZJmVNg0RtAzAm2rDmiQRE5C2ff4taqxP6G1bi93Vw6qI0SeRBWfddXmFIrdp0Cl5qK0otLU8yld5kSExgj6Emuz9siKmOqP5T3aOnEc/13YrAxgIk9ivdtHvgkH6UEZP+vBoBWVmcMNVKY3s/Wj7LTuthoL+peLja4CFZET5eHz8+IOdcRxbKn2c3v5gDpC5Ak87B5p2t9WoFJ7UVpRGdfcjtaKStQClS3VAVWUFjlBfy0fYJentN4n4r+Lm1VYTuQJPNLE1OYHvRIV/e5HNVAZO9xAZXQzW99tTkcbY2/AD6tX8Niqcyoix+Xh853iFnXECdpZzXNjUWd5RB6ris9Kt6dpf9/HZ78yftZUqxUnhmVCU7sfLy45mUBlVHMjQq2o1JoJh9bWa/uXyHH9ubyP7QrqT8r3ilvo8SvqCJFHWe32kG9y1sB9VWX8rCULyFiOCU11gBHDCVS0oqJApeFUXVvkybn4fK+g1ZST1e+7fKewWR0h8ij3VA41vQ06p1J7OTMClceNNYwJVDqsuO60mk5uPA4ZkB1ouQIVkSf1x9Iedqvm0JD8T2k3W6r96giRvwcqzU/frRTFtZc1J1AZNdRAxWawvL06OST2eUUjUnQe8Ir6uiLyBCp4fL+4VR0xRB4+/1XYqI4QYfDcahDql+3Rh5coz6GHvKLSzeDesaawsEir2GNtX0hVcyb/jzQxVaJIkP2iuIMDCuSH5aHKYW4p71NHSOTdFZBiqLsUqNQhUDFmDj3kFZWmHqTPWDEsMzIWGMOkpdWHK0c1YCKPccQr88PiNnVEDXw5v14H6yXy7ghIfaEdVaVZr7WcOccnhhyotDc3EtS2r1ozaTvVvZVDqiQt8hj/Xdzc9Ow8YdHjV7ihsEkdIZG13yuyoolpiR8t77scNuAMrUlSlm1KU9uHGqg0tSy8ApXa22lQYbijfpl1SlMs8nebqv38obRHHVFDfyjtZpm2mUpE/bm8L1AfBHeqeG1NGbQrKaNARQCMq7lwd0D2zooEwdcKG/G0ylhTPvDF/DrKvqpiSxQDlb2Bao+2f9U6UDFG2shAJWnOkpUhP8i+celM71GgIgLAX8r7eahyWB1RBzureb5TVE0aiZZN1X62Buzj5Q6tqESVmYGKjtHX1l6vaNxXw83VfvYru5FE3IDv8uXCenVEHf20uJ2HtQVMIuT3pd2Ba9MOw3Z9BJ1B82gzt37ZClVq/AIw70uFD9xW3q/Bk0i7obBJh0zr/q7x+fTAGiUqkEgo+FVuCti2Lxhc3ZRaBirGzKOHvKKSUSQYokDF0CXVPwfwZSrSKGvcXv4ngF8+w2ivV+QrhQ3qCAm9m8t7GQhgUL7HK1JB58UiOI82c0VFasvULxVB3Ecr0ghVfL6QX6s03Q30h9Ie/hqQuhIi9fK/Af344eGzu6rCj7Vi0C/HkFdUks1stbZ+1dZ2g5dUtaoiUfST4jY2VfvVEQ32hfxaDnoldYSE0kq3h43V4Kb+36J3Xs0UqZrS1NRQA5WmXqHClNra4Zm7KnFrwHK9i9Tbpmo/3ytsVUc0QY9f4UMDK3D1zpEQ+mlxW6Dbt1k7KGqm4BsTqFSHGqhUmttq/UjUyoDhFV/3ekXuV2pWiYgKHp8cWK292k20xu3l24XN6ggJlW3VAe6uHAp0GzdVVeg5goFK2chApagCXDWzOQRLqb8p7dJASiR8q7A5FM+s6X5S3MadFZ1XkfD4QXFr4HcnaEWldgzKYlgZaqDS1E/wBaWJrJkw7HO/t3KIvZ4O2Um4rXSP8oviDnVEAPjAZwbW6L0jobDHK/AXA9L9H/CK9PoVDVgNFLWiUudAxZxDQIEXhq+zPr7StEqoDfguHx9Yjadtr4HR57t8uH8lJV+/R2K2Hxa3GbOlXgfqIzePHvKKSnMDFf0w6KF/jN+XdlPSlkAJqc/m17LPK6ojAmZ9tY9P5FcrfBRj7ajm+VNpjzHt1fav2hgwZ2eSoSsqClRqwscPTR2SHr/C78taVZHw+VVpJ7cbsC0jqv5aPsAPilvVEWKkrxc2GpWgSGf0hs/D56hnzBY6rahE2a5qIVR9+ZPidlxlQ5IQWef28vX8RnVEwH2nsJnbyvvUEWKUFe5R7q4cNKrNm1xl/hquI17ZpG3EQ15RaWpI6+GTV7AybFtCtoR6wCtysyYLEhJ9vstHBlYpFbEBfOAz+bUqwilG3bNfL5j3EWSbN6ASFcN02DeqJEV+qIFK00Pww6oOPGxhzEn+4+I2HTiWUEwiPjWwWlmlDFL0q1zd/7DOEokR/lzeyxq317h2l3xPB+qH6aBZ8+f9xgYqh3wFKsMVxr2eO6t5btGqihjuO4XNxm3JEDjklXhv3zKO+mV1hgRWn1/hqwZvKV2n7V/Dfk+ZFFcNNVA50PyO1g/BcIV1m8J/FzZTVgYwMZQOZ5ttl1fg/f2P6CylBNY3CpuMDqbXVXs1iMNw2Kz585ADlcPQ3I3Th7T1a1iO+uXQblHY5xX5dWmnBlmMs1HpbkNhndvLtQMrlNxDAmeN28vvDUpH/HjWugpUhjXz96OxolIFjjQ1ItTS+rCsDvmD/sPiVlWwFaMc9sp8sP8RFRAMiYcqh/nswFp8hZ0SEBU8PptfY/w9ubU6oBXLYdhRzUciUIEmb//SisrwrAt5oNLvu/youE0DLUYo+VU+OPAIB/ReC5Wbynv5jIIVCYhvFjaHonaah8+Gqs6pRCRQOWBsoLJfP+jDC1QisMfzl8UdKg4lRvzofmxgdeg/HkTVH8t7+GxewYo01wr3KL8o7gjN9Wj719AM+K5p55OGtaLS1JQ0O82KCAPFB9ZHIGtGFZ8v5ddreiCBfhY/l1/LnZUD6owQ+0NpD5/Pr9O7SJo2Of34wOpQBcs6UD80O8ybOw8rUNnezJYf9cv06QzCkOyq5iNzfmOle5Q/Gn5wUMLrW4VN/EH3ZyT8rrSbL+vDiTTBF/Pr2B+y5DlagR5ioOIZFagcAfqGE6hsavYV7KyqGNpQrI3Yl4ivFTbSo6BWAua3pV06RxUxvy7t5FMDq1VZWxrmxtLOUNYW2+sVdVZ5SPNmowKVxy32Yw/3H2hsZDigu24IovYlos+v8OX8eg28BMZN5b18SfdkZMf+Q/0rVOtJ6m6N28t/GVzY8XhWuEc1yCdpm1nJFMwPVLbrnMqQrI3g3s5byvtUsV4C4S/l/XxmYI0OV0fYXZWDXN3/MHmlWJU6OeKV+VDIa/mscHs00CfJsLM9ww5UtgBN3U+jA/Unr+R7bHCjmQkrjPt0xSy3l/fzsYFV2vojLHePcFX/cp21lJpz8fnwwEoOhnxr1CNaUTkph72yaSnwNw03UHFp8oH6LVVt/TpZa6s9ka2WHMbMJ2KOv5YP8FEFKfIoq90e3tL7gImZeCSgfODzA2sjsS1qa7VfhZ1PgoGZ0oa9ovKE/0ij7Pby9Puu7r6T8HDEv0CscI/y0+J23QjSULeV93H9wEoFKfJPdnkF3tb3oL4OS018u7CZP5ajkUnQB1Zq+9eJBypuNAOVTc2+SVWd9CQn6hX9GH6zsJkHKod1M0hD3FTey8eV6UmeRJ9f4cq+5dxc3qvOkCH7XWk3PyhujdacRgH+iQcqZs2X+4F9tQhUmp62Rrm0T5yLzxoVSTpWCXwVez2lt5b6+pXS0coJquDxyYHVfLe4RXeLnLS7Kwf5Yn5d5K5bK5EnMWE3a7684Yn+FycbqCxrfoSoifcJj7rbR1FZZgDo9Stc17+SklKESp38uLhNBf7kpPjAdwtb+ED/w/RpW7OcoAcqh/lIRLeWbnT7lD3vBOyo5k2rJ/dgrQKVh4Cm3iHrXG39OlGPuEfUCY9+wVX7+FIEv0BJfVXx+Xx+LTcUNqkzZEjurRziLb33s6Xar86Q4wYp1ww8Etm6PFV8VmpV5biWmzf/q1mg0g80daa33yty1C/rLjwByjn+z/5Y3sN3i1vUEVITBb/Ktf0r+N/SbnWGDMsur8Cb+x6IzMFoGVqQcm2Eg5S/z2h15vS4lpkXqDxQq0DlSf+xhk3AK5qAH4+PzyoFKo/re4Ut/KGkyYAMz0GvxBV9D3FP5aA6Q2qi7Ht8emANX8qv0zZV+Qf3VA5yzcAjui+A+10FKseb/z1cMSpQKQMrahmoPNj8SFE36fFsrParsNgTPsTwufxa7tIEU4ZoU7Wft/Y9wEZlIZQ6+E1pF2/su59N2gomDO4EuK5/ReRXUv5me3VAxZyP8/tk2PmUFUCploFK01dUlunsxfEHSUujT8rD5+MDq1ijLHJykm4t7+NtfQ+aVvFXDJyMvaX3AX5c3KaitRH24+I2PjOwBlf3wD/Q9q8nmSNXwrPta6iBynIGq9Q3zY5qXpOE47i/ckidcBwFv8qV/csVrMgJqeJzQ2ETHxtYRUlZZ6QBKnjcUNjE1f2PcEi/eZF73/wtSYdClMeZ2WpnzRMHKiE6SD/UQCUPrG72VS3XqsoTKvpVTb5P9Gb2Xa5SsCLH0eNXuKpv+bGv2yKNdX/lEP/eey//W9qt+y8Cev0KV/c/rCQdT+KhymE8PQ3/pOBXTZwf13xFBeDeZl/VwxUFKk/4ALtHqKC9rCdq4FiwslbBijyOVW4Pr++9T1tOpenvqc/n1/KuvofY5eXVISG1sdrHm3rv19am4+jzXZWreBz3VQ6ZdpZpAFhVj0Dlz82+sgfdw4qln6hv9IIb0iTgyv7lmozK33n4/Ki4jXf1PcRBbbuRgHjEPcobeu/n16Wd+qIcMn8o7+FtfQ+yVwfFT8gDrra4P9adlQOmNfl2BrN+1TxQuRma+8n+gFdigzLuPC6dTxl6sPK+voe5pbxPnRFxB7wi7+5bxjcLm3SIVQKn4Ff5z/x63tz7gNLQh0Der/KZgTV8ZmCNMnudhPs01/kHLh73mtcnNx3vvzDUQOUQ8HDTI8fyAd2Zj7HXK7DbK6gjhvGgf3xgFT8ublNnRNRfywd4Xe/9PKLqxxJwG6p9vKPvQT4ysJID+gpvpDVuL2/svZ8/qNDnSVvr9iqx0qMsqxxhwHdNa/bNx/svOMOMgpY08+ruqBzg1empujv/4QuDtn0Nlw/cUNjEEb/M69PTsbHUKRHQ51f4Sn4DN5X3qjMeh4VFux2nzYrTaSfptBK02fFj/5kgTQwLyFmDPysZy8G2LFLYWFgUqOL7/t9/SPNUqfo+Jar0eBUO+WV6vDJH/DKHvTJH/TJHvYq2N53A++ov5f3cXznMK1KTeW5qPPEhf4OURnHx+V5hCz8qbtM9Pox7/57KQZ6VHKfOODYnNsw+YGU9A5Wbgfc28wq3VQfYWc0zPpbRHXrMvSpiWDO/KO5gg9vHB7Pz6bAT6pAQu6dykC/k10X+LIoFjLRTjI9lGG9nmHDsP8fHMoy0kw0P2n3goFdkp1dgZzXPjmqeHV6endU8+7yiJniPkvddvlbYyK9LO3lVeiqXJEZh6SNLIK1ze/lCfp22r9docq5AZTDwvcO8XUY3HXvNH/d3aahSwGEg3cyrfG16Gi9NTdLTyuC+5Rf0/FV7XGus205ybXYBs51WdUbIHPXLfC2/MZKrKBYWk2IZZjutzI61MttpZYKdJWmZ8TW+gseOap71bh9rqj2sdXvZWh2gquAFgImxLP+WmsL5iZEKVwKi33f5bmGLEiHUkIPFz9rPo8VyIt0Pd1YOcG3/CtOa/W/Ad+sZqMDgqsrFzbzKOU4r/6/lVD2tDC7/f2RgpTqiDpKWzdsys7g0MUadEQI+Pn8s7eXrhY30+pVIXHOL5bDAaWeO08Ycp5WZsVYyVixU11j0q2yo9rHW7WVNtZeHK0foicj4PpF5ThuvSE3h1HinHvymvW/gz+W9fK2wkSNeWR1SY1dl53JJYnSk++Da/hUmZvyaAOw8fjBqeKCy1u1lt1dgrJ2O/MNq4P5EY5R8j08PrOG+yiHekZlFixVXpxhqQ7WP/8yvD322JAuLGbEcS+OdLHU6WBjvwAn5t/WUFWOB084Cp/3v//+2VQe4u3KQh9wjPFI5ihuxGlOr3B6u6l/OtFiOF6YmcnFilM7dNdBqt4cbCpuUnKOO7qwciHSg0utXTMz2tepEgpTB37LhmQ80fa3pFakp/Ft6SqQfVBefFx79K/3mZXwwTred4srsHBY7HeoMg/T5Fb5X2BrqbRftVoIzEyM4zRnB0niHAurHyPsuy9wjPFA5zD2Vg5HMGDQxluVfUpN4SmIkjg7d182maj/fKmwycQJpnKQV45dt55IM2QrxifplaQdfyW8wrdmf5gTPudfis8oqYG4zr3aUneL7bWdF+uDg/ZVDvK//YaQxLCxemJrAq1NTSVj6sQ+ysu/xm9JOflDcSl8IA/ms5XB2vIsLEiM5NT4i9KsmteLjs8rt5fbyfm6t7IvclpxOO8EzE+O4PDmWEXZSN0SNbK0O8KPiNm4p78PXOZSG+XBuIWfHuyJ57W/ovZ+N5iVmOBV4sFGBynXAtU0PzVqWsCTCX7i/kF/H/5R26W3VYGPtNG/NzOS0+Ah1RgAnoreXD3BDYRN7QlZbKGHZnOJ0cn5iJOfHuyP7JbFWPHxWu73cVN7DbeX9JtYiGDIHi3MTI3luchzzH7VlTk7OI+5Rflrczr2VgwpPmuDCxCg+kJ0XueteX+3jTb33m9bszcB0OLFHpRaBymxgTbOv+qmJ0VyZnRvJB9TH5yU9d3JYh/Sa5qx4F2/LzKTbTqkzAuChymG+VtjIpmp/qK5rZqyF56TGc358JGkFJ3VR9j3uqhzgN6VdkTtXMDGW5amJ0VySGE23VlmOy8XnzvIBfl7azhq3Vx3SRAnL5mdt55KNWPavTwys5mbzslZ+HLj6RP/Ltdoj8AiwoJlXnbJi/LTt3NBlsTkRq9we3t73INJcWcvhVempPCs5TttvmhSw31k5yI+K21gXokmDg805iS6emRjLUmVuaqgd1Ty/Le3i9+XdFPxqZK7bwmJpvIOnJkZzbryblILif7Czmuf35T38qbxHWbwC5N3ZOTw9Qpk5D3tlXtZzl4kJQpYAyxsdqHwQ+HCzr/xtmVk8O4KFf/5ffj03lnYiwTDKTvGy1GQuS45RwbUGBSi3lw/w3eIWtlUHQnNdI+wkz0yO5TnJ8bTpUHxT5X2XW8v7+VVpB1tDdI+diOSxbYbnJro5K94V2QQN/b7LXZUD/KG0hxXuUW3vCuLs1+ng0y1LInO9/13YzA+KW01r9npg1sn8H9RqFjUTWNfsqx9nZ/h22xmRmhy6+Lzk6B2RrxUQRDNiLbwmPU31C+o4efxTeS8/L+5gb4jOoEyJ5fjX1GTOS3QrjWzggmK4r3KI7xe3RHKrTwyLhU47Zye6OcXpYGIsG+rr7fEr3Fk+wF8rB1hWORK51NamsbD4YdtZkdiCXcHjZT13mbiidz2DixsND1QAlgGLm90DH8st4vQIHWy+q3KQa/of0RsqwBY67bwkNYnT4yM07ayBHdU8N5Z28qfyHvIh2o4zOZblJalJqnNhiJVuD98ubGa5eySyfdBlJ1nqdHJKvIMlTieddsLo66nis9btZZl7hIcqh1np9qiCvGH+Iz2Nl6Qmhf46f1fazefya42cEnGSZU1q+Wt4NfDRZvfAqfFOPpFbHJmH8iMDK/lLeb/eTgZNRFW/4OS5eNxTOcRvS7t4qHI4VFOHKbEcL05N5JLEKG0VNDRg+U5hM8siHLD8zWg7zVynldlOK3NibcxwcoF+1xX8Khurfax3+1juHuFh90ioPn5E0ZRYjm+0nh7qa/TxeU3vfWw3bxvqWmDOyf4f1fJXcTywFWj6qbtvtJ7OlFgu9A9k3nd5Uc8dlHwtR5uk207y7OR4Lk2MMf4LZL2tr/bxp9Iebi3vC932xsmxLP+ensZZ8S6FJyGw3D3CNwublP3pURxsJsUyTIplmRzLMjGWZUosy2g7TayBd72Hzz6vyK5qge3eABvcPjZU+9hezWvFJIS+1no600I8B7ylvI+PDawyselXAZ9sZqACcCPw7Gb3xOXJcbwjMyv0D6PBS3/C4H7vM+IjeEZyLGfER2i7zzG7vAJ/Le/n5vLeUB5cbrHivDI9hWcnxzV0sib15wO3l/fz9cJG9nlFdcgTsLEYYScYaacYZacYaafospO0WA45K06L5dBixclZDs6xgroxrL9n9azik/erVHyPElUKfpW8X+WoX+awV+aoV+aIX+aQV2KnV2B3taDzJRHyrOQ43h7SOaCHz2vNXE0pAxOAk94CVOtfyWcAv2t2byQsm++2nkVXyPPAv7Pvocjl+Q+rLjvJUxKjOC/ezRynNXJbgDZV+/9+aHVLyGqfPDowfXpyDP+enqYsXiFX8qv8pLSdnxS3acVbpMHSVowft50Typoqfy7v5eMDq01s+g+Blw/l/7DWsyGLwdRj05vdI89LjufNmZmhfRD3ekVe0XM3vpatQxm0nBvv5rxEN/Od9lB+de/3XZa7R3iwcpgHKodDVzn+sZY4Hbw5M5PJIc+SJP/ogFfiW4VN3Fzeqze1SAO9JTOT5ybHh+qaPHxe03svO6p5E5t/PvDXIAQqAFcCn2h2jyQsm++0nhXa6ro3FDbx4+I2vY1CLmM5LHLaWRrvZInTYexEt993Wev2ssI9ykPuYda5fZHYG95lJ3lbZhZnx7t0M0fYw+4RPjewll0hD8hFgmJiLMs3W88I1We+m8p7+aSZqylrgHkwtB/9eoxhF7ATaHqE8NzkeN4SwlWVCh7/cvQujvqqiBs1nXaCeU4bs2KtzIy1MMNppSVgy9tFv8p2L886t5e1bi+rqz3srOYj90X5gsRI3pGZFdkCefKPSr7H94pb+Glxuw5wizTAp1uWsMTpCM374zW997DXzLNvbwX+c6j/x/UKNn8I/EuzeyaOzXfbwreqYnBULXUw1k4zNZZjXCzDeDt97D8zdc0o5uJxwCux3yuy1yuyvZpnW3WAbdUB9nqFSE/DOu0E78jM1iqKPK7Vbg+fzq8xdfuGiDHOS3RzbXZBKK7l+8WtfLuw2cSm5xnMCjzk/O31ClTOB/4ShB4KY/aHt/c9yCq3R28heVJJy6bDStBpJ2m34nTYCdqsBBkrRtyySREjZdn/UOfAx2fgWB2BElX6PZc+v0K/79Lvu/T4FfZ5RQ57JX0TfhxaRZETodUVkfqLYfH9trON/1h90Cvxqt57KJpZ4+cbwOuG8w/Uc/veCmB+EG7Ur7WeHppDrJuq/by+9z69gUQCpM2K897sXM6Ij1BnyAlb6R7lYwOr2a9UxiJ18eLURF6Xnm70NXx8YDV/Lu81tfmnAA8N5x+oZ8nYzwWhh6r4fDm/PjQP3Y2lnXrziATILKeVr7SepiBFTtp8p52v6t4RqZvflHYZXSx4jdvLLeYGKbcMN0iB+laRXwX8G9DW7J7a6xWZ6bQwPpYx+oHr910+nV+Dq60CIk1nAc9PTuADuXm0aquXDFHSinFRYjStdpyHKof1dhepIRcfB5slcfMO1Vfxua5/BYfMTZz0BmDTcP+Req6oVIAvBaW3vpLfQMXwyrS/Lu00dY+iSKhkLIcPZOfzpsyMfzjjIzLUoPd5yfF8umVJXZNgiETRr0s76fNd49r9s+J21lf7TO32h4GbavEPxerc0EeA1wNNX8ro812ylsM8p83IES/6VT46sIoSqnIs0kwzYi18pmUJ8512dYbU1Cg7xcWJ0ayr9rJP51ZEaqKCR8qyWWRQquId1Twfy6+iau4a6xXAylr8Q/X+FDgAfDkovfb94lYOGPry/3Vpp9H7LEXC4Jx4N19oWcoYO63OkLrotBN8umUJlyfHqTNEauSXxZ3kDdmR4uPz2fxaSr6xH6Y3AD+v1T8Wa0CDlzG4qtL0X/YKHlu8AS5JjDaqWmnJr3L9wCqKaNuXSLM8PzmB92Rn41ja6iX1ZWNxZryLFjvOA5VD6hCRYSrjkbJiLDRgJfyXpZ38rrTb5O5+57G5vzGBSglIARcGoff2eAVGx1JMj7UYM+K/Lu3kjsoBvWlEmsACXpmewmvT07CM+sQhppvjtDImlubeyiHVWxEZpvXVXp6WGEPGcgLbxh3VPB8ZMHrL10YGD9HXbDko1qCGL2ew4Esg9ks87B7lksRosgG+Wf/+FcD3uD6/ioIO0Ys0XByb92Xn8pzkeHWGNMW0WI558TburhykrDOKIkNWwafHr3Buojuw872r+x829ojCMe84NuevmUYFKiUgAVwUjJvVY49X4CmJUYEf8V+XdnJ7Zb/eMCIN1mrF+WTLYk5TjQtpsjF2mjPjXdxdOUTewOxFIkGxpdrP0ngHI+1U4Nr2xcI67jV7q+c64I1Q2+WgRm62/iwQmGqFd1UO8qfynkCPeI9f4XvFLXqziDRYi+XwiZbFzDU0S6CEz+RYli+0LGW0EjmIDJkPfDm/AT9gW6tuK+8z/VwKwFVQ+8PUsQZegAvkgcuD0qMPukc4J95Ne0Dz1n+lsIFVbo/eLCIN1GbF+UzLUqPOsUk05CyHcxPd3Fk5SL9WVkSG5LBfZlQsHZh3/C4vzwf6V5he6+9e4D31+Icbnb7mBmB1UHq16Ff5yMBKSgE8/7Gx2scfSnsQkUYHKUuYGsupMySQRtopPteyRCmyRYYzGc1vCkTJhwHf5dr+FWHY0vluqM8yVazBF+IDe4CXBKVnj/oV9npFzkuMDNSIXz+wir0q+CXSMO1Wgs+0LGGKghQJuOyxlZW7tLIiMiRFquyqNveschWfawdWsNrtNb07fw18ul7/eKwJF7QWOBuYFpQe3lIdYFSAUhbfUt7Hz0s79CYRaZAOO8FnW5YwWUGKGBSsnJPo5q7KAQUrIkOww8szIZZp2sepL+TX8Zey8cmSysDzgbplAWhW5bIrGDyzEhhfyq9nXQCi2j6/wtcKG/UGEWmQjBXjY7lFTIpl1RlilFF2ik+1LKHdSqgzRIbg8/m17KjmG/53f1zcFobD8zCYKGt9Pf9ArEkXdgAYCZwelJ6u4nNn5QDnJUbSYsWbN+L5tazWAXqRhrCx+EBuPoudDnWGGKnFirPIaeeWyj5cFYUUOSkVfFa6R3laYgyO1ZiCvreX9/OF/PowdN9e4KUMliAJXaACcA/wGiATlB4v4bHMPcLFidEkrMYvNv2lvJ/vKB2xSMO8LTOLSxKj1RFitC47ydRYjtvK+xWqiJykI36ZvV6BcxMjqXeocnflINcPrMILx5P6RuD+ev8Rq8kX+R/A14PW84ucDj7ZsgingTvjdnsF3th7PwPaayzSEK9MT+GVqSnqCAmN/ynt4gv5deoIaTgHm9GxFGPtNF12klYrTs5yyFoO9rGppotHv+9yxCtzxC+z3yuyrTpAPiCZV1+emsyr01Pr9u8/UDnMNQOPUPa9MAz5X4ELoP4RV7MDFQv4M/CUoI3A05NjeFdmTkM6qOx7vK3vQTZW+/S2E2mAixOjuSo7t+kvQJFa+3phIz8tbldHSN0kLJvZsVZmO63MiLUw02lljJ36e0ByMnxgr1dgU7WfZZUjPOgeZmcTzoz8zRszM3hBckLN/937K4e4xvxaKX+ftgJLaFC5kSD8Ts8CHgaSQRuJy5JjuSIzu66d5AOfHFjNzeW9evuJNMBCp51PtSzBUZgiIeQD1/Wv4M7KAXWG1MzkWJbT4yNY6nSywGknWcft8Xu9IreV93FTeS/bqgMNv9bXpafz4tTEmv17IVtJAfgwcG2j/lgsABd86FiQcn7QRmJDtY/Dfokz4111m9J8o7CR35Z26S0o0gAddoJP5RaTsxx1hoSSBZwR7+KOygF6A1DQTsw1LZbjuanxvD0zi1ekp3BKvJOxsXTdD53nLIf5TjvPSY7nzEQXJd9jW3WgYac6HnQPc8gvcVp8xJBWiR7tL+X9XJ9fGaYgZQPwchqYuTconxRTDK6qzAziqDw/OYE3ZWbU/N/9SXEb3yhs0ttQpAFiWHy6ZQkLnXZ1hoTelmo/b+l7kFJA9v+LGVqsOE9NjOYZyTGBKn671yvwk+J2fl/ag9ug7VOnxDt5b2YOI+yhbfj5QXEr3y5sDlOCCx+4GLi1sb/dweACDwCvpnm1XZ7QmmovA7icGh9Rs8ju+8WtfKuwWW9FkQb5j/R0LmpiFWKRRuqwE4y2U9yhLWByAmY7rbwuPZ13Z2dzZryLDjtYtXlyVpwz411ckBjJbq/Abq9Q97+5xyvwx/Ie2q0EU50c1gnOAKv4fCG/jp+F76zYV479T0PFAtQBO4EWBqvWB84at5dt3gBnxbuIDWPZs4LH5/Nr+XlRledFGuWseBdvyczUqRSJlKmxHAf9EhuUqEUeh43FeYmRvDMzm1elpzIlliMW8Ldkmx3nksRopjstrHCP1j1jWBmPuyoHua2yn4wVY4ydIf4k53PWuL18Lr82DBXnH2sr8EIGD9I3VNDuyCTwIDAvqCO10GnnQ7mFtAxhj/uOap5P5Vezxu3VG1KkQcbZab7SehpZnUuRCCr7Hm/ve1DBijxq4mdxfqKbV6WmMiGWMfY6BnyXL+bXcUt5X8P+ZsKyWeR0MDWWY/SxTGcDvsuWaj8r3R72NGClpwl84FLgpubcr8FzJnAHwVrt+QcTYhk+nlvEaDt9Qv/9ol/ll6Ud/KC4lVJ4DlSJGPGD/PmWJczXuRSJsB3VPG/ou0+/PxFnY3FxYhT/mp7MODsTmuv6XWk3X8yvo6pyp/XyZeAtzfrjQQwGdh5r1wVBHbFev8Ktlf3ELIvRdpq09fjduMvLc2NpJx8fWM3dlYN6iEQa7CWpSTwjOVYdIZHWZseJY/Oge1idEVFL451cm1vAs5LjaLXiobq2GU4LY2JppeSujzXAi4CmpRAM6mZEB/gLAT2v8tgvFBNjGabEcmSOBSxHvQpbq/3sCucSoIgRJsQyfLXl9Lrm+xcxhY/PFX3LWOkeVWdEyN8OyUch2+GPi9u4QZlUa6kEnAUsa2YjgnxqagqwHGjVvSIiJ/di05YvkcfSFrDoaLXivCI9hecmx51wtqow+PjAav6sAtq18k7g881uRCzAHXSUwW1gz9e9IiInQ1u+RP5Zmx0noS1goRbD4rLkWD6cW8hipyNSQQrAqfFO7qwcpEfFTofrJpp4LsWUQAXgEWASsET3jIiciAmxDB/Izh9WGnGRsJrrtPKQe4QDXkmdETLTYjk+1rKYy5JjSVqxSPZB3LKZ67Txh9IenQoeuj3A04F+BSon5o/AM4ExundE5Hiuzs4zOuWmSD1ZWMx0WvldabcmciERw+IlqUm8PzePriFWUQ+TEXYSF58VOo81FFXgBQwuFASCCadMi8BLABUfEZEndXa8i1PjneoIkScxLZbj6Ul9+wuD6bEWvtJ6Gq9NT8NBiUP+5l/Tk5kUy6ojTt4HgJuD1CCT9ka8GPiJ7qFm3SgWHXacjOWQIUbO/sf0hiW/Sp/v0udX6PMquPpWJw3mYHND6+mM12qKyHEd9cv8W889DPiuOsPI953FC1MTeVV6igKUJ7DMPcJ7+papI07c74BnAV6w7nVz/JTBdMVv171U38ne1FiW6U4LM2MtjI9lGGWn6LZTOCcR1/b6FfZUC+zxCuz1imytDrCp2s/26oDqyUhdvDA1QUGKyAlqtxK8PDWZrxc2qjMMMzWW4z3ZOcyItagznsQSp4Oz413cVTmozji+zcArghakAMalg4gB/8PgIR+p4Uvv1HgnpzidLHDaSdSx7kQFjy3VAVa5PTziHmFFpYejflmDIMOedH2n7UyylqPOEDlBLh6v7b2PndW8OsMAFhYvTU3kVempxFCykBOxyyvwmp57cVFK7ifRz+BCwIpg3vfm6QTuA6bp3hq60XaKixOjuSQxuukHj7dVB7i3coj7K4dY4R7VtjE5ae/KzFY6YpEhuKtykGv6H1FHBFybFefK7FxOj49QZ5ykz+fX8r+l3eqIx+cDL2Vw11JAA3QzzQHuQcUgT9rSeCcvTk7klHhnIAc/77vcXznMreV93O8eUmEyOa5xdppvtZ2pL4wiQ/T2vgdZ5faoIwJqodPO1Vll9Bqq/V6RV/bcow44d08AAEsbSURBVFWVx/dh4NogN9DURNsHgQ3ACw0OthoajZ6X6Ob92fm8JDWRsbF0YDstbtlMjmW5MDGK5yUnMCmWpYzHHq+odRZ5XG/MzNBebZFh6LST3FLep44I4G/385MTuCo3j5y2tQ5Z1nI44BfZUO1TZ/yjG4E3QbCnVyZXBFoDVICLda89sVlOK1dn5/GS1CQ67YRRbY9bNlNjOS5OjOay5Fja7QR7vSJ9ylIjx4y0U7wzOwdb3ytEhmx8LMM9lYMc0nnBwGiz4lyTW8BzU+P1fquBKbEsvy7t0gfP/7OMwQxfga/8anrp0juA0cCpuuf+kYPFWzKzuCIzm9F2yvjryVgO8512npsazxynjR6/wh6voIGOuNelpzPb0Q5QkWFPjO0Et5X3qyMCYKHTzqdaljDD0UpxreSsOBur/ezwlDgC2M3gR34j0qHFQtDhfwLORIfr/67FivORloVcmBgZuu8wFhbjYhkuSYzmwsRIPGCbl1fK4wjqtpO8OztHZ1NEamBCLMudlQMc0apKUz0zOZYP5OZrq1cdjLCT/LG8J+rd0AdcwuDxCSOEIVDxgN8AzwO69NXA4VMtS5jvtIX+WtvsBGfGu7g8OY6UFWNztZ+yDstFxr+npzEvAve5SCNYQIvlcHvlgDqjCRws3pqZxb+lp2qrV52MslMKxuH5DO5GMkYsJB1fYjBt8VOifPdlLYfPtCxhZsQOFqesGIucDi5PjiN9LGApKWAJtVYrzlXZeTiWftBFamVSLMvN5X306xxgQ/1tF8QFiZHqjDrz8Lmvciiql78VeItpjbZDNAD3R/nhs7G4Ojsv0tmPcpbDy1OT+UHb2bw2PU3F/0LsackxJC1bHSFSQxYWl6keUUONszN8qeUUljgd6owGuCQxmqQVi+rlGzlPVqASEm/OzOAMFYICIG3FeGlqEt9tO4sXpCYQRxPasHlGYow6QaQOLkuO1TuzQU6Nd/Ll1lObXnQ5SrKWw7nxbgUqClSa4iCDy1qRc268m+ckx+sN9BhtVpw3pmfwzbYztKQeIkucDibFsuoIkTq9N89JdKsj6uwFyQl8LLdIh+ab4NLEaAUqClQ0CI3SZSd5Z3a23jxPYqyd5oPZ+Xwqt1gT3BC4PDlOnSBS12dM27/qN+myuCIzmzdmZujQfJMsjnfQbiWidtke8JACleZ7IGp33hWZ2bRacb15TsDSeCdfbT2N16ankY7uHlWjddgJzkl0qSNE6jmR06plXcSx+UB2Hs9UINj0YPH86K0argN6Fag0X6RWVM6Nd+tcyhB+KF6amsS3W8/kqYnR+p5lmEsTY3C0f16k7nQOrLZaLIdPtSzmfG1DDoQLE6OidsnGzo/DuKISiby0ScvmzZkZetsM0Qg7yZXZuXyuZSkT9eXQGBdH78dFpCkuSozG0qecmui2k3y+5RQWOO3qjIBY4LTRYUdq+5cClYDoA9ZH4Y57TnI83XZKb5thv6za+WrLabw0NUn7hQNunJ1hSiynjhBpgE47wVynVR0xTBNjWb7YcgqT9UEsUCysqO1IUaASIKE/p5K2Yrw4NVFvmhpJWDavTU/jiy2nKE1kgJ2vTEQiDXVeXM/ccMxxWvl8y1JG6qNiIJ0Zj8x5xwrwsAKV4Lgr7Hfcc5Pjo5ixoiE/Kl9tOY3nJydoy0MQJ03a2y3SUBckRupNOERnxbv4TG4JbUp2E1inOJ1RqRn0IFBUoBIct4X5bnOweLZqptRN0orxpswMvtCylPFaXQmM0XaKGbEWdYRIA3XbKWZq+9dJuzQxhutyC6JcAd0IaSvGgnh7FC7V6HlxGAOVtcDesN5tT0mMottO6g1TZ/OcNr7achrPTo7TF8UAOE9fdkWa8+xp+9dJuSw5lndnZxPTG8sIi6OR4OAvClSCxQduD+vdptWUxklZMd6WmcWHcgtpUfXgpjorrtopIs1wjgKVE/as5DiuyMzW1mGDLHE6w36JLnCnAhVFjw0xPpZhjpbhG+7seBdfaz1dfd8kSSumvhdpkgmxDF1axT+uF6Um8vbMLIUohpnltJAL94fIBxnMiKtAJWBuC+NFPV0FuJpmpJ3i8y2n8NLUJHVGg8132qJy4FEkkBaq/seTellqMq9PT1dHGDkJtsJe3+Y288conNYA+8J0QRZwkYrdNZWDxWvT0/hgdj4ZbQXTJEkkIhY5HeqEJ/DS1CT+PT1VHWGweU5bmC/P+B1GYQ1UfEK2/Wu206pc7AFxQWIk/9V6KtNUfLAhFmuSJNLkQEUfCx7Pq9JTeW16mjrCcHPDG6gYfz4lzIFKKKLIR9OBxmAZZ2f4fy2ncllyrDqjjpJWjFmO0hKLNNN4nVP5BxbwxvQM/jU1WZ0RAjNjLWHN0vYQ0KtAJbhuDdPFnK2sR4GTsGzemZnNWzMzlYqyThY4bTg6nyLSdNqC+X9ek57GC1IT1BEhkbJiTA3nDolQzIPDPANYA2wNw4WMsJNMjGX1Ngmo5yTH87HcorBnDmmKubE2dYJIAMxXoALAq9NTlVQlhGaHM7PkHxSoBN/vw3ARp4Q/z7f5YxTv5MutpzJB1exraqqjc0AiQTBFH8t4YWoiL9d2r3D+1oRvRaWXEJxPUaBiiCVxHSY2wTg7wxdaTtEWCU2OREL4LOYivcH1ecnxvEEpiENreix0ZyFvAioKVILvFqBo+kWEPHVeqLRZcT7Vslg1b2ogadmMsdPqCJEAyFkOXRHNPPn05BjelJmpmyDEpsZy2OEKxX8flgsJe6AyANxu8gW0WnFN1gzjYPPu7BzenJmJpUP2QzbJzobth0PE8Mlc9FY4L02M4V2Z2XoThVzSshkXC81cyyck51OiEKgYH1XOcVr1gjTU85LjuTY3n4SlrFVDmxTpfIpIkEyJ2DN5XqKbd2Zn64NTREyyQxOILwd2KVAxx+9MbvyMmGpImOzceDcfyy0iY8XUGZoUiRj+TEZnReWceDcfyM5X6vkICVF21d+HaVyiEKisBzZqsibNstjp4DMtS2mz4uqMkzBeGdREAmVCRAKVxU4HH8jNU5ASud+c0Gz9UqBiIGNXVSYp61EozIy18IWWUxgZ0cOoQ6FK2CLBMsJKhP4ap8ZyXJdbQFyFZqMXiIdj69dh4B4FKub5tYmNdrDCFOHrJRjL8IWWpaq1okBFxEgddiLUCS7G2Wk+mVus4r0RFZJV/N8ArgIV89wOHDCt0SPtFI6+6oTKSDvFl1pOYU44q+DWMEi3adVWOZGATRgsOuxwrqq0WXE+mlsU2uuT42uxHLLmB6m/Ct97Jxqqx6JMo4zWakpIX4ZxPpVbwinxTnXGExhhJ7Q7XCSAwrjSmbEcPtmyWOfihFFmb8/uZ7DQowIVQ/3SuEBF5xlCK23F+Eh2IWfER6gzIjIZEgmDsJ1TcbC5Njs/jJXJJXqByu+AggIVc/0Z6NEDI0GRsGyuyy3gdAUr/zwZUqAiomezziws3pedq9VtCcu861dhHJMoBSol4H+N+kGwNFkLuzg2H84t0MrKY+h8ikgwhSnN+tsyM7kgMVKDKn9ncGbOEobXDVSgYmC02W5rshYFDjbXZBewxOlQZxyTVBIJkUBKWOF4Nl+emsyzkuM0oPIPOs1NpnAz0KtAxXy/A/LGBCqWso9EZmJu2VyfW6hg5Zi4pUBFJJCBSgimDefEu3lVeooGU8I07/pVWMckarOBPAZV7GzTikrEgpUYH8ktZKHTrsmQVlREgvlsWjGj2z8pluXK7Bws5RWUx2FoeuoKcKMClfD4kTETV2JItKSsGB/LLYp8sKIVFZGABioGTxtarTgfyS0ko4KO8kSBipkrKn8CDipQCY//BY4a8YOgyZqCFU2GRES/S8MWw+K63ALG2qpPJk8SzNpxE9fafhjmMYnibKCIIXv54pqsRTpYuT63kGmxXCSvXysqIgpUauk16WnaVivH5WCRMmt7Yx4DC5orUDk+I7Z/xS3toY2yjOXwsdyiSBb+jGn/uIiezRo5M97Fi1ITNXhywr+9Bvk1gxXpFaiEzJ+B3UGP6m1N1iJvhJ3kky1LIpcBroKnwRcJoLJv1rM5yk7x3uwc/ZrKCcuaFaj8KOzjEdVAxQN+FuQGauuL/M04O831uYWmLUdHajIkEpln06CPCHFsrs0tUAFZOclAxZjf2sMMHqRXoBJSgT58pPMp8miznVY+mJ0fmS1RWlERCeizadBHhFenpzIz1qJBk5MMVIxZUfkJUFagEl73AesDG6hoRUUe44z4CN6RmRWJUKWiFRWRQDJlRWWh086LUhM0YHLSDMo6+aMojEfUZ8M/1iMpJnlGciyvSk/VZEhEmvNsGvARIWc5XJWdq6KOMiSOGR+KdwB3KlAJv8BGo66+KMsTeHlqMs9PhvtLoVZURAIaqBjwEeEdmVmMjGC2RKlRoGJGgPtDiMYXvagHKmuBhwI5UcPX20Ke0Bsy0zktPiK011fUiopIIJX8aqDbd0liNBcmRmmgZBiBihFT4x9GZTx0ECKgg+1qoiZP+uBaXJ2dx7iQVlk+7JU0yCKBfDaDe3a3zYrzxswMDZIML1AJfg27NcAjClSi40dA4D4RVXwPX6sq8iRaLIfrcgtCmbb4oAIVkUA65Af32XxHZjZtSkUsw2TAxq/vR2k8FKgMFn68PWiN8oGBgC+xS/NNieV4TyZ8xcwOeWUNrkgABfUjwoWJUZyX6NYASU3mXwFv3o+iNB4KVAYFctDzvquRkeO6IDGS5yTHh+qaevyytj+KBNChAAYqbVact2jLl9SI5wc6VLkb2KJAJXp+DgTu7TugQEVO0Osz05kRosJmPsHeCy8SRSXfoy+Av0v/kZlOu5XQAEltApVgN+9HURsPBSqDjgC/C1qj+hSoyAmKY/P+7DzSITqvonMqIsESxPMp8512Lk2M0eBIDQOVwK6ouMDPFKhE1w+C1qCj+qIsJ2F8LMPbM7NCcz0HFKiIBErQPh44WLwjM0tlHaWmqsENVP4A7FOgEl2/BQ4HqUFHfAUqcnLCVENgmzegARUJkK3VYD2TL0xNZHIsq4GRmioEN5HRD6I4HgpU/k8Z+EWgAhWtqMgQvCMzi247afx1bKn2azBF9Ew+rm47xStSkzUoUnPFYAYqAwx+UFegEnGBilYPa0VFhiBnObwrBCmLt1S1oiISJJsDFKi8Lj2NZAhrSEnzFQhkoPLzY8GKApWIux3YGpTGHNIefRmiU+OdPCM51uhr2F0tUFItIZFA8IFtAfl4MNdpC80WVwmegK6o/CCq46FA5Z/fxT8OSmP2eEWNiAzZG9LTjd4C5uGzzctrIEUCYL9XpD8AmSgtLN6cnqED9BKlQGUPcIsCFfmb7wWlIfu8QtArpEqAZSyHd2RmG30NOqciomfx0Z6WGM0sp1UDInXT41eC1qQfApHdXqBA5Z+tBpYHoSEl31OKYhmWM+IjODfebWz7N7kKVEQC8SwGIFBJWjFenZ6qwZC6KfteEFdUfhDlMVGgEvCbYo9X0GjIsLw1M5Os5RjZ9kfcoxpAkQBYEYBn8fnJ8XSFIKOhBFdP8JIYrQGWKVCRxwrMMtsO7dGXYRphJ439Crmp2k9v8JbhRSKlis9qt6epbWixHF6cmqjBkDoHKoH7vfle1MdEgcrj2w3cGohApapARYbv2clxTIvljGu3j8/KJk+QRKJurdtLvsnbYf4lNZkWK67BkLrq9QIVqAQqwZMCleAJxPav7aolITV50C3emplpZKach90jGkCRCD+DXXaS5yTHayCk7g76gSoL8Vdgi+Yv8kR+ATR9OUNbv6RW5jvtXGBg7YGHK0c1eCJN1OyzYq9ITSFpaboi9XcgWPXrfqARUaDyZPqA3zS7EburBcq+p9GQmnh9ejopw6o565yKSPM0+3zKSDvFpcnRGghpiP3BqV9XZvCDuQIVdUGwo9kqPls9bf+S2ui2k7wgOcGoNvv4LKto+5dIM6xye5p6PuXlqck4mqpIwwKVwKyo/A9wSCOiQOV4/gQ0vRTvRrdPIyE189LUJDrshFFtvqNyQAMn0gS3l/c37W9rNUUaH6gEZkXl9xoNBSonokwADjJtqCpQkdpJWzFenppsVJvvqRykpC2QIg3lA3dWDjbt778sNUmrKdLQ+z1AgcpajYgClRO1rtkN2KhARWrs8uQ4xtkZY9pb8Ks86B7WwIk00Gq3hwNNmrh12UmenhyjQZCGOeiVKASnKr0CFQUq5gQqm6v9uPgaCakZB4tXpacY1ea/NnELikgU/bWJWy5fkJyg1RRpqJ3BybJ6GDioEVGgYkygUvI9NumcitTYhYmRTDWoCOTdlYO4aPuXSKPcWW5OoJK1HC5LjtUASEMFqMC2VlMUqJgVqACsrvZqJKSmLCyjzqr0+y4PKfuXSEOsr/axxys05W8/NzmerOVoEKTBgUpgMqyu02goUDEvUGliHnsJr/MTI5lm0KrKTeW9GjSRBvhTaU9T/m7SsnmuqtBLMwKV4Gz9UqCiQOWk7AOOKlCRMLKAVxp0VuWv5QMc9csaOJE6Kvkef27SR4GLE6ONS58u4bCp2h+UpmjrlwKVk7am6dGSV2RvcNLmSYicHe9mcixrRFtdPP7QpC+9IlFxS3kvfX5zSohpNUWa4aBX4ogXmI9gazQiClRO1oNBaMRyV/vzpfYs4CWpSca0939Lu/GVBU+kbv6nvLspf3dpvNOoBB8SHgEqA9ELbNSIKFAxMlB5WAeJpU6ekhjFKDtlRFv3eAUe1LMgUhebqv2sc5uTvOV5Wk2RJglQYe0HQektFaicvAeC0IiHtKIideJg8cLURGPa+z+lXRo0kTr4TWlnU/7uWDvNmfERGgBpToDuBuZ8ygMaDQUqQ7EGaHreukNeKUh5viVkLkuModWKG9HWuysH2a8zWyI11e+73Fre15S//azkOCwsDYI0Z5IXnBIQD2o0FKgMRRVYHoSG3O8e0mhIXSStmDFF1qr4/LS4XYMmUkO/LO0g71cb/ncdbJ6WHKMBkKbY7RU45JUUqChQMV4gluPuqyhQkfp5bnI8jiFfNX9X3h2kHxcRoxX8KjcWm7Pt6/xEN22GrOZK+KwKTvmHI8AmjYgCFaOj3IcrRyk04YuXREOXneScRLcRbS37Hj8r7dCgidTAr0s76fErTfnblyfHaQCkaVa6R4M0z1RKSwUqQ3ZfEBpRwVOaYqmr5yUnGNPW35Z2qQCkyDCV/Cq/KDYn6J8Qy7DAadcgSBMDlcCsqOggvQKVYVkH7A5CQ+7V9i+po/lOG9MMqWVQ8qv8vKhVFRFTA/7LEmN1hF6a5qhfZnt1ICjNuU0jokBluG4PQiPurBzA0+qg1HPyYMihehhMp9rXpC0rIqYr+R4/LTUnMUUMi4sTozUI0jT3Vw4HZTblAndpRBSoDNetQWjEEa/M6uAsVUoIXZIYTcqKGdHWvF/lu4UtGjSRIfhZaTuHveasppwa76TTTmgQpGkeqBwOSlPuA/o0IgpUhuu2oDTkr+UDGg2pm6zlcGF8pDHt/U1pF1uDs3wvYoSDXokfF7c17e8/Vasp0kQ+Pg8GJ1C5VSOiQKUW1gOBKIl9R+WANn9JXZm0/auKz5fz6zVoIifhhsImik3KIpmxHM6Kd2sQpHkTOrcvSMlYFKgoUKmZ24LQiH1ekfVur0ZD6mau08aEWMaY9i5zj3BP5aAGTuREJmnVPv7cpCr0ABckRpK0NAWR5rkvOAW0y8DdGhEFKqEKVABuqezTaEhdXWLY1oyv5DdQwdPAiTwJ/9iz4jdxXf6ixCgNhDRVgLbQ3wPkNSIKVGrlT0FpyK3lfcr+JXUPVCyDkofu9gr8uknVtUVMcUt5b1OL3LVZcRaqdoo00S4vz+Zqf1Cac7NGRIFKLW0HlgehIYe9MssqKv4o9TPKTrHAaTOqzd8pbmG3V9DgiTyOHr/CVwsbm9qGCxIjial6ijTRX8r7g9ScGzUiClRq7beBCcPLezUaUlembf8q+lU+N7BWa40ij+NL+XUc8Zp7gPhCbfuSJgvQtq/twAqNiAKV0AYqd1YOUGpS1haJhnMT3TiGff1c7h7hNyVtARN5tLsqB5v+JbnTTjDfsFVaCZfdXoEN1cCULLkR9F1NgUrtPQAEYhaU96vcXlFNFamfVivO4niHce3+emETu7QFTAQY3PL1+fzaprfjnHg3trZ9SRP9qbQnSM35rUZEgUo9+MD/BqUxvyvt1ohIXZ1vUPHHvyn5VT41sLqpmY1EguKLAdjyBXBmvEuDIU2cvPncFJwt8/3A7RoVBSqhj4JXuEfZpqrcUkfnJrqNPPy6yu3hxtIuDaBE2q3lfdwegMPDKSvGEqdDAyJN81DlCPu8YlCa8zugpFFRoFIvtxyLhgPhD+U9GhGpm1YrzqK4mROMr+U3sj44+5FFGmqXV+AL+XWBaMupTicJFXmUJvpjWdu+FKhER4EApZT7U2kPrgrdSR2dGR9hZLsreHyofwW9fkWDKJFS9j0+0r+SAd8NRHvOSmjblzRPn+9yZ3DO9BYVqChQaYQfBKUhPX6F24KVF1xC5iyD95bv84p8UudVJGK+lF/HxoCsJlrA6c4IDYo0ze9Luyn5gfmgeyPQo1FRoFJvNwH7gtKYXxZ3aESkbsbYaSbGssa2/97KIX5c3K6BlEj4XWl3oLYET4u10GEnNDDSFB4+vwnWecUfaFQUqDSCC/wsKI1ZX+1jjdurUZG6OcvwjD3fKmzmwcphDaSE2qZqP18urA9Um06Nd2pgpGn+Wj7A3uCkqz8M/FGjokClUX4YpMb8WkXupI5ON3yy4ePzifzqIGV9EampHr/Cdf0rgrTFBYBTFKhIE/2yFKgdJz8ByhoVBSqNcjewISiN+Ut5P4c93f9SH3OdNpJWzOhrOOKVeV//w/TpcL2ETMn3uKb/EfYErNBpyoqpGr00zVq3l1VuoI6DaNuXApWG+3FQGuLiaVVF6iaOzYIQTDi2Vwe4pn8FZV+Z8iQcPHw+PrAqaBMyABY47cQ13ZBmRQXFrUFqzlbgLo2KApVGuwGoBqUxN5Z2BiYdpYRPWAq2rXCP8sm8MoFJOHwlv4E7gpN69R8sdNo1QNIUG6p93FM5GKQmfRP0o6NApfG2A38KSmMGfJfflXZrVKQuloZor/lfyvv5RmGTBlWM9qPitkCvpC/4/+3deZgdVZ3/8XfdukuvSXdn3xOQBIkB2QQ3RAUUdxxxXBF/6ozOiOg46uCCiqi4K4oiCDKAoIAgOwICYYckJGTft06nO713375brb8/qsMECZCll1o+r+epJxHxsep7quqeb51zvkfTvmSU/G9pS5iyAge4Uq2iRGW0XBqmk7m50qwNIGVYvMKso9ZIx+Z6bihv5xZNl5SI+ofVxpUhTrazRoq55hg1lIy4DW6ep8I1mvI3QF+RlaiMmjuBbWE5mQ6vwj+sXWoVGXIGBkfE7Avpb4vruVXJikTMw1Y7PymsCfU8ksPNMWQNdTVk5F1V2hy2Z+NStYoSldHkEsw9DI3rSttwNRVShsH8mCUqPvAbJSsSsSTlB4VVOCF/xy/Q+hQZBUvsbp6yu8J0SpuAB9QySlRG2+VAaGqetnhFHtSoiihR2a9kRVXzJApJyvcjkKQAHJ7WtC8ZWR4+l5Y2hu20focW0StRCYE24NYwndC15a14ejZkqDsf5hhMjFgmK5coWZEQWziYpERltHye1qfICLuzspMt7kCYTqkEXKWWUaISFj8J08nscItaqyJDrtowmWnWxvLalKxIWD1o7eIHEUpSJqWqaEpl1XAyYoq+w9XlLWE7rauALrWOEpWweBp4JEwndG1pi9aqyJA7zKyP7bXtngb22+IGPTkSCndVdnJRYXWk3uXzNO1LRtgfS5vp8awwnZIL/EIto0QlbEI1qtLilbi30qpWkaFNVNL1sb/GmyvN/LiwWqW+ZVST5qvLW/h5cW3kPjjNNevVgDJi1jj9/K3SErqfEWCDWkeJStjcAawK0wldVd5CxXfVMjJ0iYpZl4jrvM9q47z8swz4jhpdRpSNxw8Kq7i6tCWS539oQt4RMvocPH5WXIMfvmT+52odJSph5Ift5uzyKtrUToa4E1KPEcMF9Xuz1Onhi/kl7PLKangZEf2+zVfyyyJduXGOEhUZIX8qbWOrWwjbaT0IPKnWUaISVtcAzWE6oT+Xt9Hv22oZGRLVhsnEVC4x17vVLfCF/BI2uHk1vgyrZrfIOf2LWen0RvYa6o004xP0fpDRfTdfX94WxlP7iVpHiUqY2cAvw3RCA77Dn8P5MEtEzTBrEnW9XV6Fc/NLNDopw+Zxu5Nz8otp8UqRvg6NpshIsHyPHxZWhXEd4TLgHrWQEpWw+y0QqpVdt5R3sClc9cUlwmbFtETxy/0wXlJcz0WF1ZS17kuGiIvPH0qb+PbA8lish0riu0FG3qWlDWHt05yPNnhUohIBZeCiMJ2QjccFAyspqoMlQ2BmKrmdkfutNj6XXxTGedESMR1ehf/KP8Ofy9ti07OZnqpRw8qwetLu5PbwVfkCWEJQVEmUqETCZUCoSra0eEV+V1K1PBmCzohZnejrb3aLnJNfHOkFzzK6ljo9/Ed+Eaucvlhd19SEvxtk+JP7HxfWhDWx/wYaTRkypkIw7FygCLw7TCe10c0z3azRPGI5aDcnfL2Gg88jdgedfoWj0g1kDH3/kZdn+R5XlDfxq+J6SjEc4f5Y1WwatCu9DEunyuebA8tp9ophPL3HBhMVGSL6RR0ZVwLrwnZSFxfX0aZyq3IQxqeqSCWkRPHLuauyk7P7n+QJu1PBkJe0xunn3/NPc0N5exj3fThoBgaTUxpRkWHqUJU2h7ki3rfUQkpUovkBAC4M20kN+A4XFlbiaIRSDlAag3EqQfqcbs/iWwPL+V5hJXltECn/xPI9/lDaxLn5JTS7xdhe5/hUlpxGFmUYPGV3cUN4q5f+g2DvFBlCmvo1clYApwPTwnRSnV4FC49jM01qITkgj9odtGtk7nm2uQXus1qZZtYkroSz7N0ap5/zCst43O6M/aehWWYt78hNVaPLkOrwypw38Czl8JUiBvCAfwVa1VJDS588Ro4PfJEQLrC6sbydhVa7WkgOyDjNQ9+rbs/i2wPL+WlhDT2epYAk1IDv8NvihtiPojzvnWBolFWGlovPhYVV9IV30+orCKp9yRDTiMrI2gEcAcwP24ktcrp4XWaCFj/KfnvW6WGddmt/URvdAW63WnDwOSI9FlNrehLBx+d+axffGljOUqcnURNsj8k08ZrMON0EMmQuL23iofB+UM0D/wJok7phoBGVkfffBFXAQqXku3ynsIKC5tXLfmowlNy+nLLvcnVpC5/ue0qjlwmw3Onls/2L+FFhNb1+8kbTGvXBS4bQY3YHN5W3h/kUL0RTvoaNRlRGXj9QB7wxdCfm22x3C5ycnaRvvrLPtnoFnra7FIh9kPcdHrbbWeH0cli6Xh26mOnwKvymuJ5LSxvo9pM73e+t2Ukclq7XDSEH//viFvjmwLPY4R2T3AycRVA0SZSoxMbTwCcHE5ZQafaKZAyDBekGtZLsk1avxCN2hwKxH9q8MndVdtLuV5hj1lJvZBSUCOvyKlxV2sKPi6vZoGmQvC03hZlmrW4MOSh53+ar+aVhT/o/Q1AsSYZJWiEYnecP+C/gujCe3B9Lm5mcquYt2UlqKXlZVYa+dxwIF5+7Kzu5p9LKSdkJnF11iCqERUyPZ/HXSjO3VJqp+J4CMqjWUNdCDo6Hzw8Kq2nxSmE+zb8Df1VrKVGJq+uBjwLvDNuJ+cDPimuYkqrmlekxailRojKsz5vPQqudh60OJSwR0e6VuanczB1WC5YSlBeoU6IiB+l3xQ0sCveU4hLwH2opJSpx95/AyUDoxsgrvse3C8v5df1xTEpVqaXkxRMVzSAd0oTlEauDk7MT+UDVTOaamucfJlvdAjdXmrm30oaDEpQXoxEVORj3WW3cUtkR9tP8LsH6FBlm6mGMrj6CAYy3hvJzge+y1OnhlOwkMtplWF7EgG9ze6VFgRiyhAW2uAXurOzkSbsTMJhl1pDWMzhqCeRTdhcXl9ZzWWkjG9w8XqKKDe+/D1fNplojrXIAVji9XDCwMuzP2ErgbNDXipGg4k6jLw0sBo4K6wm+JjOO79Udqf0fZK+2ugU+3f+UAjGM6ow0p2Wn8P6q6UxOVSsgI6DHs/i71cptlRbavbICsh9ubngjY1QgQvbTdrfAuflnyId3U0cGk5M3Ao+rxUaGPnmE46ZfTlAFLJSZQItXos0r8/rseAwlK/JPen2b2zSiMqwsPNa4/fyt0sIGN0/GSDE5VY1p6HkcSg4+i+xuripv4RfFdSx2urW31AH4SNVsshoBlP3Q7Vl8eWBpFMp6Xzp4yAjRRNJweBz4OcFmkKF0v9VGnZHm8zVz1VryPL6mwYwYD5/H7U4etzvJGSYnZsZxanYyx2WaSGv/3gO+f1c5/TxstfOAtSuRGzQONY2+y/4o+i5fH3iWXeEfudwCfE0tpkQlqb4JvA1YENYT/FtlB42pLB+tmq3Wkj06ejIaKr7LQqudhVY7Y4wMJ2Un8ubsRBakG0ipo/iy9+wap48HrV0stNvp9pScDGmiopE+2UcOPt8trGBj+Pcf8ghmvmijJCUqye13AJ8AngJCO7n3j6XNVBsm78/NUIvJcz80Mrr6fZs7Ki3cUWmh2jB5dbqREzPjOT7TxERV7QOgz7dZZvfwjNPNU3YXnV5FQRkmru+TUa4i+/DB4GeFNSyxu6Nwuj8HFqrVlKgk3VLgB8C3w3ySvytupMnIcrI2hBSgqDn8oVLyXZ6wO3nC7gRgjlnH8Zkmjks38ap0Q2LWDjj4rHb6WGx3s9juYoM7oGmKI8TGU9lyeVmXlzZyn9UWhVNdA5yvFlOiIoELgXcAx4f1BP3BHWM90O71QtF3FYQQ2+IOsMUd4Aa2Y2Iww6zhMLOeV6UbeFV6LDPNmlgUyej2LNa7/ax386x0+ljl9FHRvTkqLN9TTVF5SVeUNnFDeXsUTtUhmO1SUqspUZHnPxSLCOFGkLt5+FxUWA1KVhKvpBGVyHDx2eoW2OoWnvuSWW+kmZcewzxzDLPMWqabNUxP1VAT0n0wKr7LDq/EDrfINq/AOqeftU4/feEuaZootraXkJdwbXkr15e3ReV0vzvYHxMlKrKHNcA5wJVhPkkPnx8VVmNi8KbsRLVaQuWVqES+/YLpUc+fJz4+lWN6qmYwcalmilnNWCNLYypLk5Edtg39Kr5Lj2/R7Vn0+jbtXpntbuG55KTDK2sCV+g/XmgkS/bupvJ2ripFZkP3h4AfqtWUqMje/RF4M/DxMJ+ki8/3C6tw8TWyklBalBzfdu30Kixzevb63+cMk0YjS1MqS4ORIWOkqMbENAxymGSNFGkMqgYTGsv3sPCwfY8yLi4+Jd/F8X16fYtez6LLtyirkxt5vRrdkr24vdLC70sbo3K67cBHAb2QlKjIS/gcwVqVw8N8krtHVkDTwJKoS4lKIlV8lza/RJunqdvyfH0q9yx7SVIuLq6PymioR/CReKdabvRph7BwKwAfJAKLuFx8flhYxU3RWBwnQ0gjKiKyJ42oyJ5uKG/n4uK6KFXd+zFwr1ouHFQ/MPzagW7gnVE42cVONz7w6kyjWi4h/lTeRl4dExEZNNes12+AAHB1aQtXljdH6ZQfA84GVYRQoiL71f8HpgPHROFklzu99PgWJ2TGxaLsqbw4G4/LShu1uFlEnjMxVcUbshMUiATzgctKG6NU3QugDTgN6FULhoemfkXH54Gno3Kyt1da+H5htcpUxtwOt4irNEVE9tDiFRWERCcpPhcX13FjtKaC28CZQItaUImKHJgK8D4itLjrIWsXX84vpdfXwsq42u6qQyIiz7fTVYGFpLLx+H5hNbdXItff/0/gUbWgEhU5OK2DGX9kev6rnT7O6V/Cdreg1ouhjW5eQRCR5+nzbQraXylx+n2b/84v5SFrV9RO/XfA5WpBJSoyNB4HvhSp7Mor8fn8Yp6yu9R6MbPS6VMQROQFNrkDCkKCtHklzs0vYVX0fhMeBb6oFgwvLaaPpkVAI3BiVE7Yxmeh1U5DKsu89Bi1YAw4+FxSWq81KiLyArPNWuanxyoQCbDO6ecrA8vY5ZWjduqbCRbP96sVlajI0LsXOIqQbwa5Jx94yu6izStzXGYcaUMVwaL945SP4jxkERkB9akMJ2UnKhAx97DVzrcLKxiI3lS/buAtgDZ/CzlN/YouD/gIEaoE9lyGZbXyhfxidmpH60hb5Ggqn4js3TpHH6njzMfnytJmvldYSdl3o3b6uyt8rVNLKlGR4VUiqAQWuS8Cm9wBPtu/iEftDrViRD1pdSoIIrJXrV6JVn2MiqWi7/KdgZVcV94axYm/PvAp4AG1pBIVGaHfA+BdRHCDoqLv8N2BFfyhtAlH6xwipcursEEVv0TkJSy2uxWEmGnxinw+v5jHovuR8XzgGrWkEhUZWSuA04HI1QD2gT+Xt3Fufok2CYuQR+wOpZYi8pIWqdJjrCy02vlc/+IobzdwCXChWjJatJg+PnYQVAP7IJCO2sl3eRXutnZSY6R5paqChd4vi+vo1kaeIvJS73W/wvtzM1U4JeIs3+M3pfVcXtqEjRfVy/gT8G+gb2xKVGQ0bQY2AWcAkftlcPFZZHex1StwdKaRnKHbM4w2uHmuKW9RIETkJdn4zDFrmWPWKRgR1ewWOW9gGU9Ge3TsDoLiQ65aVImKjL6VQA/BVLBI2uYW+HuljUmpKmabtWrRkLm2vJX1Wp8iIvvAwuOt2ckKRATdZ7VxfmE57V4lypfxCPBeoKIWVaIi4fE0MECwkVEklXF52G5nvZtnQbqBWiOtVg2BHs/iJ8U12uRRRPZJm1fmnblpVGuEPDL6fJufFNfwp/LWqBe6eQZ4B6Ava0pUJISeIFhcf1qUL2KHV+Req5XGVJZDzXo003l0XV3ewnKnV4EQkX3iA9WGyVGZRgUjAp6yu/j6wLOsif4+OEuBUwlmmIgSFQmpxwn2Wjk1yhdh4fG43ckyp4fD0vU0pbJq2VHQ61tcVFitUtIisl82uwXem5tOxlCh0bAa8B0uKa3n0tJGSn7kl3IsG+z3qD62EhWJgMcIylC/KeoX0u6VubOyk1avxIJMA1WaSjCifl1czzpXu02LyP6x8GgwshyRHqtghNAjVgffKDwbl9HyZ4FTANXGVqIiEfIQQRWwk+NwMZvdAf5eaaXeyHBoug5DE8KG3Qqnl9+WNigQInJAtngF3pmbplGVENnplfhhYTXXlbfGYRQFgjUppylJUaIi0U1WugiqgUW+Z1/B4wm7k0fsDiakqphh1qiFh4nle5xfWE6vbysYInJASr6LBxybaVIwRpmDz62VFi4orGRbdDdv/GeLgLcpSVGiItH2NNAKvDMOyQpAr2/zoLWLRU4X080aJqWq1MpD7OLSOhbZmuorIgdnnZPnpOwExmqd4ej15u0uvlVYzj+stjitN3yI4CNsn1pYiYpE3xJgPUFd8di0f6dX4e9WKxvdPNPMGsalcmrpIfCAtYsrS5sVCBE5aB4+m9wCp+Ymk9KU3RG1yR3gR8XVXFPeSn+8RsfvGOzPFNXKSlQkPlYCywcf7kycLqzZK3JnZSdr3H4mp6qZqBGWA7ba6eOCwkpV+RKRIdPulfGBo1WueER0ehV+X9rIL4vr2OmV4nZ5VxPsOG+ppeNLnzSS7QTgdmBCXC/wqHQjH66axbGZJt3s+2GTO8B/558h7zsKhogMccfD4Id1R3Gc1qsMmz7f5sbydm6p7KASj4Xy/+xi4IugL2lKVCTuDgXuAV4R54ucYdbw/twMTs1OVlnjl7HZHeBrA8vo8fSRSkSGR62R5mf1R/MKs17BGOIE5dbKDv5abqYQzw9NLnAucIlaW4mKJMdk4E7gmLhfaL2R5vTcVN6Zm8q0lCqF/bOn7C6+X1hJMZ5f4EQkRBpTWX5Zf4zexUOg17e4obyd2yotlOP7/q4AZwE3qMWVqEjy1AN/Bt6RlBt/QbqB03NTOSkzgVzCR1kcPG4qN3NlaTOeRtJFZIRMTFVxQd0CjawcoK1ugZsrzfzDaqPie3G+1F3AGcATanUlKpJcJvB94GtJuugaI83J2Ym8OTuJo9INiapG4wMPW+1cWdpES/wWWopIBKQx+Ej1bD5WNVvVwPbRSqePv5S38aTdmYRPSyuA9wBb1fJKVEQAPgX8FkhcsfsxRoYTMuN4U3Yix2fGYcb0EXHweczq4C/lbax387rjRWTUHZEeyzk1czlMoyt71etb3Fdp4y5rJ81uYqrx3g18COjXHaBERWRPJwM3AeOSGoAGI8vxmSZOyIzj2Mw46o105K9pl1fmXquVuyqtdHhl3eWyX6oNMzhIU2uY1Bppqg2TjJHap/99DpOM8X8/O3VG5gU/QrbvUcbFh+cWAxd8Bw+o+C4DvkO/b5P3bJXOjqEUBu/MTeXs6kMYa2QSHw8fn8V2N3dZO3nC6iJ4EhLjx8B5kKyLFiUqsu9mDCYrr9GPp8ER6bEck25kQaaBI8wxkVnX0u1ZPGF3stBuZ6ndg6/OneyRjDekMoxP5Wg0sjSlcjSlsjQaWcancow1MtQYJlVGOpSJetF3yfs2/b5Nv2cP/t2h26vQ7lXo8Mp0+MGfMZ+/HztVhsm7c9P4YG4mjQnbyd4H1jr9LLTbWWjtosOrJK35S8BnCfZJESUqIi/9ewH8hmA6mAxKYzAvPYb56bHMM8dwWLqeKanqUDxQFd9jrdvHs04vi+1u1jj9Sk4SqsZIMzVVzVSzOvhzj783pbKkSSUmFn2+TYdXpt2r0O6VaffKbHeLNLsF2rzdYzgSNjnD5JTsJN6Tm86hZl2sk5MNbp6HrF08bLXTltwR743A+wnWpYgoUZF99m/Ar0ngupV9VWekeYVZz2yzlhlmDTNSNUw3a5iYqhq2/8+i77DDK7HRybPRzbPJHWC9k8fWSHmiXuKTU9XMMWuZY9Yxw6x5LiFpMPS47gsHjxa3RLNXZIdbpNktst0r0OwWGdCmp6ExPz2W03NTeX1mQiym4hZ8hyV2N087XTxtd9GtvavuAj4G9OhuFyUqciBeA1xHsEmk7KOskWK8kWNcKseEVI6mVI4xRpo6I/PcPP/sHl+261IZir6D5/uUcHF8n37fpte36PNsenyLXV6ZVrdEn28rwAlSa6SZlqpmllnL3PQYZqVqeEW6njGayz9suj2L9W4/6908G5w8a91+bYY6ytKkOC7TxEnZCRyfHheZqWFF32W108dKp5flTi+rnD6N5O3+VgDnAz9C61FEiYocpHrgpwQjLCIyTKoNk7nmGF6ZHsMR6bEcZtYxYRhH52Tf7fLKbBhMXNa7eVY5fRQ18jJqnZhDzDqOzTRxVLqRw9NjQrEI38Fnm1tgg5tno5NntdPHRndA+1S9UDPwEeBRhUKUqMhQOhP4PdCoUIgcvHGpHK9Kj+VV6QYOM+s5PF2fqDUkUebh0+wWWen08YzTzTK7R6Odo2hKqpp56THMMWuZkaphplnLdLN6WJ6ngu/Q4pVocYvs9ErscItsdQtscQtJq9B1IG4HPgl0KRSiREWGwyEEU8FOUChE9ufFa/AKs46jM40clW7kiPQY6jV9KzZ8YLtbYIXTywqnj6VOt9YfhOCZa0xlGDc4DbcxlWWskaHKMKnGpOpFqjjaeJQHy2JXfJde36bTq9DrW3R6FUq+q+DuvxLwVeCSwcdFRImKDJs08M3Bw1Q4RPZuSqqaYzKNHJNu4uhMo9aVJMw2t8ATdifPOD08a/dobYIk1QqCBfPLFQpRoiIj6WTgGmC6QiECY40Mx2XGcXSmkWPSjcNa/U2ipc+3WWQHlZ4W2d3kNU1M4s8nqBz6FUDDi6JERUanbwZcAHweNLlekmdqqprXZyfwusx45qfHktIrVl6Gh89Kp4+HrF0stNq1tkXiaCXwGeBJhUKUqEgYvBG4DDhcoZC4m23WclJ2IidmxjPXrFdA5KCSltVOP/dZrTxotauSmESdDfwc+DZQUThEiYqESRXwP8B5aJNIidlLc0G6gZOyE3l9ZrxKBsuwsHyPp+wuHrDbeMruwvJVQUoi5XGCUZTVCoUoUZEwOxK4nGCzSJHImpiq4i3ZSbwjN5WpqWoFREbMgO9wn9XGX8vNtHklBUTCrJ9g88Zfo80bRYmKREQK+DTwM6BO4ZCoqDXSvC4znlOzkzk606QXpowqH5+ldg93Wjt5xOrQ5oESNncCnyPYxFFEiYpEzjSCLy2fRovtJbQvRYMTMuM4LTuZ12bHk9GtKiHU4hW5rdzCPVYrBa1lkdG1DvgWcKNCIUpUJA6OIxhdOUmhkLCoMUzenJ3EB3IzmWHWKCASCUXf5e9WK9eXt2pTSRlp3cCPgV+gksOiREVi6N2DL7hDFQoZLZNT1ZyRm87puSnUGGkFRCKp7LvcXmnh+vI2+lXiWIaXDfyOoJpXr8IhSlQkzjLAfwDfJdiHRWREzDXrOaNqBm/JTsLUq1BiouS73FrZwXXlbSpvLMPhDuCLwCaFQpSoSJKMH3z5nQOMUThkuJyYGc/Hq2YzL63bTOKry6vw+9JGHrB2KRhysHyChfLfA55WOESJiiRZPcEIy1eBJoVDhsoJmXGcVTVHCYokyjKnh4uL69nuFhQMOdAE5QJgkcIhSlRE/k8d8CmCTSMnKxxyoOaa9Xy25jCOTDcoGJJIDj7XlbdybWmrShrLvvCAu4DvAEsUDlGiIvLSCcsnCGqzz1c4ZF9NTFXx6epDeXN2kl50IsBqp48fFFZr00h5MX3ANcAlwFqFQ5SoiOyfY4F/Az4OaGtw2SsTg/fmpvPJ6kOoNkwFRGQPRd/hx4U1PGp3KBiy2xrg98AVwIDCIUpURA7ORIJRlg8Ax+s+lt2OSI/lSzXzmGPWKRgiL8IH/re0mWvLWxWM5GoFbgWuAp5SOESJisjwmAa8DzgDeKvCkUwmBh+tns3HqmaT0mtNZJ/83WrlF4W1OFq3khTbgL8AfxtMTjyFRJSoiIycM4ArgQaFIjlmmDWcVzufuWa9giGynx622rmwsEqL7OPvGoK1nir/JpGiCdwSJ2uBPwOvBaYrHPH32sx4flB3FFNSWrIkciBmmbVMNqt53O5UMOKpBHwe+CbBjvIiSlRERtHuqiVjgBMUjngyMPhU9aGcUzOPrJFSQEQOwqFmHSnDYJnTo2DEy1rgbcDdCoUoUREJDxe4B3h28CWtz+2xemkZ/Fft4ZyRm665qyJDZEG6gc3uAM1eUcGIh2uA9wI7FAqJMv3OS9zNIpgOdqJCEX05w+T82ldxQmacgiEyxHp9i7P7nmTAdxSM6CoBXwD+oFBIHGhEReKuD7iWYCrYa5ScR1cag+/ULVCSIjJMqgyTasPkabtLwYimNcBpBDMKRGJBk7slCSrAuQRVwTQJO4IM4Eu1hytJERlm78pNY0KqSoGInmsI9hVbqVCIEhWRaLoVeDXwpEIRLR+pms3bslMUCJFhZmLw3tw0BSI6BoCPAWeh0sOiREUk8rYDbwJ+Cto4IAoWpBs4q3qOAiEyQt6SnaQgRMNi4FjgTwqFKFERiQ8L+ApwCtCicIRXzkjxtdojMLW0SGTETExVMS1Vo0CElw9cDLweWK9wiBIVkXh6gGAq2K0KRTidmZvJZM2XFxlxr0jXKQjh1Aa8g2DdpaVwiBIVkXjrBN4HfALN7w2VsUaGD1XNUiBERkGjkVUQwucW4FWoqpcoURFJnKuB44ClCkU4nJabQpWhCuoio0HPXqiUgC8C7wdUO1qUqIgk1FrgBOC7gKdwjK7TVeVLZNSUfVdBCIclwNHArxQKUaIiIjbwHYJNs7TQfpRMSOWYadYqECKjpNe3FYTRtXvB/OuAdQqHKFERkT39g2Ch/W0Kxcibn25QEERG0SY3ryCMnl1owbyIEhWRl7F7of2/A/rVHkFTVOlLZNSUfJcWt6RAjI4/A/PRgnkRJSoi+8AHLgMWAPcrHCOj1kgrCCKjZJHdhaf9cEdaO/AB4MNowbyIEhWR/bSNYN2KRldGQEavJpFR84TdqSCMrBsJyg7/VaEQUaIicqB2j64cSbBZpAyTIo6CIDIaz57v8pgSlZHSQ/Dx64NAh8IhokRFZChsBU4Z/IEZUDiGXqtbVhBERsH9VhtFXx8KRsCdBKMolykUIkpURIbanqMrDykcQ2u126cgiIz4S83ntsoOBWJ49RJ85HoXsFPhEFGiIjKctgBvGfzhKSgcQ2OHW6TZLSoQIiNoodXOVlevsWF0NxpFEVGiIjLC9hxdeVjhGBr3W20KgsgI8fC5urxVgRgefQQfs96BNhIWUaIiMko2E4yunAv0KxwH525rJ5bvKRAiI+CeSivbNZoyHG4AXolGUUSUqIiEgAtcDBwOXKNwHLhuz+Ieq1WBEBlmed/mitImBWJobSYYQflXQC8yESUqIqHSCpwFvJOgSpgcgOvLWyn7rgIhMoyuKG2mz7cViKFhE3ysOopgTYqIHARTIRAZVhsIhvwd4HV65vZP0XcxSfHqTKOCITIMVjq9/Lq4QYEYGo8C7wauBiyFQ+TgaURFZPiVgO8AC9BGkfvthso2dnolBUJkGD4EXFRYjY+vYBycHuCLwJuAVQqHiBIVkShaT7BR5CcAbf28jyq+x08La9SZEhlivyttoM3T5qoH6UaCNYm/AlT9Q2SIaRqKyMh7FrgCaASOAQyF5KXt8sqMSWV5ZXqMgiEyBB6wdvHH0mYF4sBtBD4E/AjtoSUybDSiIjI6ugnq6p8CrFU4Xt7lpY1sdPMKhMhBavGK/LK4ToE4MCXg2wQbN96ncIgML42oiIyuLQSL7XcArwVqFJK9c/FZ5vRyWnYKGUPfWEQOqJftu3x1YBkdXkXB2H93ECyWv5WgFL2IKFERiT0PWEIwHawaOA6Ndu5Vv2+z0ytxUnai5suJ7Ccfn+8VVrLC6VMw9s9SgmleFwG9CoeIEhWRJCoB9wC3AUcAsxSSF9rmFjANgyPTDQqGyH74Q2mzNlHdP13A14HPoP2wRJSoiAgAbcBVwGqCxfZNCsnzPev0MMesY5ZZq2CI7IN7Kq1cXtqoQOybMvBz4ExgIajkoIgSFRH5Z6uB3xGsXzkBUK98D086nSxINzApVaVgiLyEp+wuflhYpd72y/OBm4D3E5Qd1kIeESUqIvISdq9fuRSwBxOWjMISLK5/xO7g2EwT41I5BURkL9Y6/XyzsBxbW3y8nAcIRlAuJtjAUUSUqIjIPrKAh4BrgfEEpTETv57cxuNRq4MTM+NpSGV1l4jsYYs7wFcHllH0HQXjxa0EPgl8C9ACHhElKiJyEPqAWwimJ0wkWHSf6ISlgsdjdidvzE6gztBgkwhAs1vkKwNL6fNtBWPvtgFfI9jPar3CIaJERUSGTgfBHOq7gSnA3CQHo+S7PGl3cVJ2IjVGWneHJFqLV+TLA0vp9iwF44V2AOcDZwNPo4XyIkpURGT4+iTA9QQ7JB8KzE5qIPK+wyKnmzdkJihZkcRqdoMkpUsbOv6zTuAC4GPAo2jDRhElKiIycv0T4H8JvhAeCkxPYhD6fJtH7Q5OyI5jjKaBScJsdQt8RSMp/6wD+B7wEeBBQAt2RCJEmzuLxNMbgO8Ab03ixTemslxU92oONet0J0girHfz/E9+Gf1ak7JngvJbgv1Q+hUOkWjSiIpIPG0Hrgb+QbDoPlFrWMq+y0PWLuanx2qfFYm9xXY33xh4lgFV9wLYBVxIMIJyH9oLRSTSNKIikgyvA74BnJ6k5z5Dim/UzecNmQm6AySW7q7s5FfFdThaE74F+AlwpZITkfjQiIpIMjQD1wE3Dz7384HYrzj38HnU6mCSWa1pYBIrPj5/KG3m8tKmpG/luIygzPC/EazR0yJ5ESUqIhJR7cAdwBVAATgKqI53sgKP2x1YeBydacTQQLJEnI3HRYU13FFpSXIYHgM+D3wZeHbwUReRmNEvtkiyjQU+C3wBmBr3i31NZhxfr51PncoXS0T1+zbnD6xgpdObzBwN/gz8FFiuu0FEiYqIJEMGeB/B9IlT4nyh01I1fK9uATPNWrW6REqLV+Tr+eW0eMWkXXo78EfgEoJprCKiREVEEuoY4N+BjxPTaWF1Rppv1M7n+Mw4tbZEwmN2Bz8prElaZa9ngN8D1wAl3QUiSlRERHabCHwS+E9gRhxffh+vnsPHq+boRSih5eLzp/JWriltxU9GZS8b+BtwGXC/7gARJSoiIi8lA7wH+AxwKpCK08WdnJ3El2rmUat1KxIy7V6ZCwurWO30JeFyNxEU+bgKaFXri4gSFRHZX9OAjwGfA2bF5aImpqo4r/YIFqQb1MISCs/Y3fywuJoez4rzZVrArQRTu+5CpYVFRImKiAyBFPAWgsX3ZxCDPVlSGHywaiZnVx9CWq9GGSUJmeq1gWD05I8EC+VFRJSoiMiwmAqcCXwCODrqFzM/PZbzauczOVWllpUR1elV+H5hFSviWXq4D7gNuBr4ByRjwY2IKFERkRD18wmqhZ0NTIrqRdQYac6pmcup2clqURkRC612flVcR79vx+myXOBBgqldNwFFtbSIKFERkdGWBt4+mLS8n4hODTslO5lzauZqob0Mm37f5lfFdSy0YjUDajnBtK7rgV1qZRFRoiIiYfUugq+puSie/IRUjnNr5nFiZrxaUobUE3YnvyiupTteC+ZvAj5CUGZYRESJioiE3juAvwKRXfjxpuxEvlAzj7FGRq0pB6XHs7istJH7rLa4XdoNwEcBR60sIkpURCRKTgdujnKyMtbI8Lmaw3hrdrJenrLffOBeq5VLixvJ+7EbcPgLQelyJSkiokRFRCLp7cAtUU5WAI5MN3BuzTxmmbVqUdknzW6Ri4vrWOr0xPHyrgfOUpIiIkpURCTqTgP+BlRH+SJMDN6bm87Z1YdQY5hqVdmriu/yl8p2ri9tw8aL4yVeCXwG4nlxIqJERUSS503AHUBd1C9kXCrHWVVzOD03hZReqbKHJ+1Ofl1czy6vHNdL/APw70pSRESJiojEzRuBu+KQrADMNev5bM1hHJluUMsm3Ho3z6XFDSyP58aNu10OfFZJiogoURGROCcrtwGx6d2flJ3I/6s6hOlmjVo3YXZ5Za4obeJBa1fct13/KfBVtLu8iChREZGYmw/cDcyIywWZGLwtN4WPV81hQiqnFo65Pt/mL+Vt/K2yA8uP9QCDD5wH/EitLiJKVEQkKaYOJitHxumiskaK9+Sm8+GqWdp/JYYGfIebytu5udJM0XfjfrkW8EngOrW8iChREZGkaSSYBvaGuF1YlWHy7tw0zszNpCmVVUtHXNF3uKWygxvL2xnwE1GRtwCcOfgxQUREiYqIJFIOuBb4QBwvLk2KN2cn8vHqOUxNVau1I6bPt7m1soNbyjviuGHji+kC3gU8qTtARJSoiEjSmcAlBGVPY2l3wvKBqpkcatapxUOu3StzY3k7d1mtVOI/xWtPWwg2aV2vu0BElKiIiPyfrwEXxf0ij0438i9VMzghMw5Dr+RQWeP0c3OlmUesdpzkFbhaMZik7NSdICJKVEREXujDwBVEfBf7fTHDrOFd2WmclptMvRbejxoHj4VWO7dUdrDW6U9qGO4EPgL0644QESUqIiIv7kTgZmBKEi42a6R4U2Yi78pNY356rFp/hLR4Re6utHKv1Uq3ZyU1DD7wY+DraCNHEVGiIiKyT6YCtwCvSdJFzzZrOTU7mbdmJzNe+7EMuYrv8bDdzt2VnaxwepO+e2EBOBu4SXeGiChRERHZPzng98AnkveiNnh1uoFTc5N5Q2YiNYapu+EAufg8Y3fzoNXOY3YHhWSUF345O4D3AUsUChFRoiIicuDOBX5GUB0sedmakeLYdBNvyE7gtZnxWs+yDzx8Vji9PGS187DVTl9ySgvvi8eAfwF2KRQiokRFROTgvR24HmhIchBMDI7KNPKGzASOzzQxRXuzPKfoOyyyu3nC7uRpu4t+JSd7cxlwDsGu8yIiSlRERIbIPOAG4EiFIjAtVc1xmXEcm2ni6HQj1QmaIubhs8HJs9TpYanTw7N2L47Wg7+YEvAF4A8KhYgoURERGR5VwI8GO12yhzQGh6XrOSI9lgXpBuabY2lMZWNzfQ4eG50BVrt9LLN7WO70MqD1JvtiLfCvwHKFQkSUqIiIDL8zCPZbaVQoXty0VDVz02M41KzjFWY9h5p1kUhebDya3SJb3AHWOv2sdfvZ6Axga8Rkf10DfI6gwpeIiBIVEZERMpNg3crrFIp915TKMitVyzSzhqmpaqaa1UxNVTM5VT2i1cUs32OXV6bDK9PuV9jpltjuFtjiFmjzSrhJLx58cPKDCcqfFAoRUaIiIjI60sA3gW8BKYXj4OQMkyYjS1Mqy1gjQ2MqS72RwcSg2jDJGSbZvYTZxqPsuy/45wO+g+175H2HAd9mwHcY8B26PYteX+u5h8lSgqleGxQKERERkdH3LqCDYKdtHTqSeHjArwn2HxIRERGREJlEsMu2Oq06knbsBN6tV4CIiIhIuJ2JRld0JGcU5WpUVEJEREQkMiYCN6ojqyPGx1bgFD3qIiIiItF0JtCuTq0O4jWK8nugXo+3iIiISLRNJNjRXp1cHVE/tqBRFBEREZHYeTewSZ1dHRE8ysAPgFo9xiIiIiLxlAXOJdgQTx1gHVE47geO0KMrIiIikgzTCKolqSOsI6zHduAsPaoiIiIiyfRmYKU6xTpCdBSB7wBVejxFREREki0D/DfQo06yDka3mteNwCw9kiIiIiKyp3rga0CfOs06Rvi4Dzhej6CIiIiIvJTxwEVASR1oHcN8PAG8RY+ciIiIiOyPGQQb69nqUOsY4mMlwWakhh4zERERETlQryTYMNJVB1vHQR5rgQ8BKT1WIiIiIjJUDgF+RVCVSZ1uHftzLCYoNWzqMRIRERGR4TKRoHxspzrgOnjpKl63A6fokRERERGRkVRHsMv9VnXKdexxVAg2E9Vu8iIiIiIyqtLAh4GFBF/R1VlP5rEDuACYokdCRERERMJmLkFp413quCficAn2QDlzMGEVEREREQm17GDn9XbAUYc+lqMnF6Fd5EVEREQkwg4BvgdsUAc/0kc/8CfgNFReWERERERiZj5BxbB16vhH4igSjIqdRVA8QUREREQkMUnLeiUEoTpKSk5EREaHoRCIiITOccDbgbcBJ6KF2SNtM3Av8HeCxfEFhURERImKiIg8Xy3wWuDdwHuA2QrJkCsCjwP3Dx5LFBIRESUqIiKyf+YBpw4mL69T4nJA+oGngSeAB4HHAEthERFRoiIiIkNnMnA8cCzw+sHkpUZheZ5W4NHBhORRYBnBniciIqJERURERkgGOBJYABwBvGrwzyTs8dEHrAZW7vHnM0C3bgsRESUqIiISTmOAVw4mMK8kmDI2E5gBTIrQdRSBrcB2oJmgStoKYM3gPxMRESUqIiISE1UEIy4z9zjGAY1A0+DRuMefQ73B4QDBqEfP4J+7/95FMG1r22ASsh3oVHOJiChRERER2ZsGgilm9YP/OUtQnWx30lO9x7/rEUzJAnCA/ODfLYKyvwOArZCKiIiIiIiIiIiIiIiIiIiIiIiIiIhE3v8HsF45N2I503YAAAAldEVYdGRhdGU6Y3JlYXRlADIwMTctMTAtMTVUMTQ6MzY6NTcrMDA6MDDDNeHQAAAAJXRFWHRkYXRlOm1vZGlmeQAyMDE3LTEwLTE1VDE0OjM2OjU3KzAwOjAwsmhZbAAAAABJRU5ErkJggg==;" vertex="1" parent="STuhEBGFBtfZAA0xbkG_-20">
          <mxGeometry x="10" y="25" width="25" height="31.58" as="geometry" />
        </mxCell>
        <mxCell id="STuhEBGFBtfZAA0xbkG_-21" value="Hypervisor" style="group;labelPosition=center;verticalLabelPosition=bottom;align=center;verticalAlign=top;" vertex="1" connectable="0" parent="1">
          <mxGeometry x="384" y="381.58" width="35" height="55" as="geometry" />
        </mxCell>
        <mxCell id="STuhEBGFBtfZAA0xbkG_-1" value="" style="image;aspect=fixed;perimeter=ellipsePerimeter;html=1;align=center;shadow=0;dashed=0;spacingTop=3;image=img/lib/active_directory/generic_server.svg;" vertex="1" parent="STuhEBGFBtfZAA0xbkG_-21">
          <mxGeometry width="28.000000000000004" height="50" as="geometry" />
        </mxCell>
        <mxCell id="STuhEBGFBtfZAA0xbkG_-3" value="" style="shape=image;imageAspect=0;aspect=fixed;verticalLabelPosition=bottom;verticalAlign=top;image=https://camo.githubusercontent.com/cb6c50486cf76c4a9a9a4c7811f8bf97f59f7512d11119a386021086997cae0e/68747470733a2f2f7777772e70726f786d6f782e636f6d2f696d616765732f70726f786d6f782f50726f786d6f785f73796d626f6c5f7374616e646172645f6865782e706e67;" vertex="1" parent="STuhEBGFBtfZAA0xbkG_-21">
          <mxGeometry x="10" y="30" width="25" height="25" as="geometry" />
        </mxCell>
        <mxCell id="STuhEBGFBtfZAA0xbkG_-24" value="&lt;div&gt;kube-api&lt;/div&gt;" style="aspect=fixed;sketch=0;html=1;dashed=0;whitespace=wrap;fillColor=#2875E2;strokeColor=#ffffff;points=[[0.005,0.63,0],[0.1,0.2,0],[0.9,0.2,0],[0.5,0,0],[0.995,0.63,0],[0.72,0.99,0],[0.5,1,0],[0.28,0.99,0]];shape=mxgraph.kubernetes.icon2;prIcon=api;labelPosition=center;verticalLabelPosition=bottom;align=center;verticalAlign=top;" vertex="1" parent="1">
          <mxGeometry x="110" y="210" width="25" height="24" as="geometry" />
        </mxCell>
        <mxCell id="STuhEBGFBtfZAA0xbkG_-25" value="haproxy" style="fillColor=#28A8E0;verticalLabelPosition=bottom;sketch=0;html=1;strokeColor=#ffffff;verticalAlign=top;align=center;points=[[0.145,0.145,0],[0.5,0,0],[0.855,0.145,0],[1,0.5,0],[0.855,0.855,0],[0.5,1,0],[0.145,0.855,0],[0,0.5,0]];pointerEvents=1;shape=mxgraph.cisco_safe.compositeIcon;bgIcon=ellipse;resIcon=mxgraph.cisco_safe.capability.load_balancer;" vertex="1" parent="1">
          <mxGeometry x="140" y="274" width="25" height="25" as="geometry" />
        </mxCell>
        <mxCell id="STuhEBGFBtfZAA0xbkG_-26" value="" style="aspect=fixed;sketch=0;html=1;dashed=0;whitespace=wrap;fillColor=#2875E2;strokeColor=#ffffff;points=[[0.005,0.63,0],[0.1,0.2,0],[0.9,0.2,0],[0.5,0,0],[0.995,0.63,0],[0.72,0.99,0],[0.5,1,0],[0.28,0.99,0]];shape=mxgraph.kubernetes.icon2;kubernetesLabel=1;prIcon=api" vertex="1" parent="1">
          <mxGeometry x="600" y="270" width="50" height="48" as="geometry" />
        </mxCell>
      </root>
    </mxGraphModel>
  </diagram>
</mxfile>
